<?xml version="1.0" encoding="UTF-8" standalone="no"?>
<!-- Created with Inkscape (http://www.inkscape.org/) -->

<svg
   xmlns:dc="http://purl.org/dc/elements/1.1/"
   xmlns:cc="http://creativecommons.org/ns#"
   xmlns:rdf="http://www.w3.org/1999/02/22-rdf-syntax-ns#"
   xmlns:svg="http://www.w3.org/2000/svg"
   xmlns="http://www.w3.org/2000/svg"
   xmlns:sodipodi="http://sodipodi.sourceforge.net/DTD/sodipodi-0.dtd"
   xmlns:inkscape="http://www.inkscape.org/namespaces/inkscape"
   width="210mm"
   height="297mm"
   id="svg7188"
   version="1.1"
   inkscape:version="0.47 r22583"
   sodipodi:docname="meca.svg"
   inkscape:export-filename="/home/xabi/Dropbox/PTSI/1_Filetage/png/meca.png"
   inkscape:export-xdpi="300"
   inkscape:export-ydpi="300">
  <sodipodi:namedview
     id="base"
     pagecolor="#ffffff"
     bordercolor="#666666"
     borderopacity="1.0"
     inkscape:pageopacity="0.0"
     inkscape:pageshadow="2"
     inkscape:zoom="2.8"
     inkscape:cx="295.29892"
     inkscape:cy="1016.3445"
     inkscape:document-units="px"
     inkscape:current-layer="layer1"
     showgrid="true"
     showguides="true"
     inkscape:guide-bbox="true"
     inkscape:window-width="1918"
     inkscape:window-height="1006"
     inkscape:window-x="0"
     inkscape:window-y="25"
     inkscape:window-maximized="1">
    <inkscape:grid
       type="xygrid"
       id="grid7198" />
  </sodipodi:namedview>
  <defs
     id="defs7190">
    <marker
       style="overflow:visible"
       id="Arrow1Mstart"
       refX="0.0"
       refY="0.0"
       orient="auto"
       inkscape:stockid="Arrow1Mstart">
      <path
         transform="scale(0.4) translate(10,0)"
         style="fill-rule:evenodd;stroke:#000000;stroke-width:1.0pt;marker-start:none"
         d="M 0.0,0.0 L 5.0,-5.0 L -12.5,0.0 L 5.0,5.0 L 0.0,0.0 z "
         id="path3775" />
    </marker>
    <marker
       inkscape:stockid="Arrow1Mend"
       orient="auto"
       refY="0.0"
       refX="0.0"
       id="Arrow1Mend"
       style="overflow:visible;">
      <path
         id="path3778"
         d="M 0.0,0.0 L 5.0,-5.0 L -12.5,0.0 L 5.0,5.0 L 0.0,0.0 z "
         style="fill-rule:evenodd;stroke:#000000;stroke-width:1.0pt;marker-start:none;"
         transform="scale(0.4) rotate(180) translate(10,0)" />
    </marker>
    <inkscape:perspective
       sodipodi:type="inkscape:persp3d"
       inkscape:vp_x="0 : 526.18109 : 1"
       inkscape:vp_y="0 : 1000 : 0"
       inkscape:vp_z="744.09448 : 526.18109 : 1"
       inkscape:persp3d-origin="372.04724 : 350.78739 : 1"
       id="perspective7196" />
  </defs>
  <metadata
     id="metadata7193">
    <rdf:RDF>
      <cc:Work
         rdf:about="">
        <dc:format>image/svg+xml</dc:format>
        <dc:type
           rdf:resource="http://purl.org/dc/dcmitype/StillImage" />
        <dc:title></dc:title>
      </cc:Work>
    </rdf:RDF>
  </metadata>
  <g
     inkscape:label="Calque 1"
     inkscape:groupmode="layer"
     id="layer1">
    <path
       sodipodi:type="arc"
       style="fill:none;fill-opacity:1;stroke:#000000;stroke-width:2.47206615999999979;stroke-linecap:round;stroke-linejoin:round;stroke-miterlimit:4;stroke-opacity:1;stroke-dasharray:none;stroke-dashoffset:0"
       id="path7200"
       sodipodi:cx="75"
       sodipodi:cy="72.362183"
       sodipodi:rx="55"
       sodipodi:ry="25"
       d="m 130,72.362183 a 55,25 0 1 1 -110,0 55,25 0 1 1 110,0 z"
       transform="matrix(0.27272728,0,0,0.60000002,44.545454,28.944873)" />
    <path
       transform="matrix(0.45454542,0,0,0.99999993,30.909094,7.0813207e-6)"
       d="m 130,72.362183 a 55,25 0 1 1 -110,0 55,25 0 1 1 110,0 z"
       sodipodi:ry="25"
       sodipodi:rx="55"
       sodipodi:cy="72.362183"
       sodipodi:cx="75"
       id="path7202"
       style="fill:none;stroke:#000000;stroke-width:1.48323989;stroke-linecap:round;stroke-linejoin:round;stroke-miterlimit:4;stroke-opacity:1;stroke-dasharray:none;stroke-dashoffset:0"
       sodipodi:type="arc" />
    <path
       transform="matrix(0.27272728,0,0,0.60000002,44.545454,28.944873)"
       d="m 130,72.362183 a 55,25 0 1 1 -110,0 55,25 0 1 1 110,0 z"
       sodipodi:ry="25"
       sodipodi:rx="55"
       sodipodi:cy="72.362183"
       sodipodi:cx="75"
       id="path7714"
       style="fill:none;fill-opacity:1;stroke:#000000;stroke-width:2.47206615999999979;stroke-linecap:round;stroke-linejoin:round;stroke-miterlimit:4;stroke-opacity:1;stroke-dasharray:none;stroke-dashoffset:0"
       sodipodi:type="arc" />
    <path
       sodipodi:type="arc"
       style="fill:none;stroke:#000000;stroke-width:1.85404934;stroke-linecap:round;stroke-linejoin:round;stroke-miterlimit:4;stroke-opacity:1;stroke-dasharray:none;stroke-dashoffset:0"
       id="path7716"
       sodipodi:cx="75"
       sodipodi:cy="72.362183"
       sodipodi:rx="55"
       sodipodi:ry="25"
       d="M 75.000001,47.362183 A 55,25 0 1 1 20,72.362182"
       transform="matrix(0.18181821,0,0,0.40000006,51.363635,43.417307)"
       sodipodi:start="4.712389"
       sodipodi:end="9.424778"
       sodipodi:open="true" />
    <path
       style="fill:none;stroke:#000000;stroke-width:1px;stroke-linecap:butt;stroke-linejoin:miter;stroke-opacity:1;marker-end:url(#Arrow1Mend)"
       d="m 65,72.362183 0,-35"
       id="path7718" />
    <path
       id="path7906"
       d="m 65,72.362183 35,0"
       style="fill:none;stroke:#000000;stroke-width:1px;stroke-linecap:butt;stroke-linejoin:miter;stroke-opacity:1;marker-end:url(#Arrow1Mend)" />
    <g
       id="g7912"
       inkscape:transform-center-x="-8.4670072"
       inkscape:transform-center-y="-16.11173"
       transform="matrix(0.90204055,-0.43165131,0.43165131,0.90204055,-24.867866,35.145895)">
      <path
         style="fill:none;stroke:#000000;stroke-width:1px;stroke-linecap:butt;stroke-linejoin:miter;stroke-opacity:1;marker-end:url(#Arrow1Mend)"
         d="m 65,72.362183 0,-35"
         id="path7908" />
      <path
         id="path7910"
         d="m 65,72.362183 35,0"
         style="fill:none;stroke:#000000;stroke-width:1px;stroke-linecap:butt;stroke-linejoin:miter;stroke-opacity:1;marker-end:url(#Arrow1Mend)" />
    </g>
    <g
       transform="matrix(0.16315309,0,0,0.16315309,55.402362,12.785353)"
       id="g7934">
      <g
         style="font-style:normal;font-variant:normal;font-weight:normal;font-stretch:normal;letter-spacing:normal;word-spacing:normal;text-anchor:start;fill:none;stroke:#000000;stroke-width:6.12921238;stroke-linecap:butt;stroke-linejoin:miter;stroke-miterlimit:10.43299961;stroke-opacity:1;stroke-dasharray:none;stroke-dashoffset:0"
         id="content"
         transform="matrix(1.0629921,0,0,-1.0629921,-186.02362,789.27165)"
         xml:space="preserve"
         stroke-miterlimit="10.433"
         fill-rule="even-odd"
         font-style="normal"
         font-variant="normal"
         font-weight="normal"
         font-stretch="normal"
         font-size-adjust="none"
         letter-spacing="normal"
         word-spacing="normal"><path
           style="fill:#000000;stroke-width:0"
           d="m 488.83,439.46 0.16,0 0.16,0 0.15,0 0.08,0.01 0.08,0 0.07,0.01 0.08,0.01 0.07,0.01 0.07,0.01 0.07,0.01 0.07,0.02 0.06,0.02 0.07,0.02 0.06,0.03 0.05,0.02 0.06,0.04 0.05,0.03 0.05,0.04 0.05,0.04 0.04,0.05 0.04,0.05 0.01,0.02 0.02,0.03 0.02,0.03 0.01,0.03 0.02,0.03 0.01,0.04 0.01,0.03 0.01,0.03 0.01,0.04 0.01,0.04 0,0.04 0.01,0.04 0,0.04 0.01,0.04 0,0.05 0,0.04 c 0,1 -0.9,1 -1.74,1 h -26.95 c -0.85,0 -1.75,0 -1.75,-1 0,-0.99 0.9,-0.99 1.75,-0.99 z"
           id="path7937" /><path
           style="fill:#000000;stroke-width:0"
           d="m 497.54,439.46 -0.25,-0.2 -0.24,-0.19 -0.24,-0.2 -0.23,-0.19 -0.22,-0.2 -0.21,-0.19 -0.21,-0.19 -0.2,-0.18 -0.19,-0.19 -0.18,-0.18 -0.17,-0.18 -0.17,-0.18 -0.16,-0.17 -0.16,-0.17 -0.14,-0.16 -0.14,-0.17 -0.14,-0.15 -0.12,-0.16 -0.12,-0.15 -0.12,-0.14 -0.1,-0.14 -0.1,-0.13 -0.1,-0.13 -0.08,-0.12 -0.09,-0.11 -0.07,-0.11 -0.07,-0.1 -0.06,-0.1 -0.06,-0.09 -0.05,-0.08 -0.05,-0.07 -0.04,-0.06 c -2.24,-3.44 -2.64,-6.58 -2.64,-6.63 0,-0.6 0.6,-0.6 1,-0.6 0.85,0 0.89,0.1 1.09,1 1.15,4.88 4.09,9.07 9.72,11.35 0.59,0.2 0.74,0.31 0.74,0.65 0,0.35 -0.29,0.5 -0.4,0.55 -2.19,0.85 -8.21,3.34 -10.11,11.71 -0.15,0.59 -0.19,0.74 -1.04,0.74 -0.4,0 -1,0 -1,-0.59 0,-0.1 0.45,-3.24 2.54,-6.58 1,-1.49 2.44,-3.24 4.58,-4.83 h -37.01 c -0.89,0 -1.79,0 -1.79,-1 0,-0.99 0.9,-0.99 1.79,-0.99 z"
           id="path7939" /><path
           style="fill:#000000;stroke-width:0"
           d="m 481.21,424.98 0.01,0.03 0.01,0.03 0.01,0.03 0.01,0.03 0.01,0.06 0.02,0.05 0.01,0.06 0.01,0.04 0.02,0.05 0.01,0.04 0.01,0.04 0.01,0.04 0,0.04 0.01,0.04 0.01,0.03 0,0.03 0.01,0.03 0.01,0.03 0,0.03 0,0.03 0.01,0.03 0,0.02 0,0.06 0.01,0.05 0,0.05 0,0.05 0,0.03 0,0.03 0,0.03 0,0.03 c 0,0.9 -0.7,1.35 -1.45,1.35 -0.5,0 -1.29,-0.3 -1.74,-1.05 -0.1,-0.24 -0.5,-1.79 -0.7,-2.69 -0.34,-1.29 -0.7,-2.64 -0.99,-3.98 l -2.24,-8.97 c -0.2,-0.74 -2.34,-4.23 -5.63,-4.23 -2.54,0 -3.09,2.19 -3.09,4.03 0,2.3 0.84,5.38 2.54,9.77 0.8,2.04 1,2.59 1,3.58 0,2.25 -1.6,4.09 -4.09,4.09 -4.73,0 -6.57,-7.23 -6.57,-7.67 0,-0.5 0.49,-0.5 0.59,-0.5 0.5,0 0.55,0.1 0.8,0.9 1.34,4.68 3.34,6.17 5.03,6.17 0.4,0 1.25,0 1.25,-1.59 0,-1.25 -0.5,-2.54 -0.85,-3.49 -1.99,-5.28 -2.89,-8.12 -2.89,-10.46 0,-4.43 3.14,-5.93 6.08,-5.93 1.94,0 3.63,0.85 5.03,2.25 -0.65,-2.6 -1.25,-5.04 -3.24,-7.68 -1.29,-1.69 -3.19,-3.14 -5.48,-3.14 -0.7,0 -2.94,0.16 -3.79,2.1 0.8,0 1.45,0 2.15,0.59 0.49,0.45 0.99,1.1 0.99,2.05 0,1.54 -1.34,1.74 -1.84,1.74 -1.15,0 -2.79,-0.8 -2.79,-3.24 0,-2.49 2.19,-4.33 5.28,-4.33 5.13,0 10.26,4.53 11.66,10.16 z"
           id="path7941" /><path
           style="fill:#000000;stroke-width:0"
           d="m 493.68,421.18 0,0.04 0,0.04 0,0.04 0,0.04 0,0.04 0,0.04 0,0.03 0,0.04 -0.01,0.03 0,0.03 0,0.04 0,0.03 -0.01,0.02 0,0.03 0,0.03 -0.01,0.03 0,0.02 0,0.02 -0.02,0.05 -0.01,0.04 -0.01,0.04 -0.02,0.03 -0.02,0.03 -0.02,0.03 -0.03,0.03 -0.02,0.02 -0.03,0.02 -0.04,0.02 -0.03,0.01 -0.04,0.01 -0.05,0.02 -0.05,0 -0.02,0.01 -0.03,0 -0.03,0.01 -0.02,0 -0.03,0 -0.03,0 -0.04,0 -0.03,0.01 -0.03,0 -0.04,0 -0.03,0 -0.04,0 -0.04,0 -0.04,0 -0.04,0 -0.04,0 -0.05,0 -0.04,0 c -2.24,-2.19 -5.41,-2.23 -6.84,-2.23 v -1.25 c 0.84,0 3.14,0 5.06,0.97 v -17.78 c 0,-1.15 0,-1.61 -3.49,-1.61 h -1.33 V 399 h 12.45 v 1.25 h -1.32 c -3.49,0 -3.49,0.46 -3.49,1.61 z"
           id="path7943" /></g>    </g>
    <g
       transform="matrix(0.17277149,0,0,0.17277149,11.539027,-29.096957)"
       id="g7991">
      <g
         style="font-style:normal;font-variant:normal;font-weight:normal;font-stretch:normal;letter-spacing:normal;word-spacing:normal;text-anchor:start;fill:none;stroke:#000000;stroke-width:5.787992;stroke-linecap:butt;stroke-linejoin:miter;stroke-miterlimit:10.43299961;stroke-opacity:1;stroke-dasharray:none;stroke-dashoffset:0"
         word-spacing="normal"
         letter-spacing="normal"
         font-size-adjust="none"
         font-stretch="normal"
         font-weight="normal"
         font-variant="normal"
         font-style="normal"
         fill-rule="even-odd"
         stroke-miterlimit="10.433"
         xml:space="preserve"
         transform="matrix(1.0629921,0,0,-1.0629921,-186.02362,789.27165)"
         id="g7993"><path
           style="fill:#000000;stroke-width:0"
           id="path7995"
           d="m 488.83,439.46 0.16,0 0.16,0 0.15,0 0.08,0.01 0.08,0 0.07,0.01 0.08,0.01 0.07,0.01 0.07,0.01 0.07,0.01 0.07,0.02 0.06,0.02 0.07,0.02 0.06,0.03 0.05,0.02 0.06,0.04 0.05,0.03 0.05,0.04 0.05,0.04 0.04,0.05 0.04,0.05 0.01,0.02 0.02,0.03 0.02,0.03 0.01,0.03 0.02,0.03 0.01,0.04 0.01,0.03 0.01,0.03 0.01,0.04 0.01,0.04 0,0.04 0.01,0.04 0,0.04 0.01,0.04 0,0.05 0,0.04 c 0,1 -0.9,1 -1.74,1 h -26.95 c -0.85,0 -1.75,0 -1.75,-1 0,-0.99 0.9,-0.99 1.75,-0.99 z" /><path
           style="fill:#000000;stroke-width:0"
           id="path7997"
           d="m 497.54,439.46 -0.25,-0.2 -0.24,-0.19 -0.24,-0.2 -0.23,-0.19 -0.22,-0.2 -0.21,-0.19 -0.21,-0.19 -0.2,-0.18 -0.19,-0.19 -0.18,-0.18 -0.17,-0.18 -0.17,-0.18 -0.16,-0.17 -0.16,-0.17 -0.14,-0.16 -0.14,-0.17 -0.14,-0.15 -0.12,-0.16 -0.12,-0.15 -0.12,-0.14 -0.1,-0.14 -0.1,-0.13 -0.1,-0.13 -0.08,-0.12 -0.09,-0.11 -0.07,-0.11 -0.07,-0.1 -0.06,-0.1 -0.06,-0.09 -0.05,-0.08 -0.05,-0.07 -0.04,-0.06 c -2.24,-3.44 -2.64,-6.58 -2.64,-6.63 0,-0.6 0.6,-0.6 1,-0.6 0.85,0 0.89,0.1 1.09,1 1.15,4.88 4.09,9.07 9.72,11.35 0.59,0.2 0.74,0.31 0.74,0.65 0,0.35 -0.29,0.5 -0.4,0.55 -2.19,0.85 -8.21,3.34 -10.11,11.71 -0.15,0.59 -0.19,0.74 -1.04,0.74 -0.4,0 -1,0 -1,-0.59 0,-0.1 0.45,-3.24 2.54,-6.58 1,-1.49 2.44,-3.24 4.58,-4.83 h -37.01 c -0.89,0 -1.79,0 -1.79,-1 0,-0.99 0.9,-0.99 1.79,-0.99 z" /><path
           style="fill:#000000;stroke-width:0"
           id="path7999"
           d="m 464.62,410.13 0.25,0.27 0.25,0.26 0.23,0.24 0.23,0.24 0.22,0.23 0.22,0.23 0.21,0.21 0.2,0.21 0.2,0.2 0.2,0.2 0.19,0.19 0.19,0.18 0.18,0.18 0.18,0.17 0.36,0.34 0.34,0.32 0.33,0.3 0.33,0.29 0.32,0.29 0.64,0.56 0.33,0.29 0.33,0.28 c 0,0.05 3.09,2.69 4.88,4.49 4.74,4.63 5.83,7.02 5.83,7.22 0,0.5 -0.45,0.5 -0.55,0.5 -0.34,0 -0.5,-0.1 -0.74,-0.55 -1.5,-2.39 -2.54,-3.19 -3.74,-3.19 -1.19,0 -1.79,0.75 -2.54,1.6 -0.94,1.14 -1.79,2.14 -3.44,2.14 -3.73,0 -6.02,-4.64 -6.02,-5.68 0,-0.25 0.15,-0.55 0.59,-0.55 0.45,0 0.55,0.25 0.65,0.55 0.95,2.29 3.84,2.34 4.24,2.34 1.04,0 1.99,-0.35 3.13,-0.75 2,-0.75 2.55,-0.75 3.84,-0.75 -1.79,-2.14 -5.98,-5.72 -6.92,-6.52 l -4.49,-4.18 c -3.38,-3.34 -5.13,-6.18 -5.13,-6.53 0,-0.5 0.5,-0.5 0.6,-0.5 0.4,0 0.5,0.1 0.8,0.65 1.14,1.74 2.64,3.09 4.23,3.09 1.15,0 1.64,-0.45 2.89,-1.89 0.85,-1.05 1.74,-1.85 3.19,-1.85 4.93,0 7.82,6.33 7.82,7.67 0,0.25 -0.2,0.5 -0.6,0.5 -0.45,0 -0.55,-0.3 -0.69,-0.65 -1.15,-3.24 -4.34,-4.18 -5.99,-4.18 -0.99,0 -1.89,0.3 -2.93,0.65 -1.7,0.65 -2.44,0.85 -3.49,0.85 -0.1,0 -0.9,0 -1.35,-0.16 z" /><path
           style="fill:#000000;stroke-width:0"
           id="path8001"
           d="m 492.68,421.18 0,0.04 0,0.04 0,0.04 0,0.04 0,0.04 0,0.04 0,0.03 0,0.04 -0.01,0.03 0,0.03 0,0.04 0,0.03 -0.01,0.02 0,0.03 0,0.03 -0.01,0.03 0,0.02 0,0.02 -0.02,0.05 -0.01,0.04 -0.01,0.04 -0.02,0.03 -0.02,0.03 -0.02,0.03 -0.03,0.03 -0.02,0.02 -0.03,0.02 -0.04,0.02 -0.03,0.01 -0.04,0.01 -0.05,0.02 -0.05,0 -0.02,0.01 -0.03,0 -0.03,0.01 -0.02,0 -0.03,0 -0.03,0 -0.04,0 -0.03,0.01 -0.03,0 -0.04,0 -0.03,0 -0.04,0 -0.04,0 -0.04,0 -0.04,0 -0.04,0 -0.05,0 -0.04,0 c -2.24,-2.19 -5.41,-2.23 -6.84,-2.23 v -1.25 c 0.84,0 3.14,0 5.06,0.97 v -17.78 c 0,-1.15 0,-1.61 -3.49,-1.61 h -1.33 V 399 h 12.45 v 1.25 h -1.32 c -3.49,0 -3.49,0.46 -3.49,1.61 z" /></g>    </g>
    <g
       transform="matrix(0.17277149,0,0,0.17277149,-12.235996,-25.179602)"
       id="g8061">
      <g
         style="font-style:normal;font-variant:normal;font-weight:normal;font-stretch:normal;letter-spacing:normal;word-spacing:normal;text-anchor:start;fill:none;stroke:#000000;stroke-width:5.787992;stroke-linecap:butt;stroke-linejoin:miter;stroke-miterlimit:10.43299961;stroke-opacity:1;stroke-dasharray:none;stroke-dashoffset:0"
         id="g8063"
         transform="matrix(1.0629921,0,0,-1.0629921,-186.02362,789.27165)"
         xml:space="preserve"
         stroke-miterlimit="10.433"
         fill-rule="even-odd"
         font-style="normal"
         font-variant="normal"
         font-weight="normal"
         font-stretch="normal"
         font-size-adjust="none"
         letter-spacing="normal"
         word-spacing="normal"><path
           style="fill:#000000;stroke-width:0"
           d="m 488.83,439.46 0.16,0 0.16,0 0.15,0 0.08,0.01 0.08,0 0.07,0.01 0.08,0.01 0.07,0.01 0.07,0.01 0.07,0.01 0.07,0.02 0.06,0.02 0.07,0.02 0.06,0.03 0.05,0.02 0.06,0.04 0.05,0.03 0.05,0.04 0.05,0.04 0.04,0.05 0.04,0.05 0.01,0.02 0.02,0.03 0.02,0.03 0.01,0.03 0.02,0.03 0.01,0.04 0.01,0.03 0.01,0.03 0.01,0.04 0.01,0.04 0,0.04 0.01,0.04 0,0.04 0.01,0.04 0,0.05 0,0.04 c 0,1 -0.9,1 -1.74,1 h -26.95 c -0.85,0 -1.75,0 -1.75,-1 0,-0.99 0.9,-0.99 1.75,-0.99 z"
           id="path8065" /><path
           style="fill:#000000;stroke-width:0"
           d="m 497.54,439.46 -0.25,-0.2 -0.24,-0.19 -0.24,-0.2 -0.23,-0.19 -0.22,-0.2 -0.21,-0.19 -0.21,-0.19 -0.2,-0.18 -0.19,-0.19 -0.18,-0.18 -0.17,-0.18 -0.17,-0.18 -0.16,-0.17 -0.16,-0.17 -0.14,-0.16 -0.14,-0.17 -0.14,-0.15 -0.12,-0.16 -0.12,-0.15 -0.12,-0.14 -0.1,-0.14 -0.1,-0.13 -0.1,-0.13 -0.08,-0.12 -0.09,-0.11 -0.07,-0.11 -0.07,-0.1 -0.06,-0.1 -0.06,-0.09 -0.05,-0.08 -0.05,-0.07 -0.04,-0.06 c -2.24,-3.44 -2.64,-6.58 -2.64,-6.63 0,-0.6 0.6,-0.6 1,-0.6 0.85,0 0.89,0.1 1.09,1 1.15,4.88 4.09,9.07 9.72,11.35 0.59,0.2 0.74,0.31 0.74,0.65 0,0.35 -0.29,0.5 -0.4,0.55 -2.19,0.85 -8.21,3.34 -10.11,11.71 -0.15,0.59 -0.19,0.74 -1.04,0.74 -0.4,0 -1,0 -1,-0.59 0,-0.1 0.45,-3.24 2.54,-6.58 1,-1.49 2.44,-3.24 4.58,-4.83 h -37.01 c -0.89,0 -1.79,0 -1.79,-1 0,-0.99 0.9,-0.99 1.79,-0.99 z"
           id="path8067" /><path
           style="fill:#000000;stroke-width:0"
           d="m 464.62,410.13 0.25,0.27 0.25,0.26 0.23,0.24 0.23,0.24 0.22,0.23 0.22,0.23 0.21,0.21 0.2,0.21 0.2,0.2 0.2,0.2 0.19,0.19 0.19,0.18 0.18,0.18 0.18,0.17 0.36,0.34 0.34,0.32 0.33,0.3 0.33,0.29 0.32,0.29 0.64,0.56 0.33,0.29 0.33,0.28 c 0,0.05 3.09,2.69 4.88,4.49 4.74,4.63 5.83,7.02 5.83,7.22 0,0.5 -0.45,0.5 -0.55,0.5 -0.34,0 -0.5,-0.1 -0.74,-0.55 -1.5,-2.39 -2.54,-3.19 -3.74,-3.19 -1.19,0 -1.79,0.75 -2.54,1.6 -0.94,1.14 -1.79,2.14 -3.44,2.14 -3.73,0 -6.02,-4.64 -6.02,-5.68 0,-0.25 0.15,-0.55 0.59,-0.55 0.45,0 0.55,0.25 0.65,0.55 0.95,2.29 3.84,2.34 4.24,2.34 1.04,0 1.99,-0.35 3.13,-0.75 2,-0.75 2.55,-0.75 3.84,-0.75 -1.79,-2.14 -5.98,-5.72 -6.92,-6.52 l -4.49,-4.18 c -3.38,-3.34 -5.13,-6.18 -5.13,-6.53 0,-0.5 0.5,-0.5 0.6,-0.5 0.4,0 0.5,0.1 0.8,0.65 1.14,1.74 2.64,3.09 4.23,3.09 1.15,0 1.64,-0.45 2.89,-1.89 0.85,-1.05 1.74,-1.85 3.19,-1.85 4.93,0 7.82,6.33 7.82,7.67 0,0.25 -0.2,0.5 -0.6,0.5 -0.45,0 -0.55,-0.3 -0.69,-0.65 -1.15,-3.24 -4.34,-4.18 -5.99,-4.18 -0.99,0 -1.89,0.3 -2.93,0.65 -1.7,0.65 -2.44,0.85 -3.49,0.85 -0.1,0 -0.9,0 -1.35,-0.16 z"
           id="path8069" /><path
           style="fill:#000000;stroke-width:0"
           d="m 498.61,405.35 h -1.19 c -0.1,-0.77 -0.45,-2.83 -0.9,-3.18 -0.28,-0.21 -2.97,-0.21 -3.45,-0.21 h -6.42 c 3.66,3.25 4.88,4.22 6.97,5.86 2.58,2.06 4.99,4.22 4.99,7.54 0,4.21 -3.7,6.79 -8.16,6.79 -4.33,0 -7.25,-3.03 -7.25,-6.24 0,-1.78 1.5,-1.95 1.84,-1.95 0.84,0 1.85,0.59 1.85,1.85 0,0.62 -0.24,1.85 -2.05,1.85 1.08,2.47 3.45,3.24 5.09,3.24 3.48,0 5.3,-2.72 5.3,-5.54 0,-3.04 -2.16,-5.45 -3.28,-6.7 l -8.4,-8.3 c -0.35,-0.31 -0.35,-0.38 -0.35,-1.36 h 14.36 z"
           id="path8071" /></g>    </g>
    <g
       transform="matrix(0.1631531,0,0,0.1631531,44.793618,-5.9538109)"
       id="g8143">
      <g
         style="font-style:normal;font-variant:normal;font-weight:normal;font-stretch:normal;letter-spacing:normal;word-spacing:normal;text-anchor:start;fill:none;stroke:#000000;stroke-width:6.12921238;stroke-linecap:butt;stroke-linejoin:miter;stroke-miterlimit:10.43299961;stroke-opacity:1;stroke-dasharray:none;stroke-dashoffset:0"
         word-spacing="normal"
         letter-spacing="normal"
         font-size-adjust="none"
         font-stretch="normal"
         font-weight="normal"
         font-variant="normal"
         font-style="normal"
         fill-rule="even-odd"
         stroke-miterlimit="10.433"
         xml:space="preserve"
         transform="matrix(1.0629921,0,0,-1.0629921,-186.02362,789.27165)"
         id="g8145"><path
           style="fill:#000000;stroke-width:0"
           id="path8147"
           d="m 488.83,439.46 0.16,0 0.16,0 0.15,0 0.08,0.01 0.08,0 0.07,0.01 0.08,0.01 0.07,0.01 0.07,0.01 0.07,0.01 0.07,0.02 0.06,0.02 0.07,0.02 0.06,0.03 0.05,0.02 0.06,0.04 0.05,0.03 0.05,0.04 0.05,0.04 0.04,0.05 0.04,0.05 0.01,0.02 0.02,0.03 0.02,0.03 0.01,0.03 0.02,0.03 0.01,0.04 0.01,0.03 0.01,0.03 0.01,0.04 0.01,0.04 0,0.04 0.01,0.04 0,0.04 0.01,0.04 0,0.05 0,0.04 c 0,1 -0.9,1 -1.74,1 h -26.95 c -0.85,0 -1.75,0 -1.75,-1 0,-0.99 0.9,-0.99 1.75,-0.99 z" /><path
           style="fill:#000000;stroke-width:0"
           id="path8149"
           d="m 497.54,439.46 -0.25,-0.2 -0.24,-0.19 -0.24,-0.2 -0.23,-0.19 -0.22,-0.2 -0.21,-0.19 -0.21,-0.19 -0.2,-0.18 -0.19,-0.19 -0.18,-0.18 -0.17,-0.18 -0.17,-0.18 -0.16,-0.17 -0.16,-0.17 -0.14,-0.16 -0.14,-0.17 -0.14,-0.15 -0.12,-0.16 -0.12,-0.15 -0.12,-0.14 -0.1,-0.14 -0.1,-0.13 -0.1,-0.13 -0.08,-0.12 -0.09,-0.11 -0.07,-0.11 -0.07,-0.1 -0.06,-0.1 -0.06,-0.09 -0.05,-0.08 -0.05,-0.07 -0.04,-0.06 c -2.24,-3.44 -2.64,-6.58 -2.64,-6.63 0,-0.6 0.6,-0.6 1,-0.6 0.85,0 0.89,0.1 1.09,1 1.15,4.88 4.09,9.07 9.72,11.35 0.59,0.2 0.74,0.31 0.74,0.65 0,0.35 -0.29,0.5 -0.4,0.55 -2.19,0.85 -8.21,3.34 -10.11,11.71 -0.15,0.59 -0.19,0.74 -1.04,0.74 -0.4,0 -1,0 -1,-0.59 0,-0.1 0.45,-3.24 2.54,-6.58 1,-1.49 2.44,-3.24 4.58,-4.83 h -37.01 c -0.89,0 -1.79,0 -1.79,-1 0,-0.99 0.9,-0.99 1.79,-0.99 z" /><path
           style="fill:#000000;stroke-width:0"
           id="path8151"
           d="m 481.21,424.98 0.01,0.03 0.01,0.03 0.01,0.03 0.01,0.03 0.01,0.06 0.02,0.05 0.01,0.06 0.01,0.04 0.02,0.05 0.01,0.04 0.01,0.04 0.01,0.04 0,0.04 0.01,0.04 0.01,0.03 0,0.03 0.01,0.03 0.01,0.03 0,0.03 0,0.03 0.01,0.03 0,0.02 0,0.06 0.01,0.05 0,0.05 0,0.05 0,0.03 0,0.03 0,0.03 0,0.03 c 0,0.9 -0.7,1.35 -1.45,1.35 -0.5,0 -1.29,-0.3 -1.74,-1.05 -0.1,-0.24 -0.5,-1.79 -0.7,-2.69 -0.34,-1.29 -0.7,-2.64 -0.99,-3.98 l -2.24,-8.97 c -0.2,-0.74 -2.34,-4.23 -5.63,-4.23 -2.54,0 -3.09,2.19 -3.09,4.03 0,2.3 0.84,5.38 2.54,9.77 0.8,2.04 1,2.59 1,3.58 0,2.25 -1.6,4.09 -4.09,4.09 -4.73,0 -6.57,-7.23 -6.57,-7.67 0,-0.5 0.49,-0.5 0.59,-0.5 0.5,0 0.55,0.1 0.8,0.9 1.34,4.68 3.34,6.17 5.03,6.17 0.4,0 1.25,0 1.25,-1.59 0,-1.25 -0.5,-2.54 -0.85,-3.49 -1.99,-5.28 -2.89,-8.12 -2.89,-10.46 0,-4.43 3.14,-5.93 6.08,-5.93 1.94,0 3.63,0.85 5.03,2.25 -0.65,-2.6 -1.25,-5.04 -3.24,-7.68 -1.29,-1.69 -3.19,-3.14 -5.48,-3.14 -0.7,0 -2.94,0.16 -3.79,2.1 0.8,0 1.45,0 2.15,0.59 0.49,0.45 0.99,1.1 0.99,2.05 0,1.54 -1.34,1.74 -1.84,1.74 -1.15,0 -2.79,-0.8 -2.79,-3.24 0,-2.49 2.19,-4.33 5.28,-4.33 5.13,0 10.26,4.53 11.66,10.16 z" /><path
           style="fill:#000000;stroke-width:0"
           id="path8153"
           d="m 499.61,405.35 h -1.19 c -0.1,-0.77 -0.45,-2.83 -0.9,-3.18 -0.28,-0.21 -2.97,-0.21 -3.45,-0.21 h -6.42 c 3.66,3.25 4.88,4.22 6.97,5.86 2.58,2.06 4.99,4.22 4.99,7.54 0,4.21 -3.7,6.79 -8.16,6.79 -4.33,0 -7.25,-3.03 -7.25,-6.24 0,-1.78 1.5,-1.95 1.84,-1.95 0.84,0 1.85,0.59 1.85,1.85 0,0.62 -0.24,1.85 -2.05,1.85 1.08,2.47 3.45,3.24 5.09,3.24 3.48,0 5.3,-2.72 5.3,-5.54 0,-3.04 -2.16,-5.45 -3.28,-6.7 l -8.4,-8.3 c -0.35,-0.31 -0.35,-0.38 -0.35,-1.36 h 14.36 z" /></g>    </g>
    <g
       transform="matrix(0.17277149,0,0,0.17277149,305.35445,3.5540991)"
       id="g8237">
      <g
         style="font-style:normal;font-variant:normal;font-weight:normal;font-stretch:normal;letter-spacing:normal;word-spacing:normal;text-anchor:start;fill:none;stroke:#000000;stroke-width:5.787992;stroke-linecap:butt;stroke-linejoin:miter;stroke-miterlimit:10.43299961;stroke-opacity:1;stroke-dasharray:none;stroke-dashoffset:0"
         id="g8239"
         transform="matrix(1.0629921,0,0,-1.0629921,-186.02362,789.27165)"
         xml:space="preserve"
         stroke-miterlimit="10.433"
         fill-rule="even-odd"
         font-style="normal"
         font-variant="normal"
         font-weight="normal"
         font-stretch="normal"
         font-size-adjust="none"
         letter-spacing="normal"
         word-spacing="normal"><path
           style="fill:#000000;stroke-width:0"
           d="m 488.83,439.46 0.16,0 0.16,0 0.15,0 0.08,0.01 0.08,0 0.07,0.01 0.08,0.01 0.07,0.01 0.07,0.01 0.07,0.01 0.07,0.02 0.06,0.02 0.07,0.02 0.06,0.03 0.05,0.02 0.06,0.04 0.05,0.03 0.05,0.04 0.05,0.04 0.04,0.05 0.04,0.05 0.01,0.02 0.02,0.03 0.02,0.03 0.01,0.03 0.02,0.03 0.01,0.04 0.01,0.03 0.01,0.03 0.01,0.04 0.01,0.04 0,0.04 0.01,0.04 0,0.04 0.01,0.04 0,0.05 0,0.04 c 0,1 -0.9,1 -1.74,1 h -26.95 c -0.85,0 -1.75,0 -1.75,-1 0,-0.99 0.9,-0.99 1.75,-0.99 z"
           id="path8241" /><path
           style="fill:#000000;stroke-width:0"
           d="m 498.54,439.46 -0.25,-0.2 -0.24,-0.19 -0.24,-0.2 -0.23,-0.19 -0.22,-0.2 -0.21,-0.19 -0.21,-0.19 -0.2,-0.18 -0.19,-0.19 -0.18,-0.18 -0.17,-0.18 -0.17,-0.18 -0.16,-0.17 -0.16,-0.17 -0.14,-0.16 -0.14,-0.17 -0.14,-0.15 -0.12,-0.16 -0.12,-0.15 -0.12,-0.14 -0.1,-0.14 -0.1,-0.13 -0.1,-0.13 -0.08,-0.12 -0.09,-0.11 -0.07,-0.11 -0.07,-0.1 -0.06,-0.1 -0.06,-0.09 -0.05,-0.08 -0.05,-0.07 -0.04,-0.06 c -2.24,-3.44 -2.64,-6.58 -2.64,-6.63 0,-0.6 0.6,-0.6 1,-0.6 0.85,0 0.89,0.1 1.09,1 1.15,4.88 4.09,9.07 9.72,11.35 0.59,0.2 0.74,0.31 0.74,0.65 0,0.35 -0.29,0.5 -0.4,0.55 -2.19,0.85 -8.21,3.34 -10.11,11.71 -0.15,0.59 -0.19,0.74 -1.04,0.74 -0.4,0 -1,0 -1,-0.59 0,-0.1 0.45,-3.24 2.54,-6.58 1,-1.49 2.44,-3.24 4.58,-4.83 h -37.01 c -0.89,0 -1.79,0 -1.79,-1 0,-0.99 0.9,-0.99 1.79,-0.99 z"
           id="path8243" /><path
           style="fill:#000000;stroke-width:0"
           d="m 472.64,421.04 0.03,0.13 0.03,0.15 0.05,0.17 0.04,0.18 0.06,0.19 0.06,0.21 0.06,0.21 0.07,0.23 0.08,0.23 0.09,0.24 0.1,0.25 0.1,0.24 0.11,0.25 0.12,0.25 0.13,0.25 0.14,0.25 0.15,0.24 0.15,0.24 0.17,0.23 0.18,0.22 0.18,0.22 0.2,0.2 0.21,0.19 0.22,0.18 0.23,0.16 0.25,0.14 0.12,0.07 0.13,0.06 0.13,0.05 0.14,0.05 0.14,0.05 0.14,0.04 0.14,0.03 0.15,0.03 0.15,0.02 0.16,0.02 0.16,0.01 0.16,0 c 0.25,0 1.45,0 2.49,-0.65 -1.4,-0.25 -2.39,-1.49 -2.39,-2.68 0,-0.8 0.54,-1.75 1.89,-1.75 1.1,0 2.69,0.9 2.69,2.89 0,2.59 -2.94,3.29 -4.63,3.29 -2.89,0 -4.64,-2.64 -5.23,-3.79 -1.25,3.29 -3.94,3.79 -5.38,3.79 -5.18,0 -8.02,-6.43 -8.02,-7.67 0,-0.5 0.5,-0.5 0.6,-0.5 0.39,0 0.54,0.1 0.64,0.54 1.7,5.29 4.98,6.53 6.68,6.53 0.95,0 2.69,-0.45 2.69,-3.33 0,-1.55 -0.85,-4.89 -2.69,-11.86 -0.8,-3.09 -2.54,-5.18 -4.73,-5.18 -0.3,0 -1.45,0 -2.49,0.65 1.24,0.25 2.34,1.29 2.34,2.69 0,1.34 -1.1,1.74 -1.85,1.74 -1.49,0 -2.73,-1.3 -2.73,-2.89 0,-2.29 2.48,-3.29 4.68,-3.29 3.28,0 5.08,3.49 5.23,3.79 0.6,-1.85 2.39,-3.79 5.38,-3.79 5.13,0 7.97,6.43 7.97,7.67 0,0.5 -0.45,0.5 -0.6,0.5 -0.45,0 -0.55,-0.2 -0.65,-0.55 -1.64,-5.33 -5.03,-6.52 -6.62,-6.52 -1.95,0 -2.74,1.59 -2.74,3.29 0,1.09 0.29,2.19 0.85,4.38 z"
           id="path8245" /><path
           style="fill:#000000;stroke-width:0"
           d="m 495.68,421.18 0,0.04 0,0.04 0,0.04 0,0.04 0,0.04 0,0.04 0,0.03 0,0.04 -0.01,0.03 0,0.03 0,0.04 0,0.03 -0.01,0.02 0,0.03 0,0.03 -0.01,0.03 0,0.02 0,0.02 -0.02,0.05 -0.01,0.04 -0.01,0.04 -0.02,0.03 -0.02,0.03 -0.02,0.03 -0.03,0.03 -0.02,0.02 -0.03,0.02 -0.04,0.02 -0.03,0.01 -0.04,0.01 -0.05,0.02 -0.05,0 -0.02,0.01 -0.03,0 -0.03,0.01 -0.02,0 -0.03,0 -0.03,0 -0.04,0 -0.03,0.01 -0.03,0 -0.04,0 -0.03,0 -0.04,0 -0.04,0 -0.04,0 -0.04,0 -0.04,0 -0.05,0 -0.04,0 c -2.24,-2.19 -5.41,-2.23 -6.84,-2.23 v -1.25 c 0.84,0 3.14,0 5.06,0.97 v -17.78 c 0,-1.15 0,-1.61 -3.49,-1.61 h -1.33 V 399 h 12.45 v 1.25 h -1.32 c -3.49,0 -3.49,0.46 -3.49,1.61 z"
           id="path8247" /><path
           style="fill:#000000;stroke-width:0"
           d="m 554.22,422.29 0.14,0 0.15,0 0.15,0.01 0.07,0 0.07,0 0.07,0.01 0.08,0.01 0.07,0.01 0.07,0.01 0.06,0.02 0.07,0.01 0.07,0.02 0.06,0.02 0.06,0.03 0.06,0.03 0.05,0.03 0.06,0.03 0.05,0.04 0.04,0.04 0.05,0.05 0.03,0.05 0.02,0.03 0.02,0.02 0.02,0.03 0.01,0.03 0.02,0.03 0.01,0.04 0.01,0.03 0.01,0.04 0.01,0.03 0.01,0.04 0.01,0.04 0,0.04 0.01,0.04 0,0.04 0,0.05 0,0.05 c 0,0.99 -0.94,0.99 -1.64,0.99 h -29.84 c -0.7,0 -1.64,0 -1.64,-0.99 0,-1 0.94,-1 1.69,-1 z"
           id="path8249" /><path
           style="fill:#000000;stroke-width:0"
           d="m 554.27,412.62 0.13,0.01 0.14,0 0.14,0 0.07,0.01 0.07,0 0.07,0.01 0.07,0.01 0.07,0.01 0.07,0.01 0.06,0.01 0.07,0.02 0.06,0.02 0.06,0.02 0.06,0.02 0.06,0.03 0.06,0.03 0.05,0.04 0.05,0.04 0.04,0.04 0.05,0.04 0.02,0.03 0.02,0.03 0.01,0.02 0.02,0.03 0.02,0.03 0.01,0.03 0.02,0.03 0.01,0.03 0.01,0.04 0.01,0.03 0.01,0.04 0.01,0.04 0.01,0.04 0,0.04 0.01,0.04 0,0.04 0,0.05 0,0.04 c 0,1 -0.94,1 -1.69,1 h -29.74 c -0.75,0 -1.69,0 -1.69,-1 0,-1 0.94,-1 1.64,-1 z"
           id="path8251" /><path
           style="fill:#000000;stroke-width:0"
           d="m 605.83,439.46 0.16,0 0.16,0 0.15,0 0.08,0.01 0.08,0 0.07,0.01 0.08,0.01 0.07,0.01 0.07,0.01 0.07,0.01 0.07,0.02 0.06,0.02 0.07,0.02 0.06,0.03 0.05,0.02 0.06,0.04 0.05,0.03 0.05,0.04 0.05,0.04 0.04,0.05 0.04,0.05 0.01,0.02 0.02,0.03 0.02,0.03 0.01,0.03 0.02,0.03 0.01,0.04 0.01,0.03 0.01,0.03 0.01,0.04 0.01,0.04 0,0.04 0.01,0.04 0,0.04 0.01,0.04 0,0.05 0,0.04 c 0,1 -0.9,1 -1.74,1 h -26.95 c -0.85,0 -1.75,0 -1.75,-1 0,-0.99 0.9,-0.99 1.75,-0.99 z"
           id="path8253" /><path
           style="fill:#000000;stroke-width:0"
           d="m 615.54,439.46 -0.25,-0.2 -0.24,-0.19 -0.24,-0.2 -0.23,-0.19 -0.22,-0.2 -0.21,-0.19 -0.21,-0.19 -0.2,-0.18 -0.19,-0.19 -0.18,-0.18 -0.17,-0.18 -0.17,-0.18 -0.16,-0.17 -0.16,-0.17 -0.14,-0.16 -0.14,-0.17 -0.14,-0.15 -0.12,-0.16 -0.12,-0.15 -0.12,-0.14 -0.1,-0.14 -0.1,-0.13 -0.1,-0.13 -0.08,-0.12 -0.09,-0.11 -0.07,-0.11 -0.07,-0.1 -0.06,-0.1 -0.06,-0.09 -0.05,-0.08 -0.05,-0.07 -0.04,-0.06 c -2.24,-3.44 -2.64,-6.58 -2.64,-6.63 0,-0.6 0.6,-0.6 1,-0.6 0.85,0 0.89,0.1 1.09,1 1.15,4.88 4.09,9.07 9.72,11.35 0.59,0.2 0.74,0.31 0.74,0.65 0,0.35 -0.29,0.5 -0.4,0.55 -2.19,0.85 -8.22,3.34 -10.1,11.71 -0.16,0.59 -0.2,0.74 -1.05,0.74 -0.4,0 -1,0 -1,-0.59 0,-0.1 0.45,-3.24 2.54,-6.58 1,-1.49 2.44,-3.24 4.58,-4.83 h -37.01 c -0.89,0 -1.79,0 -1.79,-1 0,-0.99 0.9,-0.99 1.79,-0.99 z"
           id="path8255" /><path
           style="fill:#000000;stroke-width:0"
           d="m 589.64,421.04 0.03,0.13 0.03,0.15 0.05,0.17 0.04,0.18 0.06,0.19 0.06,0.21 0.06,0.21 0.07,0.23 0.08,0.23 0.09,0.24 0.1,0.25 0.1,0.24 0.11,0.25 0.12,0.25 0.13,0.25 0.14,0.25 0.15,0.24 0.15,0.24 0.17,0.23 0.18,0.22 0.18,0.22 0.2,0.2 0.21,0.19 0.22,0.18 0.23,0.16 0.25,0.14 0.12,0.07 0.13,0.06 0.13,0.05 0.14,0.05 0.14,0.05 0.14,0.04 0.14,0.03 0.15,0.03 0.15,0.02 0.16,0.02 0.16,0.01 0.16,0 c 0.25,0 1.45,0 2.49,-0.65 -1.4,-0.25 -2.39,-1.49 -2.39,-2.68 0,-0.8 0.55,-1.75 1.89,-1.75 1.1,0 2.69,0.9 2.69,2.89 0,2.59 -2.94,3.29 -4.63,3.29 -2.89,0 -4.64,-2.64 -5.23,-3.79 -1.24,3.29 -3.94,3.79 -5.38,3.79 -5.18,0 -8.02,-6.43 -8.02,-7.67 0,-0.5 0.5,-0.5 0.6,-0.5 0.39,0 0.54,0.1 0.64,0.54 1.7,5.29 4.99,6.53 6.68,6.53 0.94,0 2.69,-0.45 2.69,-3.33 0,-1.55 -0.85,-4.89 -2.69,-11.86 -0.8,-3.09 -2.54,-5.18 -4.73,-5.18 -0.3,0 -1.45,0 -2.49,0.65 1.24,0.25 2.34,1.29 2.34,2.69 0,1.34 -1.1,1.74 -1.85,1.74 -1.49,0 -2.73,-1.3 -2.73,-2.89 0,-2.29 2.48,-3.29 4.68,-3.29 3.28,0 5.08,3.49 5.22,3.79 0.61,-1.85 2.4,-3.79 5.39,-3.79 5.13,0 7.97,6.43 7.97,7.67 0,0.5 -0.45,0.5 -0.6,0.5 -0.45,0 -0.55,-0.2 -0.65,-0.55 -1.64,-5.33 -5.03,-6.52 -6.62,-6.52 -1.94,0 -2.74,1.59 -2.74,3.29 0,1.09 0.3,2.19 0.85,4.38 z"
           id="path8257" /><path
           style="fill:#000000;stroke-width:0"
           d="m 618.61,405.35 h -1.19 c -0.1,-0.77 -0.45,-2.83 -0.9,-3.18 -0.28,-0.21 -2.97,-0.21 -3.45,-0.21 h -6.42 c 3.66,3.25 4.88,4.22 6.97,5.86 2.58,2.06 4.99,4.22 4.99,7.54 0,4.21 -3.7,6.79 -8.16,6.79 -4.33,0 -7.25,-3.03 -7.25,-6.24 0,-1.78 1.5,-1.95 1.84,-1.95 0.84,0 1.86,0.59 1.86,1.85 0,0.62 -0.25,1.85 -2.06,1.85 1.08,2.47 3.45,3.24 5.09,3.24 3.48,0 5.3,-2.72 5.3,-5.54 0,-3.04 -2.16,-5.45 -3.28,-6.7 l -8.4,-8.3 c -0.35,-0.31 -0.35,-0.38 -0.35,-1.36 h 14.36 z"
           id="path8259" /></g>    </g>
    <path
       id="path8313"
       d="m 170,57.362183 0,30"
       style="fill:none;stroke:#000000;stroke-width:1px;stroke-linecap:butt;stroke-linejoin:miter;stroke-opacity:1" />
    <path
       style="fill:none;stroke:#000000;stroke-width:0.99999988px;stroke-linecap:butt;stroke-linejoin:miter;stroke-opacity:1"
       d="m 175,57.362182 0,35.000001"
       id="path8315" />
    <path
       sodipodi:nodetypes="cc"
       style="fill:none;stroke:#000000;stroke-width:1px;stroke-linecap:butt;stroke-linejoin:miter;stroke-opacity:1"
       d="m 170,62.362183 5,-5"
       id="path8317" />
    <path
       id="path8319"
       d="m 170,87.362183 5,5"
       style="fill:none;stroke:#000000;stroke-width:1px;stroke-linecap:butt;stroke-linejoin:miter;stroke-opacity:1"
       sodipodi:nodetypes="cc" />
    <path
       id="path8321"
       d="m 230,57.183612 -55.17857,0"
       style="fill:none;stroke:#000000;stroke-width:0.99999982px;stroke-linecap:butt;stroke-linejoin:miter;stroke-opacity:1" />
    <path
       style="fill:none;stroke:#000000;stroke-width:0.99999994px;stroke-linecap:butt;stroke-linejoin:miter;stroke-opacity:1"
       d="m 230,92.362183 -55,0"
       id="path8323" />
    <path
       style="fill:none;stroke:#000000;stroke-width:0.99999994px;stroke-linecap:butt;stroke-linejoin:miter;stroke-opacity:1"
       d="m 280,47.362183 -50,0"
       id="path8325" />
    <path
       id="path8327"
       d="m 280,97.362183 -50,0"
       style="fill:none;stroke:#000000;stroke-width:0.99999994px;stroke-linecap:butt;stroke-linejoin:miter;stroke-opacity:1" />
    <path
       style="fill:none;stroke:#000000;stroke-width:0.99999994px;stroke-linecap:butt;stroke-linejoin:miter;stroke-opacity:1"
       d="M 280,97.362182 280,47.36218"
       id="path8329" />
    <path
       id="path8331"
       d="M 230,97.362182 230,47.36218"
       style="fill:none;stroke:#000000;stroke-width:0.99999994px;stroke-linecap:butt;stroke-linejoin:miter;stroke-opacity:1" />
    <path
       style="fill:none;stroke:#000000;stroke-width:0.5;stroke-linecap:butt;stroke-linejoin:miter;stroke-opacity:1;stroke-miterlimit:4;stroke-dasharray:4,1,0.5,1;stroke-dashoffset:0"
       d="m 355,72.362183 -190,0"
       id="path8333" />
    <path
       id="path8355"
       d="m 170,72.362183 0,-35"
       style="fill:none;stroke:#000000;stroke-width:1px;stroke-linecap:butt;stroke-linejoin:miter;stroke-opacity:1;marker-end:url(#Arrow1Mend)" />
    <g
       id="g8357"
       transform="matrix(0.16315309,0,0,0.16315309,124.73119,-23.364491)">
      <g
         word-spacing="normal"
         letter-spacing="normal"
         font-size-adjust="none"
         font-stretch="normal"
         font-weight="normal"
         font-variant="normal"
         font-style="normal"
         fill-rule="even-odd"
         stroke-miterlimit="10.433"
         xml:space="preserve"
         transform="matrix(1.0629921,0,0,-1.0629921,-186.02362,789.27165)"
         id="g8359"
         style="font-style:normal;font-variant:normal;font-weight:normal;font-stretch:normal;letter-spacing:normal;word-spacing:normal;text-anchor:start;fill:none;stroke:#000000;stroke-width:6.12921238;stroke-linecap:butt;stroke-linejoin:miter;stroke-miterlimit:10.43299961;stroke-opacity:1;stroke-dasharray:none;stroke-dashoffset:0"><path
           id="path8361"
           d="m 488.83,439.46 0.16,0 0.16,0 0.15,0 0.08,0.01 0.08,0 0.07,0.01 0.08,0.01 0.07,0.01 0.07,0.01 0.07,0.01 0.07,0.02 0.06,0.02 0.07,0.02 0.06,0.03 0.05,0.02 0.06,0.04 0.05,0.03 0.05,0.04 0.05,0.04 0.04,0.05 0.04,0.05 0.01,0.02 0.02,0.03 0.02,0.03 0.01,0.03 0.02,0.03 0.01,0.04 0.01,0.03 0.01,0.03 0.01,0.04 0.01,0.04 0,0.04 0.01,0.04 0,0.04 0.01,0.04 0,0.05 0,0.04 c 0,1 -0.9,1 -1.74,1 h -26.95 c -0.85,0 -1.75,0 -1.75,-1 0,-0.99 0.9,-0.99 1.75,-0.99 z"
           style="fill:#000000;stroke-width:0" /><path
           id="path8363"
           d="m 497.54,439.46 -0.25,-0.2 -0.24,-0.19 -0.24,-0.2 -0.23,-0.19 -0.22,-0.2 -0.21,-0.19 -0.21,-0.19 -0.2,-0.18 -0.19,-0.19 -0.18,-0.18 -0.17,-0.18 -0.17,-0.18 -0.16,-0.17 -0.16,-0.17 -0.14,-0.16 -0.14,-0.17 -0.14,-0.15 -0.12,-0.16 -0.12,-0.15 -0.12,-0.14 -0.1,-0.14 -0.1,-0.13 -0.1,-0.13 -0.08,-0.12 -0.09,-0.11 -0.07,-0.11 -0.07,-0.1 -0.06,-0.1 -0.06,-0.09 -0.05,-0.08 -0.05,-0.07 -0.04,-0.06 c -2.24,-3.44 -2.64,-6.58 -2.64,-6.63 0,-0.6 0.6,-0.6 1,-0.6 0.85,0 0.89,0.1 1.09,1 1.15,4.88 4.09,9.07 9.72,11.35 0.59,0.2 0.74,0.31 0.74,0.65 0,0.35 -0.29,0.5 -0.4,0.55 -2.19,0.85 -8.21,3.34 -10.11,11.71 -0.15,0.59 -0.19,0.74 -1.04,0.74 -0.4,0 -1,0 -1,-0.59 0,-0.1 0.45,-3.24 2.54,-6.58 1,-1.49 2.44,-3.24 4.58,-4.83 h -37.01 c -0.89,0 -1.79,0 -1.79,-1 0,-0.99 0.9,-0.99 1.79,-0.99 z"
           style="fill:#000000;stroke-width:0" /><path
           id="path8365"
           d="m 481.21,424.98 0.01,0.03 0.01,0.03 0.01,0.03 0.01,0.03 0.01,0.06 0.02,0.05 0.01,0.06 0.01,0.04 0.02,0.05 0.01,0.04 0.01,0.04 0.01,0.04 0,0.04 0.01,0.04 0.01,0.03 0,0.03 0.01,0.03 0.01,0.03 0,0.03 0,0.03 0.01,0.03 0,0.02 0,0.06 0.01,0.05 0,0.05 0,0.05 0,0.03 0,0.03 0,0.03 0,0.03 c 0,0.9 -0.7,1.35 -1.45,1.35 -0.5,0 -1.29,-0.3 -1.74,-1.05 -0.1,-0.24 -0.5,-1.79 -0.7,-2.69 -0.34,-1.29 -0.7,-2.64 -0.99,-3.98 l -2.24,-8.97 c -0.2,-0.74 -2.34,-4.23 -5.63,-4.23 -2.54,0 -3.09,2.19 -3.09,4.03 0,2.3 0.84,5.38 2.54,9.77 0.8,2.04 1,2.59 1,3.58 0,2.25 -1.6,4.09 -4.09,4.09 -4.73,0 -6.57,-7.23 -6.57,-7.67 0,-0.5 0.49,-0.5 0.59,-0.5 0.5,0 0.55,0.1 0.8,0.9 1.34,4.68 3.34,6.17 5.03,6.17 0.4,0 1.25,0 1.25,-1.59 0,-1.25 -0.5,-2.54 -0.85,-3.49 -1.99,-5.28 -2.89,-8.12 -2.89,-10.46 0,-4.43 3.14,-5.93 6.08,-5.93 1.94,0 3.63,0.85 5.03,2.25 -0.65,-2.6 -1.25,-5.04 -3.24,-7.68 -1.29,-1.69 -3.19,-3.14 -5.48,-3.14 -0.7,0 -2.94,0.16 -3.79,2.1 0.8,0 1.45,0 2.15,0.59 0.49,0.45 0.99,1.1 0.99,2.05 0,1.54 -1.34,1.74 -1.84,1.74 -1.15,0 -2.79,-0.8 -2.79,-3.24 0,-2.49 2.19,-4.33 5.28,-4.33 5.13,0 10.26,4.53 11.66,10.16 z"
           style="fill:#000000;stroke-width:0" /><path
           id="path8367"
           d="m 493.68,421.18 0,0.04 0,0.04 0,0.04 0,0.04 0,0.04 0,0.04 0,0.03 0,0.04 -0.01,0.03 0,0.03 0,0.04 0,0.03 -0.01,0.02 0,0.03 0,0.03 -0.01,0.03 0,0.02 0,0.02 -0.02,0.05 -0.01,0.04 -0.01,0.04 -0.02,0.03 -0.02,0.03 -0.02,0.03 -0.03,0.03 -0.02,0.02 -0.03,0.02 -0.04,0.02 -0.03,0.01 -0.04,0.01 -0.05,0.02 -0.05,0 -0.02,0.01 -0.03,0 -0.03,0.01 -0.02,0 -0.03,0 -0.03,0 -0.04,0 -0.03,0.01 -0.03,0 -0.04,0 -0.03,0 -0.04,0 -0.04,0 -0.04,0 -0.04,0 -0.04,0 -0.05,0 -0.04,0 c -2.24,-2.19 -5.41,-2.23 -6.84,-2.23 v -1.25 c 0.84,0 3.14,0 5.06,0.97 v -17.78 c 0,-1.15 0,-1.61 -3.49,-1.61 h -1.33 V 399 h 12.45 v 1.25 h -1.32 c -3.49,0 -3.49,0.46 -3.49,1.61 z"
           style="fill:#000000;stroke-width:0" /></g>    </g>
    <text
       id="text8369"
       y="42.362183"
       x="235"
       style="font-size:14px;font-style:normal;font-variant:normal;font-weight:normal;font-stretch:normal;text-align:start;text-anchor:start;fill:#000000;fill-opacity:1;stroke:none;font-family:TeXGyreAdventor;-inkscape-font-specification:TeXGyreAdventor"
       xml:space="preserve"><tspan
         style="font-size:10px"
         y="42.362183"
         x="235"
         id="tspan8371"
         sodipodi:role="line">Écrou (2)</tspan></text>
    <text
       xml:space="preserve"
       style="font-size:14px;font-style:normal;font-variant:normal;font-weight:normal;font-stretch:normal;text-align:start;text-anchor:start;fill:#000000;fill-opacity:1;stroke:none;font-family:TeXGyreAdventor;-inkscape-font-specification:TeXGyreAdventor"
       x="180"
       y="102.36218"
       id="text8373"><tspan
         sodipodi:role="line"
         id="tspan8375"
         x="180"
         y="102.36218"
         style="font-size:10px">Vis (1)</tspan></text>
    <path
       id="path8377"
       d="m 170,62.362183 60,2e-6"
       style="fill:none;stroke:#000000;stroke-width:0.5;stroke-linecap:butt;stroke-linejoin:miter;stroke-miterlimit:4;stroke-opacity:1;stroke-dasharray:none" />
    <path
       style="fill:none;stroke:#000000;stroke-width:0.5;stroke-linecap:butt;stroke-linejoin:miter;stroke-miterlimit:4;stroke-opacity:1;stroke-dasharray:none"
       d="m 170,87.362181 60,2e-6"
       id="path8379" />
    <g
       transform="matrix(-1,0,0,1,510,-3.8281246e-7)"
       id="g8401">
      <path
         id="path8385"
         d="m 170,62.362183 0,25"
         style="fill:none;stroke:#000000;stroke-width:1px;stroke-linecap:butt;stroke-linejoin:miter;stroke-opacity:1" />
      <path
         style="fill:none;stroke:#000000;stroke-width:0.99999988px;stroke-linecap:butt;stroke-linejoin:miter;stroke-opacity:1"
         d="m 175,57.362182 0,35.000001"
         id="path8387" />
      <path
         sodipodi:nodetypes="cc"
         style="fill:none;stroke:#000000;stroke-width:1px;stroke-linecap:butt;stroke-linejoin:miter;stroke-opacity:1"
         d="m 170,62.362183 5,-5"
         id="path8389" />
      <path
         id="path8391"
         d="m 170,87.362183 5,5"
         style="fill:none;stroke:#000000;stroke-width:1px;stroke-linecap:butt;stroke-linejoin:miter;stroke-opacity:1"
         sodipodi:nodetypes="cc" />
      <path
         id="path8393"
         d="m 230,57.183612 -55.17857,0"
         style="fill:none;stroke:#000000;stroke-width:0.99999982px;stroke-linecap:butt;stroke-linejoin:miter;stroke-opacity:1" />
      <path
         style="fill:none;stroke:#000000;stroke-width:0.99999994px;stroke-linecap:butt;stroke-linejoin:miter;stroke-opacity:1"
         d="m 230,92.362183 -55,0"
         id="path8395" />
      <path
         id="path8397"
         d="m 170,62.362183 60,2e-6"
         style="fill:none;stroke:#000000;stroke-width:0.5;stroke-linecap:butt;stroke-linejoin:miter;stroke-miterlimit:4;stroke-opacity:1;stroke-dasharray:none" />
      <path
         style="fill:none;stroke:#000000;stroke-width:0.5;stroke-linecap:butt;stroke-linejoin:miter;stroke-miterlimit:4;stroke-opacity:1;stroke-dasharray:none"
         d="m 170,87.362181 60,2e-6"
         id="path8399" />
    </g>
    <path
       style="fill:none;stroke:#000000;stroke-width:1px;stroke-linecap:butt;stroke-linejoin:miter;stroke-opacity:1;marker-end:url(#Arrow1Mend);marker-start:url(#Arrow1Mstart)"
       d="m 229.99999,117.36218 50,0"
       id="path8411" />
    <path
       id="path8601"
       d="m 320,57.362183 0,34.999999"
       style="fill:none;stroke:#000000;stroke-width:1px;stroke-linecap:butt;stroke-linejoin:miter;stroke-opacity:1;marker-start:url(#Arrow1Mend);marker-end:url(#Arrow1Mstart)" />
    <text
       id="text8975"
       y="112.36218"
       x="255"
       style="font-size:14px;font-style:normal;font-variant:normal;font-weight:normal;font-stretch:normal;text-align:start;text-anchor:start;fill:#000000;fill-opacity:1;stroke:none;font-family:TeXGyreAdventor;-inkscape-font-specification:TeXGyreAdventor"
       xml:space="preserve"><tspan
         style="font-size:10px"
         y="112.36218"
         x="255"
         id="tspan8977"
         sodipodi:role="line">L</tspan></text>
    <text
       xml:space="preserve"
       style="font-size:14px;font-style:normal;font-variant:normal;font-weight:normal;font-stretch:normal;text-align:start;text-anchor:start;fill:#000000;fill-opacity:1;stroke:none;font-family:TeXGyreAdventor;-inkscape-font-specification:TeXGyreAdventor"
       x="320"
       y="82.362183"
       id="text8979"><tspan
         sodipodi:role="line"
         id="tspan8981"
         x="320"
         y="82.362183"
         style="font-size:10px">d</tspan></text>
    <path
       style="fill:none;stroke:#000000;stroke-width:0.99999994px;stroke-linecap:butt;stroke-linejoin:miter;stroke-opacity:1;marker-start:url(#Arrow1Mend);marker-end:url(#Arrow1Mstart)"
       d="m 290,52.362183 5,0"
       id="path8985" />
    <text
       id="text8987"
       y="47.362183"
       x="290"
       style="font-size:14px;font-style:normal;font-variant:normal;font-weight:normal;font-stretch:normal;text-align:start;text-anchor:start;fill:#000000;fill-opacity:1;stroke:none;font-family:TeXGyreAdventor;-inkscape-font-specification:TeXGyreAdventor"
       xml:space="preserve"><tspan
         style="font-size:10px"
         y="47.362183"
         x="290"
         id="tspan8989"
         sodipodi:role="line">p</tspan></text>
    <path
       style="fill:none;stroke:#000000;stroke-width:0.5;stroke-linecap:butt;stroke-linejoin:miter;stroke-miterlimit:4;stroke-opacity:1;stroke-dasharray:none"
       d="m 200,32.362184 0,60"
       id="path8991" />
    <path
       sodipodi:nodetypes="cc"
       id="path8993"
       d="M 210,32.362183 200,92.362184"
       style="fill:none;stroke:#000000;stroke-width:0.5;stroke-linecap:butt;stroke-linejoin:miter;stroke-miterlimit:4;stroke-opacity:1;stroke-dasharray:none" />
    <g
       id="g9095"
       transform="matrix(0.28119702,0,0,0.28119702,117.15897,-64.926827)">
      <g
         word-spacing="normal"
         letter-spacing="normal"
         font-size-adjust="none"
         font-stretch="normal"
         font-weight="normal"
         font-variant="normal"
         font-style="normal"
         fill-rule="even-odd"
         stroke-miterlimit="10.433"
         xml:space="preserve"
         transform="matrix(1.0629921,0,0,-1.0629921,-186.02362,789.27165)"
         id="g9097"
         style="font-style:normal;font-variant:normal;font-weight:normal;font-stretch:normal;letter-spacing:normal;word-spacing:normal;text-anchor:start;fill:none;stroke:#000000;stroke-width:3.55622554;stroke-linecap:butt;stroke-linejoin:miter;stroke-miterlimit:10.43299961;stroke-opacity:1;stroke-dasharray:none;stroke-dashoffset:0"><path
           id="path9099"
           d="m 484.64,434.34 -0.01,0.35 -0.02,0.35 -0.04,0.34 -0.05,0.33 -0.07,0.33 -0.09,0.32 -0.1,0.32 -0.11,0.31 -0.13,0.3 -0.14,0.29 -0.15,0.29 -0.17,0.27 -0.18,0.27 -0.19,0.26 -0.21,0.25 -0.21,0.24 -0.23,0.22 -0.24,0.22 -0.25,0.2 -0.27,0.19 -0.27,0.18 -0.28,0.17 -0.3,0.15 -0.3,0.14 -0.32,0.12 -0.32,0.11 -0.33,0.09 -0.34,0.08 -0.35,0.06 -0.36,0.04 -0.37,0.03 -0.37,0.01 c -2.89,0 -4.29,-0.8 -6.03,-2.1 -2.74,-1.99 -5.48,-6.82 -6.43,-10.61 l -7.91,-31.62 c -0.05,-0.2 0.2,-0.5 0.59,-0.5 0.4,0 0.55,0.1 0.6,0.25 l 3.49,13.74 c 0.94,-2.99 3.14,-4.83 6.77,-4.83 l -0.15,1.1 c -3.78,0 -5.68,2.89 -5.68,6.42 0,0.5 0,1.25 0.25,2.19 l 3.19,12.61 c 1.1,4.28 4.68,12.2 10.66,12.2 2.89,0 4.63,-1.54 4.63,-4.53 h 0 c 0,-3.49 -1.89,-7.08 -4.48,-8.62 -1.35,0.5 -2.34,0.6 -3.83,0.6 -1.05,0 -3.84,0.05 -3.84,-1.59 -0.05,-1.4 2.54,-1.25 3.44,-1.25 l 0.15,1.1 c -0.7,0 -1.7,-0.05 -2.2,0.2 0.1,0.49 1.89,0.39 2.45,0.39 1.04,0 1.49,0 2.14,-0.25 h 0 c -0.65,-0.25 -1.2,-0.34 -2.39,-0.34 l -0.15,-1.1 c 1.84,0 2.59,0.05 4.08,0.65 1.89,-1.8 2.14,-3.34 2.19,-5.63 0.1,-2.89 -1.09,-6.63 -2.49,-8.57 -1.94,-2.69 -5.28,-4.48 -8.12,-4.48 l 0.15,-1.1 c 3.64,0 7.37,1.75 9.62,3.94 2.39,2.29 3.98,5.48 3.98,9.16 0,3.59 -1.84,6.18 -3.64,7.42 2.89,1.65 5.73,4.74 5.73,8.32 z"
           style="fill:#000000;stroke-width:0" /></g>    </g>
  </g>
</svg>
