<?xml version="1.0" encoding="UTF-8" standalone="no"?>
<!-- Created with Inkscape (http://www.inkscape.org/) -->

<svg
   xmlns:dc="http://purl.org/dc/elements/1.1/"
   xmlns:cc="http://creativecommons.org/ns#"
   xmlns:rdf="http://www.w3.org/1999/02/22-rdf-syntax-ns#"
   xmlns:svg="http://www.w3.org/2000/svg"
   xmlns="http://www.w3.org/2000/svg"
   xmlns:sodipodi="http://sodipodi.sourceforge.net/DTD/sodipodi-0.dtd"
   xmlns:inkscape="http://www.inkscape.org/namespaces/inkscape"
   width="210mm"
   height="297mm"
   id="svg2"
   version="1.1"
   inkscape:version="0.47 r22583"
   sodipodi:docname="Fig21.svg"
   inkscape:export-filename="/home/xabi/Dropbox/PTSI/2_EncastrementDemontable/png/Fig21.png"
   inkscape:export-xdpi="300"
   inkscape:export-ydpi="300">
  <defs
     id="defs4">
    <inkscape:perspective
       sodipodi:type="inkscape:persp3d"
       inkscape:vp_x="0 : 526.18109 : 1"
       inkscape:vp_y="0 : 1000 : 0"
       inkscape:vp_z="744.09448 : 526.18109 : 1"
       inkscape:persp3d-origin="372.04724 : 350.78739 : 1"
       id="perspective10" />
    <inkscape:perspective
       id="perspective8597"
       inkscape:persp3d-origin="0.5 : 0.33333333 : 1"
       inkscape:vp_z="1 : 0.5 : 1"
       inkscape:vp_y="0 : 1000 : 0"
       inkscape:vp_x="0 : 0.5 : 1"
       sodipodi:type="inkscape:persp3d" />
    <inkscape:perspective
       id="perspective9725"
       inkscape:persp3d-origin="0.5 : 0.33333333 : 1"
       inkscape:vp_z="1 : 0.5 : 1"
       inkscape:vp_y="0 : 1000 : 0"
       inkscape:vp_x="0 : 0.5 : 1"
       sodipodi:type="inkscape:persp3d" />
  </defs>
  <sodipodi:namedview
     id="base"
     pagecolor="#ffffff"
     bordercolor="#666666"
     borderopacity="1.0"
     inkscape:pageopacity="0.0"
     inkscape:pageshadow="2"
     inkscape:zoom="5.971382"
     inkscape:cx="232.939"
     inkscape:cy="931.967"
     inkscape:document-units="px"
     inkscape:current-layer="g10945"
     showgrid="true"
     inkscape:window-width="1918"
     inkscape:window-height="1006"
     inkscape:window-x="0"
     inkscape:window-y="25"
     inkscape:window-maximized="1">
    <inkscape:grid
       type="xygrid"
       id="grid2816" />
  </sodipodi:namedview>
  <metadata
     id="metadata7">
    <rdf:RDF>
      <cc:Work
         rdf:about="">
        <dc:format>image/svg+xml</dc:format>
        <dc:type
           rdf:resource="http://purl.org/dc/dcmitype/StillImage" />
        <dc:title></dc:title>
      </cc:Work>
    </rdf:RDF>
  </metadata>
  <g
     inkscape:label="Calque 1"
     inkscape:groupmode="layer"
     id="layer1">
    <g
       id="g7046" />
    <g
       id="g8086"
       transform="matrix(-1,0,0,1,352,-1.9999974)" />
    <g
       id="g9775"
       transform="matrix(0,-1,1,0,2.637817,301.36218)">
      <g
         id="g9848"
         transform="translate(-2.6171875e-6,5)">
        <g
           id="g10945">
          <path
             transform="matrix(0,1.4999997,-1.4999997,0,345.04325,-57.637791)"
             d="m 110,92.362183 c 0,2.761423 -2.23858,5 -5,5 -2.76142,0 -5,-2.238577 -5,-5 0,-2.761424 2.23858,-5 5,-5 2.76142,0 5,2.238576 5,5 z"
             sodipodi:ry="5"
             sodipodi:rx="5"
             sodipodi:cy="92.362183"
             sodipodi:cx="105"
             id="path10941"
             style="fill:none;stroke:#000000;stroke-width:0.66666681;stroke-linecap:round;stroke-linejoin:round;stroke-miterlimit:4;stroke-opacity:1;stroke-dasharray:none;stroke-dashoffset:0"
             sodipodi:type="arc" />
          <path
             sodipodi:type="arc"
             style="fill:none;stroke:#000000;stroke-width:0.66666687;stroke-linecap:round;stroke-linejoin:round;stroke-miterlimit:4;stroke-opacity:1;stroke-dasharray:none;stroke-dashoffset:0"
             id="path10943"
             sodipodi:cx="105"
             sodipodi:cy="92.362183"
             sodipodi:rx="5"
             sodipodi:ry="5"
             d="m 110,92.362183 c 0,2.761423 -2.23858,5 -5,5 -2.76142,0 -5,-2.238577 -5,-5 0,-2.761424 2.23858,-5 5,-5 2.76142,0 5,2.238576 5,5 z"
             transform="matrix(0,1.4999997,-1.4999994,0,345.04322,52.362216)" />
          <path
             transform="matrix(0,0.5000003,-0.49999956,0,252.68105,142.36215)"
             d="m 110,92.362183 c 0,2.761423 -2.23858,5 -5,5 -2.76142,0 -5,-2.238577 -5,-5 0,-2.761424 2.23858,-5 5,-5 2.76142,0 5,2.238576 5,5 z"
             sodipodi:ry="5"
             sodipodi:rx="5"
             sodipodi:cy="92.362183"
             sodipodi:cx="105"
             id="path10955"
             style="fill:none;stroke:#000000;stroke-width:2.00000024;stroke-linecap:round;stroke-linejoin:round;stroke-miterlimit:4;stroke-opacity:1;stroke-dasharray:none;stroke-dashoffset:0"
             sodipodi:type="arc" />
          <path
             sodipodi:type="arc"
             style="fill:none;stroke:#000000;stroke-width:2.00000024;stroke-linecap:round;stroke-linejoin:round;stroke-miterlimit:4;stroke-opacity:1;stroke-dasharray:none;stroke-dashoffset:0"
             id="path10957"
             sodipodi:cx="105"
             sodipodi:cy="92.362183"
             sodipodi:rx="5"
             sodipodi:ry="5"
             d="m 110,92.362183 c 0,2.761423 -2.23858,5 -5,5 -2.76142,0 -5,-2.238577 -5,-5 0,-2.761424 2.23858,-5 5,-5 2.76142,0 5,2.238576 5,5 z"
             transform="matrix(0,0.5,-0.49999987,0,187.68108,62.362183)" />
          <text
             xml:space="preserve"
             style="font-size:14px;font-style:normal;font-variant:normal;font-weight:normal;font-stretch:normal;text-align:start;text-anchor:start;fill:#000000;fill-opacity:1;stroke:none;font-family:TeXGyreAdventor;-inkscape-font-specification:TeXGyreAdventor"
             x="72.362183"
             y="-229"
             id="text10971"
             transform="matrix(0,1,-1,0,0,0)"><tspan
               sodipodi:role="line"
               id="tspan10973"
               x="72.362183"
               y="-229"
               style="font-size:6px">Emplacement </tspan><tspan
               sodipodi:role="line"
               x="72.362183"
               y="-221.5"
               style="font-size:6px"
               id="tspan10975">pour vis de fixation</tspan></text>
          <text
             transform="matrix(0,1,-1,0,0,0)"
             id="text10977"
             y="-184"
             x="154.20789"
             style="font-size:14px;font-style:normal;font-variant:normal;font-weight:normal;font-stretch:normal;text-align:start;text-anchor:start;fill:#000000;fill-opacity:1;stroke:none;font-family:TeXGyreAdventor;-inkscape-font-specification:TeXGyreAdventor"
             xml:space="preserve"><tspan
               style="font-size:6px;text-align:center;text-anchor:middle"
               y="-184"
               x="155.03992"
               sodipodi:role="line"
               id="tspan10997">Trous alésés </tspan><tspan
               style="font-size:6px;text-align:center;text-anchor:middle"
               y="-176.5"
               x="154.20789"
               sodipodi:role="line"
               id="tspan11005">+</tspan><tspan
               style="font-size:6px;text-align:center;text-anchor:middle"
               y="-169"
               x="154.20789"
               sodipodi:role="line"
               id="tspan11007">pions de positionnement</tspan></text>
          <path
             sodipodi:type="arc"
             style="fill:none;stroke:#000000;stroke-width:2.00000024;stroke-linecap:round;stroke-linejoin:round;stroke-miterlimit:4;stroke-opacity:1;stroke-dasharray:none;stroke-dashoffset:0"
             id="path11255"
             sodipodi:cx="105"
             sodipodi:cy="92.362183"
             sodipodi:rx="5"
             sodipodi:ry="5"
             d="m 110,92.362183 c 0,2.761423 -2.23858,5 -5,5 -2.76142,0 -5,-2.238577 -5,-5 0,-2.761424 2.23858,-5 5,-5 2.76142,0 5,2.238576 5,5 z"
             transform="matrix(0,0.5000003,-0.49999956,0,252.68105,297.36215)" />
          <path
             transform="matrix(0,0.6999994,-0.69999878,0,206.15341,196.36224)"
             d="m 110,92.362183 c 0,2.761423 -2.23858,5 -5,5 -2.76142,0 -5,-2.238577 -5,-5 0,-2.761424 2.23858,-5 5,-5 2.76142,0 5,2.238576 5,5 z"
             sodipodi:ry="5"
             sodipodi:rx="5"
             sodipodi:cy="92.362183"
             sodipodi:cx="105"
             id="path11257"
             style="fill:none;stroke:#000000;stroke-width:1.42857313;stroke-linecap:round;stroke-linejoin:round;stroke-miterlimit:4;stroke-opacity:1;stroke-dasharray:none;stroke-dashoffset:0"
             sodipodi:type="arc" />
          <rect
             style="fill:#000000;fill-opacity:1;stroke:#000000;stroke-width:1;stroke-linecap:square;stroke-linejoin:round;stroke-miterlimit:4;stroke-opacity:1;stroke-dasharray:none;stroke-dashoffset:0"
             id="rect11261"
             width="6.1571975"
             height="0.99999756"
             x="96.452843"
             y="-288.87906"
             transform="matrix(-0.68606019,0.72754479,-0.72754479,-0.68606019,0,0)" />
        </g>
        <g
           id="g11069">
          <path
             sodipodi:nodetypes="cc"
             id="path9522"
             d="m 209.00001,87.362183 -70,0"
             style="fill:none;stroke:#000000;stroke-width:0.99999976px;stroke-linecap:round;stroke-linejoin:miter;stroke-opacity:1" />
          <path
             style="fill:none;stroke:#000000;stroke-width:0.99999994px;stroke-linecap:round;stroke-linejoin:miter;stroke-opacity:1"
             d="M 219,212.36218 219,97.362182"
             id="path9524"
             sodipodi:nodetypes="cc" />
          <path
             sodipodi:nodetypes="cc"
             id="path9526"
             d="m 209,87.36218 c 6.00001,0 10,3.999996 10,9.999992"
             style="fill:none;stroke:#000000;stroke-width:0.99999988px;stroke-linecap:round;stroke-linejoin:miter;stroke-opacity:1" />
          <path
             style="fill:none;stroke:#000000;stroke-width:0.99999988px;stroke-linecap:round;stroke-linejoin:miter;stroke-opacity:1"
             d="m 139,87.362191 c -6.00001,0 -10,3.999996 -10,9.999992"
             id="path10901"
             sodipodi:nodetypes="cc" />
          <path
             sodipodi:nodetypes="cc"
             id="path10903"
             d="m 204,112.36218 c -6.00001,0 -10,-4 -10,-10"
             style="fill:none;stroke:#000000;stroke-width:0.99999988px;stroke-linecap:round;stroke-linejoin:miter;stroke-opacity:1" />
          <path
             sodipodi:nodetypes="cc"
             id="path10905"
             d="m 204,182.36218 0,-70"
             style="fill:none;stroke:#000000;stroke-width:0.99999988px;stroke-linecap:round;stroke-linejoin:miter;stroke-opacity:1" />
          <path
             style="fill:none;stroke:#000000;stroke-width:0.99999976px;stroke-linecap:round;stroke-linejoin:miter;stroke-opacity:1"
             d="m 194,102.36218 -35,0"
             id="path10907"
             sodipodi:nodetypes="cc" />
          <path
             sodipodi:nodetypes="cc"
             id="path10911"
             d="m 154,107.36218 c 0,-3 2,-5 5,-5"
             style="fill:none;stroke:#000000;stroke-width:0.99999988px;stroke-linecap:round;stroke-linejoin:miter;stroke-opacity:1" />
          <g
             id="g10921">
            <path
               sodipodi:nodetypes="cc"
               id="path10909"
               d="m 154,117.36218 c 0,6.00001 -4,10 -10,10"
               style="fill:none;stroke:#000000;stroke-width:0.99999988px;stroke-linecap:round;stroke-linejoin:miter;stroke-opacity:1" />
            <path
               sodipodi:nodetypes="cc"
               id="path10913"
               d="m 154,117.36218 0,-10"
               style="fill:none;stroke:#000000;stroke-width:0.99999982px;stroke-linecap:round;stroke-linejoin:miter;stroke-opacity:1" />
          </g>
          <path
             style="fill:none;stroke:#000000;stroke-width:0.99999988px;stroke-linecap:round;stroke-linejoin:miter;stroke-opacity:1"
             d="m 144,197.36218 0,-70"
             id="path10915"
             sodipodi:nodetypes="cc" />
          <path
             sodipodi:nodetypes="cc"
             id="path10917"
             d="M 129,212.36219 129,97.362182"
             style="fill:none;stroke:#000000;stroke-width:0.99999988px;stroke-linecap:round;stroke-linejoin:miter;stroke-opacity:1" />
          <path
             style="fill:none;stroke:#000000;stroke-width:0.99999988px;stroke-linecap:round;stroke-linejoin:miter;stroke-opacity:1"
             d="m 219,212.36218 c 0,6.00001 -4,10 -10,10"
             id="path10919"
             sodipodi:nodetypes="cc" />
          <g
             transform="matrix(-1,0,0,-1,348,309.72436)"
             id="g10925">
            <path
               style="fill:none;stroke:#000000;stroke-width:0.99999988px;stroke-linecap:round;stroke-linejoin:miter;stroke-opacity:1"
               d="m 154,117.36218 c 0,6.00001 -4,10 -10,10"
               id="path10927"
               sodipodi:nodetypes="cc" />
            <path
               style="fill:none;stroke:#000000;stroke-width:0.99999982px;stroke-linecap:round;stroke-linejoin:miter;stroke-opacity:1"
               d="m 154,117.36218 0,-10"
               id="path10929"
               sodipodi:nodetypes="cc" />
          </g>
          <path
             style="fill:none;stroke:#000000;stroke-width:0.99999988px;stroke-linecap:round;stroke-linejoin:miter;stroke-opacity:1"
             d="m 194,202.36218 c 0,3 -2,5 -5,5"
             id="path10931"
             sodipodi:nodetypes="cc" />
          <path
             style="fill:none;stroke:#000000;stroke-width:0.99999976px;stroke-linecap:round;stroke-linejoin:miter;stroke-opacity:1"
             d="m 209,222.36218 -70,0"
             id="path10933"
             sodipodi:nodetypes="cc" />
          <path
             style="fill:none;stroke:#000000;stroke-width:0.99999988px;stroke-linecap:round;stroke-linejoin:miter;stroke-opacity:1"
             d="m 139,222.36218 c -6.00001,0 -10,-4 -10,-10"
             id="path10935"
             sodipodi:nodetypes="cc" />
          <path
             style="fill:none;stroke:#000000;stroke-width:0.99999988px;stroke-linecap:round;stroke-linejoin:miter;stroke-opacity:1"
             d="m 144,197.36219 c 6.00001,0 10,4 10,9.99999"
             id="path10937"
             sodipodi:nodetypes="cc" />
          <path
             sodipodi:nodetypes="cc"
             id="path10939"
             d="m 189,207.36218 -35,0"
             style="fill:none;stroke:#000000;stroke-width:0.99999976px;stroke-linecap:round;stroke-linejoin:miter;stroke-opacity:1" />
          <g
             transform="translate(-65.000005,-1.8215931e-7)"
             id="g10949">
            <path
               transform="matrix(0,1.4999997,-1.4999997,0,345.04325,-57.637791)"
               d="m 110,92.362183 c 0,2.761423 -2.23858,5 -5,5 -2.76142,0 -5,-2.238577 -5,-5 0,-2.761424 2.23858,-5 5,-5 2.76142,0 5,2.238576 5,5 z"
               sodipodi:ry="5"
               sodipodi:rx="5"
               sodipodi:cy="92.362183"
               sodipodi:cx="105"
               id="path10951"
               style="fill:none;stroke:#000000;stroke-width:0.66666681;stroke-linecap:round;stroke-linejoin:round;stroke-miterlimit:4;stroke-opacity:1;stroke-dasharray:none;stroke-dashoffset:0"
               sodipodi:type="arc" />
            <path
               sodipodi:type="arc"
               style="fill:none;stroke:#000000;stroke-width:0.66666687;stroke-linecap:round;stroke-linejoin:round;stroke-miterlimit:4;stroke-opacity:1;stroke-dasharray:none;stroke-dashoffset:0"
               id="path10953"
               sodipodi:cx="105"
               sodipodi:cy="92.362183"
               sodipodi:rx="5"
               sodipodi:ry="5"
               d="m 110,92.362183 c 0,2.761423 -2.23858,5 -5,5 -2.76142,0 -5,-2.238577 -5,-5 0,-2.761424 2.23858,-5 5,-5 2.76142,0 5,2.238576 5,5 z"
               transform="matrix(0,1.4999997,-1.4999994,0,345.04322,52.362216)" />
          </g>
          <path
             style="fill:none;stroke:#000000;stroke-width:0.5;stroke-linecap:round;stroke-linejoin:miter;stroke-miterlimit:4;stroke-opacity:1;stroke-dasharray:4, 1, 0.5, 1;stroke-dashoffset:0"
             d="m 141.5,222.36217 0,-134.999987"
             id="path10959"
             sodipodi:nodetypes="cc" />
          <path
             sodipodi:nodetypes="cc"
             id="path10961"
             d="m 206.5,222.36218 0,-134.999984"
             style="fill:none;stroke:#000000;stroke-width:0.5;stroke-linecap:round;stroke-linejoin:miter;stroke-miterlimit:4;stroke-opacity:1;stroke-dasharray:4, 1, 0.5, 1;stroke-dashoffset:0" />
          <path
             style="fill:none;stroke:#000000;stroke-width:0.5;stroke-linecap:round;stroke-linejoin:miter;stroke-miterlimit:4;stroke-opacity:1;stroke-dasharray:4.00000001, 1, 0.5, 1;stroke-dashoffset:0"
             d="m 129,99.862177 89.99998,0"
             id="path10963"
             sodipodi:nodetypes="cc" />
          <path
             sodipodi:nodetypes="cc"
             id="path10965"
             d="m 129.00002,209.86218 89.99998,0"
             style="fill:none;stroke:#000000;stroke-width:0.5;stroke-linecap:round;stroke-linejoin:miter;stroke-miterlimit:4;stroke-opacity:1;stroke-dasharray:4.00000001, 1, 0.5, 1;stroke-dashoffset:0" />
          <path
             style="fill:none;stroke:#000000;stroke-width:0.49999997;stroke-linecap:round;stroke-linejoin:miter;stroke-miterlimit:4;stroke-opacity:1;stroke-dasharray:4, 1, 0.5, 1;stroke-dashoffset:0"
             d="m 199,194.86218 15,0"
             id="path10967"
             sodipodi:nodetypes="cc" />
          <path
             sodipodi:nodetypes="cc"
             id="path10969"
             d="m 134,114.86218 15,0"
             style="fill:none;stroke:#000000;stroke-width:0.49999997;stroke-linecap:round;stroke-linejoin:miter;stroke-miterlimit:4;stroke-opacity:1;stroke-dasharray:4, 1, 0.5, 1;stroke-dashoffset:0" />
          <g
             transform="matrix(0.83084063,0.55651042,-0.55651042,0.83084063,87.858052,-59.316208)"
             id="g11042">
            <path
               transform="matrix(0,0.7,-0.60000014,0,193.41732,41.362183)"
               d="m 110,92.362183 c 0,2.761423 -2.23858,5 -5,5 -2.76142,0 -5,-2.238577 -5,-5 0,0 0,-10e-7 0,-10e-7"
               sodipodi:ry="5"
               sodipodi:rx="5"
               sodipodi:cy="92.362183"
               sodipodi:cx="105"
               id="path11030"
               style="fill:none;stroke:#000000;stroke-width:1.54303336;stroke-linecap:round;stroke-linejoin:round;stroke-miterlimit:4;stroke-opacity:1;stroke-dasharray:none;stroke-dashoffset:0"
               sodipodi:type="arc"
               sodipodi:start="0"
               sodipodi:end="3.1415927"
               sodipodi:open="true" />
            <path
               sodipodi:open="true"
               sodipodi:end="3.1415927"
               sodipodi:start="0"
               sodipodi:type="arc"
               style="fill:none;stroke:#000000;stroke-width:1.54303336;stroke-linecap:round;stroke-linejoin:round;stroke-miterlimit:4;stroke-opacity:1;stroke-dasharray:none;stroke-dashoffset:0"
               id="path11038"
               sodipodi:cx="105"
               sodipodi:cy="92.362183"
               sodipodi:rx="5"
               sodipodi:ry="5"
               d="m 110,92.362183 c 0,2.761423 -2.23858,5 -5,5 -2.76142,0 -5,-2.238577 -5,-5 0,0 0,-10e-7 0,-10e-7"
               transform="matrix(0,0.7,0.60000014,0,89.582673,41.362183)" />
            <path
               style="fill:none;stroke:#000000;stroke-width:0.99999976px;stroke-linecap:round;stroke-linejoin:miter;stroke-opacity:1"
               d="m 145,111.36218 -7,0"
               id="path11034"
               sodipodi:nodetypes="cc" />
            <path
               sodipodi:nodetypes="cc"
               id="path11036"
               d="m 145,118.36218 -7,0"
               style="fill:none;stroke:#000000;stroke-width:0.99999976px;stroke-linecap:round;stroke-linejoin:miter;stroke-opacity:1" />
          </g>
        </g>
        <g
           id="g11181"
           transform="translate(0,155)">
          <path
             style="fill:none;stroke:#000000;stroke-width:0.99999976px;stroke-linecap:round;stroke-linejoin:miter;stroke-opacity:1"
             d="m 209.00001,87.362183 -70,0"
             id="path11183"
             sodipodi:nodetypes="cc" />
          <path
             sodipodi:nodetypes="cc"
             id="path11185"
             d="M 219,212.36218 219,97.362182"
             style="fill:none;stroke:#000000;stroke-width:0.99999994px;stroke-linecap:round;stroke-linejoin:miter;stroke-opacity:1" />
          <path
             style="fill:none;stroke:#000000;stroke-width:0.99999988px;stroke-linecap:round;stroke-linejoin:miter;stroke-opacity:1"
             d="m 209,87.36218 c 6.00001,0 10,3.999996 10,9.999992"
             id="path11187"
             sodipodi:nodetypes="cc" />
          <path
             sodipodi:nodetypes="cc"
             id="path11189"
             d="m 139,87.362191 c -6.00001,0 -10,3.999996 -10,9.999992"
             style="fill:none;stroke:#000000;stroke-width:0.99999988px;stroke-linecap:round;stroke-linejoin:miter;stroke-opacity:1" />
          <path
             style="fill:none;stroke:#000000;stroke-width:0.99999988px;stroke-linecap:round;stroke-linejoin:miter;stroke-opacity:1"
             d="m 204,112.36218 c -6.00001,0 -10,-4 -10,-10"
             id="path11191"
             sodipodi:nodetypes="cc" />
          <path
             style="fill:none;stroke:#000000;stroke-width:0.99999988px;stroke-linecap:round;stroke-linejoin:miter;stroke-opacity:1"
             d="m 204,182.36218 0,-70"
             id="path11193"
             sodipodi:nodetypes="cc" />
          <path
             sodipodi:nodetypes="cc"
             id="path11195"
             d="m 194,102.36218 -35,0"
             style="fill:none;stroke:#000000;stroke-width:0.99999976px;stroke-linecap:round;stroke-linejoin:miter;stroke-opacity:1" />
          <path
             style="fill:none;stroke:#000000;stroke-width:0.99999988px;stroke-linecap:round;stroke-linejoin:miter;stroke-opacity:1"
             d="m 154,107.36218 c 0,-3 2,-5 5,-5"
             id="path11197"
             sodipodi:nodetypes="cc" />
          <g
             id="g11199">
            <path
               style="fill:none;stroke:#000000;stroke-width:0.99999988px;stroke-linecap:round;stroke-linejoin:miter;stroke-opacity:1"
               d="m 154,117.36218 c 0,6.00001 -4,10 -10,10"
               id="path11201"
               sodipodi:nodetypes="cc" />
            <path
               style="fill:none;stroke:#000000;stroke-width:0.99999982px;stroke-linecap:round;stroke-linejoin:miter;stroke-opacity:1"
               d="m 154,117.36218 0,-10"
               id="path11203"
               sodipodi:nodetypes="cc" />
          </g>
          <path
             sodipodi:nodetypes="cc"
             id="path11205"
             d="m 144,197.36218 0,-70"
             style="fill:none;stroke:#000000;stroke-width:0.99999988px;stroke-linecap:round;stroke-linejoin:miter;stroke-opacity:1" />
          <path
             style="fill:none;stroke:#000000;stroke-width:0.99999988px;stroke-linecap:round;stroke-linejoin:miter;stroke-opacity:1"
             d="M 129,212.36219 129,97.362182"
             id="path11207"
             sodipodi:nodetypes="cc" />
          <path
             sodipodi:nodetypes="cc"
             id="path11209"
             d="m 219,212.36218 c 0,6.00001 -4,10 -10,10"
             style="fill:none;stroke:#000000;stroke-width:0.99999988px;stroke-linecap:round;stroke-linejoin:miter;stroke-opacity:1" />
          <g
             id="g11211"
             transform="matrix(-1,0,0,-1,348,309.72436)">
            <path
               sodipodi:nodetypes="cc"
               id="path11213"
               d="m 154,117.36218 c 0,6.00001 -4,10 -10,10"
               style="fill:none;stroke:#000000;stroke-width:0.99999988px;stroke-linecap:round;stroke-linejoin:miter;stroke-opacity:1" />
            <path
               sodipodi:nodetypes="cc"
               id="path11215"
               d="m 154,117.36218 0,-10"
               style="fill:none;stroke:#000000;stroke-width:0.99999982px;stroke-linecap:round;stroke-linejoin:miter;stroke-opacity:1" />
          </g>
          <path
             sodipodi:nodetypes="cc"
             id="path11217"
             d="m 194,202.36218 c 0,3 -2,5 -5,5"
             style="fill:none;stroke:#000000;stroke-width:0.99999988px;stroke-linecap:round;stroke-linejoin:miter;stroke-opacity:1" />
          <path
             sodipodi:nodetypes="cc"
             id="path11219"
             d="m 209,222.36218 -70,0"
             style="fill:none;stroke:#000000;stroke-width:0.99999976px;stroke-linecap:round;stroke-linejoin:miter;stroke-opacity:1" />
          <path
             sodipodi:nodetypes="cc"
             id="path11221"
             d="m 139,222.36218 c -6.00001,0 -10,-4 -10,-10"
             style="fill:none;stroke:#000000;stroke-width:0.99999988px;stroke-linecap:round;stroke-linejoin:miter;stroke-opacity:1" />
          <path
             sodipodi:nodetypes="cc"
             id="path11223"
             d="m 144,197.36219 c 6.00001,0 10,4 10,9.99999"
             style="fill:none;stroke:#000000;stroke-width:0.99999988px;stroke-linecap:round;stroke-linejoin:miter;stroke-opacity:1" />
          <path
             style="fill:none;stroke:#000000;stroke-width:0.99999976px;stroke-linecap:round;stroke-linejoin:miter;stroke-opacity:1"
             d="m 189,207.36218 -35,0"
             id="path11225"
             sodipodi:nodetypes="cc" />
          <g
             id="g11227"
             transform="translate(-65.000005,-1.8215931e-7)">
            <path
               sodipodi:type="arc"
               style="fill:none;stroke:#000000;stroke-width:0.66666681;stroke-linecap:round;stroke-linejoin:round;stroke-miterlimit:4;stroke-opacity:1;stroke-dasharray:none;stroke-dashoffset:0"
               id="path11229"
               sodipodi:cx="105"
               sodipodi:cy="92.362183"
               sodipodi:rx="5"
               sodipodi:ry="5"
               d="m 110,92.362183 c 0,2.761423 -2.23858,5 -5,5 -2.76142,0 -5,-2.238577 -5,-5 0,-2.761424 2.23858,-5 5,-5 2.76142,0 5,2.238576 5,5 z"
               transform="matrix(0,1.4999997,-1.4999997,0,345.04325,-57.637791)" />
            <path
               transform="matrix(0,1.4999997,-1.4999994,0,345.04322,52.362216)"
               d="m 110,92.362183 c 0,2.761423 -2.23858,5 -5,5 -2.76142,0 -5,-2.238577 -5,-5 0,-2.761424 2.23858,-5 5,-5 2.76142,0 5,2.238576 5,5 z"
               sodipodi:ry="5"
               sodipodi:rx="5"
               sodipodi:cy="92.362183"
               sodipodi:cx="105"
               id="path11231"
               style="fill:none;stroke:#000000;stroke-width:0.66666687;stroke-linecap:round;stroke-linejoin:round;stroke-miterlimit:4;stroke-opacity:1;stroke-dasharray:none;stroke-dashoffset:0"
               sodipodi:type="arc" />
          </g>
          <path
             sodipodi:nodetypes="cc"
             id="path11233"
             d="m 141.5,222.36217 0,-134.999987"
             style="fill:none;stroke:#000000;stroke-width:0.5;stroke-linecap:round;stroke-linejoin:miter;stroke-miterlimit:4;stroke-opacity:1;stroke-dasharray:4, 1, 0.5, 1;stroke-dashoffset:0" />
          <path
             style="fill:none;stroke:#000000;stroke-width:0.5;stroke-linecap:round;stroke-linejoin:miter;stroke-miterlimit:4;stroke-opacity:1;stroke-dasharray:4, 1, 0.5, 1;stroke-dashoffset:0"
             d="m 206.5,222.36218 0,-134.999984"
             id="path11235"
             sodipodi:nodetypes="cc" />
          <path
             sodipodi:nodetypes="cc"
             id="path11237"
             d="m 129,99.862177 89.99998,0"
             style="fill:none;stroke:#000000;stroke-width:0.5;stroke-linecap:round;stroke-linejoin:miter;stroke-miterlimit:4;stroke-opacity:1;stroke-dasharray:4.00000001, 1, 0.5, 1;stroke-dashoffset:0" />
          <path
             style="fill:none;stroke:#000000;stroke-width:0.5;stroke-linecap:round;stroke-linejoin:miter;stroke-miterlimit:4;stroke-opacity:1;stroke-dasharray:4.00000001, 1, 0.5, 1;stroke-dashoffset:0"
             d="m 129.00002,209.86218 89.99998,0"
             id="path11239"
             sodipodi:nodetypes="cc" />
          <path
             sodipodi:nodetypes="cc"
             id="path11241"
             d="m 199,194.86218 15,0"
             style="fill:none;stroke:#000000;stroke-width:0.49999997;stroke-linecap:round;stroke-linejoin:miter;stroke-miterlimit:4;stroke-opacity:1;stroke-dasharray:4, 1, 0.5, 1;stroke-dashoffset:0" />
          <path
             style="fill:none;stroke:#000000;stroke-width:0.49999997;stroke-linecap:round;stroke-linejoin:miter;stroke-miterlimit:4;stroke-opacity:1;stroke-dasharray:4, 1, 0.5, 1;stroke-dashoffset:0"
             d="m 134,114.86218 15,0"
             id="path11243"
             sodipodi:nodetypes="cc" />
        </g>
      </g>
    </g>
  </g>
</svg>
