<?xml version="1.0" encoding="UTF-8" standalone="no"?>
<!-- Created with Inkscape (http://www.inkscape.org/) -->

<svg
   xmlns:dc="http://purl.org/dc/elements/1.1/"
   xmlns:cc="http://creativecommons.org/ns#"
   xmlns:rdf="http://www.w3.org/1999/02/22-rdf-syntax-ns#"
   xmlns:svg="http://www.w3.org/2000/svg"
   xmlns="http://www.w3.org/2000/svg"
   xmlns:sodipodi="http://sodipodi.sourceforge.net/DTD/sodipodi-0.dtd"
   xmlns:inkscape="http://www.inkscape.org/namespaces/inkscape"
   width="210mm"
   height="297mm"
   id="svg2"
   version="1.1"
   inkscape:version="0.47 r22583"
   sodipodi:docname="Fig23.svg"
   inkscape:export-filename="/home/xabi/Dropbox/PTSI/2_EncastrementDemontable/png/Fig23.png"
   inkscape:export-xdpi="300"
   inkscape:export-ydpi="300">
  <defs
     id="defs4">
    <inkscape:perspective
       sodipodi:type="inkscape:persp3d"
       inkscape:vp_x="0 : 526.18109 : 1"
       inkscape:vp_y="0 : 1000 : 0"
       inkscape:vp_z="744.09448 : 526.18109 : 1"
       inkscape:persp3d-origin="372.04724 : 350.78739 : 1"
       id="perspective10" />
    <inkscape:perspective
       id="perspective8597"
       inkscape:persp3d-origin="0.5 : 0.33333333 : 1"
       inkscape:vp_z="1 : 0.5 : 1"
       inkscape:vp_y="0 : 1000 : 0"
       inkscape:vp_x="0 : 0.5 : 1"
       sodipodi:type="inkscape:persp3d" />
    <inkscape:perspective
       id="perspective9725"
       inkscape:persp3d-origin="0.5 : 0.33333333 : 1"
       inkscape:vp_z="1 : 0.5 : 1"
       inkscape:vp_y="0 : 1000 : 0"
       inkscape:vp_x="0 : 0.5 : 1"
       sodipodi:type="inkscape:persp3d" />
  </defs>
  <sodipodi:namedview
     id="base"
     pagecolor="#ffffff"
     bordercolor="#666666"
     borderopacity="1.0"
     inkscape:pageopacity="0.0"
     inkscape:pageshadow="2"
     inkscape:zoom="7.8367347"
     inkscape:cx="154.99999"
     inkscape:cy="913.5"
     inkscape:document-units="px"
     inkscape:current-layer="g11396"
     showgrid="true"
     inkscape:window-width="1918"
     inkscape:window-height="1006"
     inkscape:window-x="0"
     inkscape:window-y="25"
     inkscape:window-maximized="1">
    <inkscape:grid
       type="xygrid"
       id="grid2816" />
  </sodipodi:namedview>
  <metadata
     id="metadata7">
    <rdf:RDF>
      <cc:Work
         rdf:about="">
        <dc:format>image/svg+xml</dc:format>
        <dc:type
           rdf:resource="http://purl.org/dc/dcmitype/StillImage" />
        <dc:title></dc:title>
      </cc:Work>
    </rdf:RDF>
  </metadata>
  <g
     inkscape:label="Calque 1"
     inkscape:groupmode="layer"
     id="layer1">
    <g
       id="g7046" />
    <g
       id="g8086"
       transform="matrix(-1,0,0,1,352,-1.9999974)" />
    <g
       id="g9775"
       transform="matrix(0,-1,1,0,2.637817,301.36218)">
      <g
         id="g9848"
         transform="translate(-2.6171875e-6,5)">
        <g
           id="g11069"
           transform="translate(-5,-4.999997)">
          <path
             sodipodi:type="arc"
             style="fill:none;stroke:#000000;stroke-width:1;stroke-linecap:square;stroke-linejoin:round;stroke-miterlimit:4;stroke-opacity:1;stroke-dasharray:none;stroke-dashoffset:0"
             id="path11286"
             sodipodi:cx="190"
             sodipodi:cy="132.36218"
             sodipodi:rx="35"
             sodipodi:ry="35"
             d="m 225,132.36218 c 0,19.32997 -15.67003,35 -35,35 -19.32997,0 -35,-15.67003 -35,-35 0,-19.32996 15.67003,-34.999997 35,-34.999997 19.32997,0 35,15.670037 35,34.999997 z"
             transform="matrix(0,1,-1,0,301.36218,22.36218)" />
          <path
             style="fill:none;stroke:#000000;stroke-width:1px;stroke-linecap:butt;stroke-linejoin:miter;stroke-opacity:1"
             d="M 214.82199,101.58102 215,172.36218"
             id="path11294"
             transform="matrix(0,1,-1,0,306.36218,-2.63782)" />
          <path
             id="path11296"
             d="M 169.47959,247.66376 169.30158,176.8826"
             style="fill:none;stroke:#000000;stroke-width:1px;stroke-linecap:butt;stroke-linejoin:miter;stroke-opacity:1" />
          <path
             style="fill:none;stroke:#000000;stroke-width:1px;stroke-linecap:butt;stroke-linejoin:miter;stroke-opacity:1"
             d="m 144.4286,237.36104 49.92397,-50.17572"
             id="path11298" />
          <path
             id="path11300"
             d="m 144.4286,187.18532 49.92397,50.17572"
             style="fill:none;stroke:#000000;stroke-width:1px;stroke-linecap:butt;stroke-linejoin:miter;stroke-opacity:1" />
          <path
             style="fill:none;stroke:#000000;stroke-width:1px;stroke-linecap:butt;stroke-linejoin:miter;stroke-opacity:1"
             d="m 135.22894,203.02745 68.32329,18.49146"
             id="path11302" />
          <path
             id="path11304"
             d="m 138.78594,194.50081 61.20929,35.54474"
             style="fill:none;stroke:#000000;stroke-width:1px;stroke-linecap:butt;stroke-linejoin:miter;stroke-opacity:1" />
          <path
             style="fill:none;stroke:#000000;stroke-width:1px;stroke-linecap:butt;stroke-linejoin:miter;stroke-opacity:1"
             d="m 151.77237,181.57953 35.23643,61.3873"
             id="path11306" />
          <path
             id="path11308"
             d="m 160.3168,178.06546 18.14757,68.41544"
             style="fill:none;stroke:#000000;stroke-width:1px;stroke-linecap:butt;stroke-linejoin:miter;stroke-opacity:1" />
          <path
             style="fill:none;stroke:#000000;stroke-width:1px;stroke-linecap:butt;stroke-linejoin:miter;stroke-opacity:1"
             d="m 178.63632,178.11153 -18.49147,68.3233"
             id="path11310" />
          <path
             id="path11312"
             d="m 187.16296,181.66853 -35.54475,61.2093"
             style="fill:none;stroke:#000000;stroke-width:1px;stroke-linecap:butt;stroke-linejoin:miter;stroke-opacity:1" />
          <path
             style="fill:none;stroke:#000000;stroke-width:1px;stroke-linecap:butt;stroke-linejoin:miter;stroke-opacity:1"
             d="M 200.08424,194.65496 138.69693,229.8914"
             id="path11314" />
          <path
             id="path11316"
             d="m 203.59831,203.19939 -68.41545,18.14758"
             style="fill:none;stroke:#000000;stroke-width:1px;stroke-linecap:butt;stroke-linejoin:miter;stroke-opacity:1" />
          <path
             transform="matrix(0,0.42857125,-0.42857125,0,225.72662,130.93364)"
             d="m 225,132.36218 c 0,19.32997 -15.67003,35 -35,35 -19.32997,0 -35,-15.67003 -35,-35 0,-19.32996 15.67003,-34.999997 35,-34.999997 19.32997,0 35,15.670037 35,34.999997 z"
             sodipodi:ry="35"
             sodipodi:rx="35"
             sodipodi:cy="132.36218"
             sodipodi:cx="190"
             id="path11288"
             style="fill:#ffffff;stroke:#000000;stroke-width:2.33333420999999985;stroke-linecap:square;stroke-linejoin:round;stroke-miterlimit:4;stroke-opacity:1;stroke-dasharray:none;stroke-dashoffset:0;fill-opacity:1"
             sodipodi:type="arc" />
          <path
             sodipodi:type="arc"
             style="fill:none;stroke:#000000;stroke-width:6.99999142;stroke-linecap:square;stroke-linejoin:round;stroke-miterlimit:4;stroke-opacity:1;stroke-dasharray:none;stroke-dashoffset:0"
             id="path11290"
             sodipodi:cx="190"
             sodipodi:cy="132.36218"
             sodipodi:rx="35"
             sodipodi:ry="35"
             d="m 225,132.36218 c 0,19.32997 -15.67003,35 -35,35 -19.32997,0 -35,-15.67003 -35,-35 0,-19.32996 15.67003,-34.999997 35,-34.999997 19.32997,0 35,15.670037 35,34.999997 z"
             transform="matrix(0,0.14285732,-0.14285732,0,187.9089,185.21929)" />
          <path
             transform="matrix(0,0.19999981,-0.19999981,0,195.4724,174.36222)"
             d="m 190,97.362183 c 19.32997,0 35,15.670037 35,34.999997 0,19.32997 -15.67003,35 -35,35 -19.32997,0 -35,-15.67003 -35,-35 0,0 0,0 0,0"
             sodipodi:ry="35"
             sodipodi:rx="35"
             sodipodi:cy="132.36218"
             sodipodi:cx="190"
             id="path11292"
             style="fill:none;stroke:#000000;stroke-width:2.50000238;stroke-linecap:square;stroke-linejoin:round;stroke-miterlimit:4;stroke-opacity:1;stroke-dasharray:none;stroke-dashoffset:0"
             sodipodi:type="arc"
             sodipodi:start="4.712389"
             sodipodi:end="9.424778"
             sodipodi:open="true" />
          <path
             sodipodi:nodetypes="cc"
             id="path11284"
             d="m 168.99999,167.36219 0,89.99998"
             style="fill:none;stroke:#000000;stroke-width:0.5;stroke-linecap:round;stroke-linejoin:miter;stroke-miterlimit:4;stroke-opacity:1;stroke-dasharray:4.00000001, 1, 0.5, 1;stroke-dashoffset:0" />
          <path
             style="fill:none;stroke:#000000;stroke-width:0.5;stroke-linecap:round;stroke-linejoin:miter;stroke-miterlimit:4;stroke-opacity:1;stroke-dasharray:4.00000001, 1, 0.5, 1;stroke-dashoffset:0"
             d="m 124,212.36218 89.99998,0"
             id="path10963"
             sodipodi:nodetypes="cc" />
          <path
             id="path11320"
             d="m 154,180.36218 c 3,-2 5,-2 5.16973,-4.39533 L 159,147.36218"
             style="fill:none;stroke:#000000;stroke-width:1px;stroke-linecap:butt;stroke-linejoin:miter;stroke-opacity:1"
             sodipodi:nodetypes="ccc" />
          <path
             sodipodi:nodetypes="ccc"
             style="fill:none;stroke:#000000;stroke-width:1px;stroke-linecap:butt;stroke-linejoin:miter;stroke-opacity:1"
             d="m 184,180.36218 c -3,-2 -5,-2 -5.16973,-4.39533 L 179,147.36218"
             id="path11322" />
          <path
             style="fill:none;stroke:#000000;stroke-width:1px;stroke-linecap:round;stroke-linejoin:miter;stroke-opacity:1"
             d="m 149.00001,112.36218 c 39.99999,0 39.99999,0 39.99999,0"
             id="path11324" />
          <g
             id="g11418">
            <g
               id="g11338">
              <path
                 id="path11326"
                 d="m 189,112.36218 c 0,-5 5,-5 5,-5"
                 style="fill:none;stroke:#000000;stroke-width:1px;stroke-linecap:butt;stroke-linejoin:miter;stroke-opacity:1"
                 sodipodi:nodetypes="cc" />
              <path
                 id="path11328"
                 d="m 194,107.36218 c 5,0 5,0 5,0"
                 style="fill:none;stroke:#000000;stroke-width:1px;stroke-linecap:round;stroke-linejoin:miter;stroke-opacity:1" />
              <path
                 sodipodi:nodetypes="cc"
                 style="fill:none;stroke:#000000;stroke-width:1px;stroke-linecap:butt;stroke-linejoin:miter;stroke-opacity:1"
                 d="m 204,102.36218 c 0,5 -5,5 -5,5"
                 id="path11330" />
            </g>
            <path
               id="path11334"
               d="m 204,102.36218 c 0,-10 0,-10 0,-10"
               style="fill:none;stroke:#000000;stroke-width:1px;stroke-linecap:round;stroke-linejoin:miter;stroke-opacity:1" />
            <path
               style="fill:none;stroke:#000000;stroke-width:1px;stroke-linecap:round;stroke-linejoin:miter;stroke-opacity:1"
               d="m 204,92.36218 c 0,-10 0,-10 0,-10"
               id="path11336" />
            <g
               transform="matrix(1,0,0,-1,0,184.72436)"
               id="g11343">
              <path
                 sodipodi:nodetypes="cc"
                 style="fill:none;stroke:#000000;stroke-width:1px;stroke-linecap:butt;stroke-linejoin:miter;stroke-opacity:1"
                 d="m 189,112.36218 c 0,-5 5,-5 5,-5"
                 id="path11345" />
              <path
                 style="fill:none;stroke:#000000;stroke-width:1px;stroke-linecap:round;stroke-linejoin:miter;stroke-opacity:1"
                 d="m 194,107.36218 c 5,0 5,0 5,0"
                 id="path11347" />
              <path
                 id="path11349"
                 d="m 204,102.36218 c 0,5 -5,5 -5,5"
                 style="fill:none;stroke:#000000;stroke-width:1px;stroke-linecap:butt;stroke-linejoin:miter;stroke-opacity:1"
                 sodipodi:nodetypes="cc" />
            </g>
          </g>
          <path
             style="fill:none;stroke:#000000;stroke-width:0.49999997;stroke-linecap:round;stroke-linejoin:miter;stroke-miterlimit:4;stroke-opacity:1;stroke-dasharray:3.99999991, 0.99999998, 0.5, 0.99999998;stroke-dashoffset:0"
             d="m 169,47.362178 0,80.000002"
             id="path11359"
             sodipodi:nodetypes="cc" />
          <g
             id="g11396">
            <path
               style="fill:none;stroke:#000000;stroke-width:0.99999994px;stroke-linecap:round;stroke-linejoin:miter;stroke-opacity:1"
               d="m 183.99999,95.36218 c 20,0 20,0 20,0"
               id="path11351" />
            <path
               style="fill:none;stroke:#000000;stroke-width:0.99999994px;stroke-linecap:round;stroke-linejoin:miter;stroke-opacity:1"
               d="m 184,95.36218 c 0,-8 0,-8 0,-8"
               id="path11361" />
            <path
               id="path11363"
               d="m 175.99999,87.36218 c 8.00001,0 8.00001,0 8.00001,0"
               style="fill:none;stroke:#000000;stroke-width:1px;stroke-linecap:round;stroke-linejoin:miter;stroke-opacity:1" />
            <path
               id="path11365"
               d="m 178,87.36218 c 0,-15 0,-15 0,-15"
               style="fill:none;stroke:#000000;stroke-width:0.99999988px;stroke-linecap:round;stroke-linejoin:miter;stroke-opacity:1" />
            <path
               style="fill:none;stroke:#000000;stroke-width:1px;stroke-linecap:round;stroke-linejoin:miter;stroke-opacity:1"
               d="m 175.99999,92.36218 c 8.00001,0 8.00001,0 8.00001,0"
               id="path11414" />
            <path
               id="path11416"
               d="m 153.99999,93.36218 c 8.00001,0 8.00001,0 8.00001,0"
               style="fill:none;stroke:#000000;stroke-width:1px;stroke-linecap:round;stroke-linejoin:miter;stroke-opacity:1" />
            <path
               id="path11468"
               d="m 184,62.36218 c 25,0 25,0 25,0"
               style="fill:none;stroke:#000000;stroke-width:0.99999994px;stroke-linecap:round;stroke-linejoin:miter;stroke-opacity:1" />
            <path
               style="fill:none;stroke:#000000;stroke-width:0.99999994px;stroke-linecap:round;stroke-linejoin:miter;stroke-opacity:1"
               d="m 184,67.36218 c 25,0 25,0 25,0"
               id="path11470" />
            <path
               sodipodi:type="arc"
               style="fill:#ffffff;fill-opacity:1;stroke:#000000;stroke-width:1.11111143;stroke-linecap:round;stroke-linejoin:round;stroke-miterlimit:4;stroke-opacity:1;stroke-dasharray:none;stroke-dashoffset:0"
               id="path11474"
               sodipodi:cx="55"
               sodipodi:cy="97.362183"
               sodipodi:rx="5"
               sodipodi:ry="5"
               d="m 60,97.362183 c 0,2.761427 -2.238576,4.999997 -5,4.999997 -2.761424,0 -5,-2.23857 -5,-4.999997 0,-2.761424 2.238576,-5 5,-5 2.761424,0 5,2.238576 5,5 z"
               transform="matrix(0,0.89999974,-0.89999974,0,299.12594,15.362193)" />
          </g>
          <path
             id="path11367"
             d="m 149,72.36218 c 40.00001,0 40.00001,0 40.00001,0"
             style="fill:none;stroke:#000000;stroke-width:1px;stroke-linecap:round;stroke-linejoin:miter;stroke-opacity:1" />
          <g
             id="g11371">
            <path
               style="fill:none;stroke:#000000;stroke-width:1px;stroke-linecap:round;stroke-linejoin:miter;stroke-opacity:1"
               d="m 174,112.36218 c 0,-5 0,-5 0,-5"
               id="path11332" />
            <path
               id="path11353"
               d="m 176,112.36218 c 0,-7 0,-7 0,-7"
               style="fill:none;stroke:#000000;stroke-width:0.49999997;stroke-linecap:round;stroke-linejoin:miter;stroke-miterlimit:4;stroke-opacity:1;stroke-dasharray:none" />
            <path
               sodipodi:nodetypes="cc"
               id="path11355"
               d="m 174,107.36218 2,-2"
               style="fill:none;stroke:#000000;stroke-width:1px;stroke-linecap:round;stroke-linejoin:miter;stroke-opacity:1" />
            <path
               id="path11357"
               d="m 176,105.36218 c 0,-32.999997 0,-32.999997 0,-32.999997"
               style="fill:none;stroke:#000000;stroke-width:1px;stroke-linecap:round;stroke-linejoin:miter;stroke-opacity:1" />
            <path
               style="fill:none;stroke:#000000;stroke-width:0.49999997;stroke-linecap:round;stroke-linejoin:miter;stroke-miterlimit:4;stroke-opacity:1;stroke-dasharray:none"
               d="m 174,108.36218 c 0,-31.000001 0,-31.000001 0,-31.000001"
               id="path11369" />
          </g>
          <g
             id="g11378"
             transform="matrix(-1,0,0,1,338,0)">
            <path
               id="path11380"
               d="m 174,112.36218 c 0,-5 0,-5 0,-5"
               style="fill:none;stroke:#000000;stroke-width:1px;stroke-linecap:round;stroke-linejoin:miter;stroke-opacity:1" />
            <path
               style="fill:none;stroke:#000000;stroke-width:0.49999997;stroke-linecap:round;stroke-linejoin:miter;stroke-miterlimit:4;stroke-opacity:1;stroke-dasharray:none"
               d="m 176,112.36218 c 0,-7 0,-7 0,-7"
               id="path11382" />
            <path
               style="fill:none;stroke:#000000;stroke-width:1px;stroke-linecap:round;stroke-linejoin:miter;stroke-opacity:1"
               d="m 174,107.36218 2,-2"
               id="path11384"
               sodipodi:nodetypes="cc" />
            <path
               style="fill:none;stroke:#000000;stroke-width:1px;stroke-linecap:round;stroke-linejoin:miter;stroke-opacity:1"
               d="m 176,105.36218 c 0,-32.999997 0,-32.999997 0,-32.999997"
               id="path11386" />
            <path
               id="path11388"
               d="m 174,108.36218 c 0,-31.000001 0,-31.000001 0,-31.000001"
               style="fill:none;stroke:#000000;stroke-width:0.49999997;stroke-linecap:round;stroke-linejoin:miter;stroke-miterlimit:4;stroke-opacity:1;stroke-dasharray:none" />
          </g>
          <path
             style="fill:none;stroke:#000000;stroke-width:1px;stroke-linecap:round;stroke-linejoin:miter;stroke-opacity:1"
             d="m 162,105.36218 c 14,0 14,0 14,0"
             id="path11390" />
          <path
             id="path11392"
             d="m 164,107.36218 c 10,0 10,0 10,0"
             style="fill:none;stroke:#000000;stroke-width:1px;stroke-linecap:round;stroke-linejoin:miter;stroke-opacity:1" />
          <g
             id="g11402"
             transform="matrix(-1,0,0,1,338,0)">
            <path
               id="path11404"
               d="m 183.99999,95.36218 c 20,0 20,0 20,0"
               style="fill:none;stroke:#000000;stroke-width:0.99999994px;stroke-linecap:round;stroke-linejoin:miter;stroke-opacity:1" />
            <path
               id="path11406"
               d="m 184,95.36218 c 0,-8 0,-8 0,-8"
               style="fill:none;stroke:#000000;stroke-width:0.99999994px;stroke-linecap:round;stroke-linejoin:miter;stroke-opacity:1" />
            <path
               style="fill:none;stroke:#000000;stroke-width:1px;stroke-linecap:round;stroke-linejoin:miter;stroke-opacity:1"
               d="m 175.99999,87.36218 c 8.00001,0 8.00001,0 8.00001,0"
               id="path11408" />
            <path
               style="fill:none;stroke:#000000;stroke-width:0.99999988px;stroke-linecap:round;stroke-linejoin:miter;stroke-opacity:1"
               d="m 178,87.36218 c 0,-15 0,-15 0,-15"
               id="path11410" />
            <path
               style="fill:none;stroke:#000000;stroke-width:0.99999994px;stroke-linecap:round;stroke-linejoin:miter;stroke-opacity:1"
               d="m 194,74.36218 c 25,0 25,0 25,0"
               id="path11478" />
            <path
               id="path11480"
               d="m 208,90.36218 c 11,0 11,0 11,0"
               style="fill:none;stroke:#000000;stroke-width:0.99999988px;stroke-linecap:round;stroke-linejoin:miter;stroke-opacity:1" />
            <path
               style="fill:none;stroke:#000000;stroke-width:0.5;stroke-linecap:butt;stroke-linejoin:miter;stroke-opacity:1;stroke-miterlimit:4;stroke-dasharray:none"
               d="M 80.0151,162.41573 90,172.36218"
               id="path11484"
               transform="matrix(0,1,1,0,31.637817,-2.63782)" />
            <path
               id="path11486"
               d="m 187,72.296463 17,17.065716"
               style="fill:none;stroke:#000000;stroke-width:0.49999997;stroke-linecap:butt;stroke-linejoin:miter;stroke-miterlimit:4;stroke-opacity:1;stroke-dasharray:none" />
            <path
               id="path11488"
               d="M 179.00001,72.265543 202,95.354444"
               style="fill:none;stroke:#000000;stroke-width:0.5;stroke-linecap:butt;stroke-linejoin:miter;stroke-miterlimit:4;stroke-opacity:1;stroke-dasharray:none" />
            <path
               style="fill:none;stroke:#000000;stroke-width:0.49999997;stroke-linecap:butt;stroke-linejoin:miter;stroke-miterlimit:4;stroke-opacity:1;stroke-dasharray:none"
               d="m 178,73.36218 21.91528,22"
               id="path11490" />
            <path
               id="path11492"
               d="m 178,81.36218 13.94609,14"
               style="fill:none;stroke:#000000;stroke-width:0.5;stroke-linecap:butt;stroke-linejoin:miter;stroke-miterlimit:4;stroke-opacity:1;stroke-dasharray:none" />
            <path
               style="fill:none;stroke:#000000;stroke-width:0.5;stroke-linecap:butt;stroke-linejoin:miter;stroke-miterlimit:4;stroke-opacity:1;stroke-dasharray:none"
               d="m 178,83.362179 4,4.015463"
               id="path11494" />
            <path
               id="path11496"
               d="m 184,89.338985 6,6.023195"
               style="fill:none;stroke:#000000;stroke-width:0.5;stroke-linecap:butt;stroke-linejoin:miter;stroke-miterlimit:4;stroke-opacity:1;stroke-dasharray:none" />
            <path
               id="path11498"
               d="M 158.97304,72.36218 160,73.393107"
               style="fill:none;stroke:#000000;stroke-width:0.5;stroke-linecap:butt;stroke-linejoin:miter;stroke-miterlimit:4;stroke-opacity:1;stroke-dasharray:none" />
            <path
               style="fill:none;stroke:#000000;stroke-width:0.5;stroke-linecap:butt;stroke-linejoin:miter;stroke-miterlimit:4;stroke-opacity:1;stroke-dasharray:none"
               d="M 156.97689,72.331254 160,75.366044"
               id="path11500" />
            <path
               id="path11502"
               d="m 148.99999,72.323537 10.99616,11.03864"
               style="fill:none;stroke:#000000;stroke-width:0.5;stroke-linecap:butt;stroke-linejoin:miter;stroke-miterlimit:4;stroke-opacity:1;stroke-dasharray:none" />
            <path
               style="fill:none;stroke:#000000;stroke-width:0.5;stroke-linecap:butt;stroke-linejoin:miter;stroke-miterlimit:4;stroke-opacity:1;stroke-dasharray:none"
               d="M 149.00384,74.32354 160,85.36218"
               id="path11504" />
            <path
               id="path11506"
               d="m 144,77.36218 9.96152,10"
               style="fill:none;stroke:#000000;stroke-width:0.49999997;stroke-linecap:butt;stroke-linejoin:miter;stroke-miterlimit:4;stroke-opacity:1;stroke-dasharray:none" />
            <path
               style="fill:none;stroke:#000000;stroke-width:0.5;stroke-linecap:butt;stroke-linejoin:miter;stroke-miterlimit:4;stroke-opacity:1;stroke-dasharray:none"
               d="m 142.00384,77.323542 11.99232,12.038641"
               id="path11508" />
            <path
               style="fill:none;stroke:#000000;stroke-width:0.5;stroke-linecap:butt;stroke-linejoin:miter;stroke-miterlimit:4;stroke-opacity:1;stroke-dasharray:none"
               d="m 135.0077,78.362183 16.93458,17"
               id="path11510" />
            <path
               id="path11512"
               d="m 135,80.30037 15.00385,15.06181"
               style="fill:none;stroke:#000000;stroke-width:0.50000000000000000;stroke-linecap:round;stroke-linejoin:miter;stroke-miterlimit:4;stroke-opacity:1;stroke-dasharray:none" />
            <path
               style="fill:none;stroke:#000000;stroke-width:0.49999997;stroke-linecap:butt;stroke-linejoin:miter;stroke-miterlimit:4;stroke-opacity:1;stroke-dasharray:none"
               d="m 133.99615,89.362181 5.97691,6"
               id="path11514" />
            <path
               id="path11516"
               d="m 134.00001,87.35832 7.97306,8.003863"
               style="fill:none;stroke:#000000;stroke-width:0.5;stroke-linecap:butt;stroke-linejoin:miter;stroke-miterlimit:4;stroke-opacity:1;stroke-dasharray:none" />
            <path
               id="path11518"
               d="m 135,104.39694 8.99999,-9.034763"
               style="fill:none;stroke:#000000;stroke-width:0.49999997000000002;stroke-linecap:round;stroke-linejoin:miter;stroke-miterlimit:4;stroke-opacity:1;stroke-dasharray:none" />
            <path
               style="fill:none;stroke:#000000;stroke-width:0.49999997;stroke-linecap:butt;stroke-linejoin:miter;stroke-miterlimit:4;stroke-opacity:1;stroke-dasharray:none"
               d="M 135.04233,106.36218 145.99999,95.362176"
               id="path11520" />
            <path
               style="fill:none;stroke:#000000;stroke-width:0.49999997;stroke-linecap:round;stroke-linejoin:miter;stroke-miterlimit:4;stroke-opacity:1;stroke-dasharray:none"
               d="M 144.04233,107.36218 158.98461,92.362181"
               id="path11522" />
            <path
               id="path11524"
               d="M 142.05772,107.36218 157,92.36218"
               style="fill:none;stroke:#000000;stroke-width:0.49999997;stroke-linecap:round;stroke-linejoin:miter;stroke-miterlimit:4;stroke-opacity:1;stroke-dasharray:none" />
            <path
               style="fill:none;stroke:#000000;stroke-width:0.49999997;stroke-linecap:round;stroke-linejoin:miter;stroke-miterlimit:4;stroke-opacity:1;stroke-dasharray:none"
               d="M 149,112.4124 162,99.362179"
               id="path11526" />
            <path
               id="path11528"
               d="M 149,110.4124 162,97.36218"
               style="fill:none;stroke:#000000;stroke-width:0.49999997;stroke-linecap:round;stroke-linejoin:miter;stroke-miterlimit:4;stroke-opacity:1;stroke-dasharray:none" />
            <path
               id="path11530"
               d="m 159,112.37377 4.9923,-5.01159"
               style="fill:none;stroke:#000000;stroke-width:0.49999997;stroke-linecap:round;stroke-linejoin:miter;stroke-miterlimit:4;stroke-opacity:1;stroke-dasharray:none" />
            <path
               style="fill:none;stroke:#000000;stroke-width:0.49999994;stroke-linecap:round;stroke-linejoin:miter;stroke-miterlimit:4;stroke-opacity:1;stroke-dasharray:none"
               d="m 157.00769,112.36218 5.9769,-6"
               id="path11532" />
            <path
               style="fill:none;stroke:#000000;stroke-width:0.49999997;stroke-linecap:round;stroke-linejoin:miter;stroke-miterlimit:4;stroke-opacity:1;stroke-dasharray:none"
               d="m 175.94613,95.36218 1.9923,-2"
               id="path11536" />
            <path
               id="path11538"
               d="M 176.00001,105.36218 186,95.32356"
               style="fill:none;stroke:#000000;stroke-width:0.49999997;stroke-linecap:round;stroke-linejoin:miter;stroke-miterlimit:4;stroke-opacity:1;stroke-dasharray:none" />
            <path
               style="fill:none;stroke:#000000;stroke-width:0.49999997;stroke-linecap:round;stroke-linejoin:miter;stroke-miterlimit:4;stroke-opacity:1;stroke-dasharray:none"
               d="M 174.05387,109.36218 188,95.36218"
               id="path11540" />
            <path
               id="path11542"
               d="M 174.05387,109.36218 188,95.36218"
               style="fill:none;stroke:#000000;stroke-width:0.49999997;stroke-linecap:round;stroke-linejoin:miter;stroke-miterlimit:4;stroke-opacity:1;stroke-dasharray:none" />
            <path
               style="fill:none;stroke:#000000;stroke-width:0.49999997;stroke-linecap:round;stroke-linejoin:miter;stroke-miterlimit:4;stroke-opacity:1;stroke-dasharray:none"
               d="m 180.03464,112.36218 16.93459,-17"
               id="path11544" />
            <path
               id="path11546"
               d="m 182,112.36218 16.93459,-17"
               style="fill:none;stroke:#000000;stroke-width:0.49999997;stroke-linecap:round;stroke-linejoin:miter;stroke-miterlimit:4;stroke-opacity:1;stroke-dasharray:none" />
            <path
               style="fill:none;stroke:#000000;stroke-width:0.49999997;stroke-linecap:round;stroke-linejoin:miter;stroke-miterlimit:4;stroke-opacity:1;stroke-dasharray:none"
               d="m 199,107.38149 5,-5.01931"
               id="path11548" />
          </g>
          <path
             id="path11412"
             d="m 162,77.36218 c 14,0 14,0 14,0"
             style="fill:none;stroke:#000000;stroke-width:1px;stroke-linecap:round;stroke-linejoin:miter;stroke-opacity:1" />
          <g
             id="g11430"
             transform="matrix(-1,0,0,1,338,0)">
            <g
               id="g11432">
              <path
                 sodipodi:nodetypes="cc"
                 style="fill:none;stroke:#000000;stroke-width:1px;stroke-linecap:butt;stroke-linejoin:miter;stroke-opacity:1"
                 d="m 189,112.36218 c 0,-5 5,-5 5,-5"
                 id="path11434" />
              <path
                 style="fill:none;stroke:#000000;stroke-width:1px;stroke-linecap:round;stroke-linejoin:miter;stroke-opacity:1"
                 d="m 194,107.36218 c 5,0 5,0 5,0"
                 id="path11436" />
              <path
                 id="path11438"
                 d="m 204,102.36218 c 0,5 -5,5 -5,5"
                 style="fill:none;stroke:#000000;stroke-width:1px;stroke-linecap:butt;stroke-linejoin:miter;stroke-opacity:1"
                 sodipodi:nodetypes="cc" />
              <path
                 id="path11482"
                 d="m 204,95.36218 c 0,-5 5,-5 5,-5"
                 style="fill:none;stroke:#000000;stroke-width:1px;stroke-linecap:butt;stroke-linejoin:miter;stroke-opacity:1"
                 sodipodi:nodetypes="cc" />
            </g>
            <path
               style="fill:none;stroke:#000000;stroke-width:1px;stroke-linecap:round;stroke-linejoin:miter;stroke-opacity:1"
               d="m 204,102.36218 c 0,-10 0,-10 0,-10"
               id="path11440" />
            <path
               id="path11442"
               d="m 204,92.36218 c 0,-10 0,-10 0,-10"
               style="fill:none;stroke:#000000;stroke-width:1px;stroke-linecap:round;stroke-linejoin:miter;stroke-opacity:1" />
            <g
               id="g11444"
               transform="matrix(1,0,0,-1,0,184.72436)">
              <path
                 id="path11446"
                 d="m 189,112.36218 c 0,-5 5,-5 5,-5"
                 style="fill:none;stroke:#000000;stroke-width:1px;stroke-linecap:butt;stroke-linejoin:miter;stroke-opacity:1"
                 sodipodi:nodetypes="cc" />
              <path
                 id="path11448"
                 d="m 194,107.36218 c 5,0 5,0 5,0"
                 style="fill:none;stroke:#000000;stroke-width:1px;stroke-linecap:round;stroke-linejoin:miter;stroke-opacity:1" />
              <path
                 sodipodi:nodetypes="cc"
                 style="fill:none;stroke:#000000;stroke-width:1px;stroke-linecap:butt;stroke-linejoin:miter;stroke-opacity:1"
                 d="m 204,102.36218 c 0,5 -5,5 -5,5"
                 id="path11450" />
              <path
                 sodipodi:nodetypes="cc"
                 style="fill:none;stroke:#000000;stroke-width:1px;stroke-linecap:butt;stroke-linejoin:miter;stroke-opacity:1"
                 d="m 189,112.36218 c 0,-2 5,-2 5,-2"
                 id="path11476" />
            </g>
          </g>
          <path
             style="fill:none;stroke:#000000;stroke-width:1px;stroke-linecap:round;stroke-linejoin:miter;stroke-opacity:1"
             d="m 154,72.36219 c 0,-15.00001 0,-15.00001 0,-15.00001"
             id="path11452" />
          <path
             id="path11454"
             d="m 184,62.36218 c 0,-5 0,-5 0,-5"
             style="fill:none;stroke:#000000;stroke-width:1px;stroke-linecap:round;stroke-linejoin:miter;stroke-opacity:1" />
          <path
             style="fill:none;stroke:#000000;stroke-width:1px;stroke-linecap:round;stroke-linejoin:miter;stroke-opacity:1"
             d="m 154,57.36218 c 29.99999,0 29.99999,0 29.99999,0"
             id="path11456" />
          <path
             id="path11458"
             d="m 156,55.36218 c 26,0 26,0 26,0"
             style="fill:none;stroke:#000000;stroke-width:0.99999994px;stroke-linecap:round;stroke-linejoin:miter;stroke-opacity:1" />
          <path
             style="fill:none;stroke:#000000;stroke-width:0.99999994px;stroke-linecap:round;stroke-linejoin:miter;stroke-opacity:1"
             d="m 182,55.36218 2,2"
             id="path11460"
             sodipodi:nodetypes="cc" />
          <path
             sodipodi:nodetypes="cc"
             id="path11462"
             d="m 156,55.36218 -2,2"
             style="fill:none;stroke:#000000;stroke-width:0.99999994px;stroke-linecap:round;stroke-linejoin:miter;stroke-opacity:1" />
          <path
             style="fill:none;stroke:#000000;stroke-width:1px;stroke-linecap:round;stroke-linejoin:miter;stroke-opacity:1"
             d="m 184,72.36218 c 0,-5 0,-5 0,-5"
             id="path11464" />
          <path
             id="path11466"
             d="m 184,67.36218 c -1.79596,0 -1.79596,-5 0,-5"
             style="fill:none;stroke:#000000;stroke-width:1px;stroke-linecap:round;stroke-linejoin:miter;stroke-opacity:1"
             sodipodi:nodetypes="cc" />
        </g>
      </g>
    </g>
  </g>
</svg>
