<?xml version="1.0" encoding="UTF-8" standalone="no"?>
<!-- Created with Inkscape (http://www.inkscape.org/) -->

<svg
   xmlns:dc="http://purl.org/dc/elements/1.1/"
   xmlns:cc="http://creativecommons.org/ns#"
   xmlns:rdf="http://www.w3.org/1999/02/22-rdf-syntax-ns#"
   xmlns:svg="http://www.w3.org/2000/svg"
   xmlns="http://www.w3.org/2000/svg"
   xmlns:sodipodi="http://sodipodi.sourceforge.net/DTD/sodipodi-0.dtd"
   xmlns:inkscape="http://www.inkscape.org/namespaces/inkscape"
   width="210mm"
   height="297mm"
   id="svg4620"
   version="1.1"
   inkscape:version="0.47 r22583"
   sodipodi:docname="parametrage.svg"
   inkscape:export-filename="/home/xabi/Dropbox/PTSI/1_Filetage/png/parametrage.png"
   inkscape:export-xdpi="300"
   inkscape:export-ydpi="300">
  <sodipodi:namedview
     id="base"
     pagecolor="#ffffff"
     bordercolor="#666666"
     borderopacity="1.0"
     inkscape:pageopacity="0.0"
     inkscape:pageshadow="2"
     inkscape:zoom="0.98994949"
     inkscape:cx="107.46236"
     inkscape:cy="965.46494"
     inkscape:document-units="px"
     inkscape:current-layer="g5604"
     showgrid="true"
     inkscape:window-width="1382"
     inkscape:window-height="854"
     inkscape:window-x="1"
     inkscape:window-y="48"
     inkscape:window-maximized="0">
    <inkscape:grid
       id="grid4630"
       type="xygrid" />
  </sodipodi:namedview>
  <defs
     id="defs4622">
    <marker
       inkscape:stockid="Arrow1Mstart"
       orient="auto"
       refY="0.0"
       refX="0.0"
       id="Arrow1Mstart"
       style="overflow:visible">
      <path
         id="path5153"
         d="M 0.0,0.0 L 5.0,-5.0 L -12.5,0.0 L 5.0,5.0 L 0.0,0.0 z "
         style="fill-rule:evenodd;stroke:#000000;stroke-width:1.0pt;marker-start:none"
         transform="scale(0.4) translate(10,0)" />
    </marker>
    <marker
       inkscape:stockid="Arrow1Mend"
       orient="auto"
       refY="0.0"
       refX="0.0"
       id="Arrow1Mend"
       style="overflow:visible;">
      <path
         id="path5156"
         d="M 0.0,0.0 L 5.0,-5.0 L -12.5,0.0 L 5.0,5.0 L 0.0,0.0 z "
         style="fill-rule:evenodd;stroke:#000000;stroke-width:1.0pt;marker-start:none;"
         transform="scale(0.4) rotate(180) translate(10,0)" />
    </marker>
    <marker
       inkscape:stockid="Arrow1Sstart"
       orient="auto"
       refY="0.0"
       refX="0.0"
       id="Arrow1Sstart"
       style="overflow:visible">
      <path
         id="path5159"
         d="M 0.0,0.0 L 5.0,-5.0 L -12.5,0.0 L 5.0,5.0 L 0.0,0.0 z "
         style="fill-rule:evenodd;stroke:#000000;stroke-width:1.0pt;marker-start:none"
         transform="scale(0.2) translate(6,0)" />
    </marker>
    <marker
       style="overflow:visible;"
       id="Arrow1Lend"
       refX="0.0"
       refY="0.0"
       orient="auto"
       inkscape:stockid="Arrow1Lend">
      <path
         transform="scale(0.8) rotate(180) translate(12.5,0)"
         style="fill-rule:evenodd;stroke:#000000;stroke-width:1.0pt;marker-start:none;"
         d="M 0.0,0.0 L 5.0,-5.0 L -12.5,0.0 L 5.0,5.0 L 0.0,0.0 z "
         id="path5150" />
    </marker>
    <inkscape:perspective
       id="perspective4628"
       inkscape:persp3d-origin="372.04724 : 350.78739 : 1"
       inkscape:vp_z="744.09448 : 526.18109 : 1"
       inkscape:vp_y="0 : 1000 : 0"
       inkscape:vp_x="0 : 526.18109 : 1"
       sodipodi:type="inkscape:persp3d" />
  </defs>
  <metadata
     id="metadata4625">
    <rdf:RDF>
      <cc:Work
         rdf:about="">
        <dc:format>image/svg+xml</dc:format>
        <dc:type
           rdf:resource="http://purl.org/dc/dcmitype/StillImage" />
        <dc:title></dc:title>
      </cc:Work>
    </rdf:RDF>
  </metadata>
  <g
     id="layer1"
     inkscape:groupmode="layer"
     inkscape:label="Calque 1">
    <path
       id="path4632"
       d="M 70,162.36218 70,32.362183"
       style="fill:none;stroke:#000000;stroke-width:1px;stroke-linecap:butt;stroke-linejoin:miter;stroke-opacity:1;marker-end:url(#Arrow1Lend)" />
    <path
       style="fill:none;stroke:#000000;stroke-width:1px;stroke-linecap:butt;stroke-linejoin:miter;stroke-opacity:1;marker-end:url(#Arrow1Lend)"
       d="m 70.000001,162.36218 309.999999,0"
       id="path5592" />
    <path
       inkscape:transform-center-x="38.55824"
       inkscape:transform-center-y="52.948205"
       style="fill:none;stroke:#000000;stroke-width:1px;stroke-linecap:butt;stroke-linejoin:miter;stroke-opacity:1;marker-end:url(#Arrow1Lend)"
       d="M 69.705662,163.26637 -6.8221422,268.3544"
       id="path5594" />
    <g
       inkscape:transform-center-y="9.3946448"
       inkscape:transform-center-x="33.230589"
       transform="matrix(0.8584703,-0.51286328,0.51286328,0.8584703,-33.362521,58.879502)"
       id="g5600">
      <path
         id="path5596"
         d="M 70,162.36218 70,32.362183"
         style="fill:none;stroke:#000000;stroke-width:1px;stroke-linecap:butt;stroke-linejoin:miter;stroke-opacity:1;marker-end:url(#Arrow1Lend)" />
      <path
         inkscape:transform-center-x="38.55824"
         inkscape:transform-center-y="52.948205"
         style="fill:none;stroke:#000000;stroke-width:1px;stroke-linecap:butt;stroke-linejoin:miter;stroke-opacity:1;marker-end:url(#Arrow1Lend)"
         d="M 69.705662,163.26637 -6.8221422,268.3544"
         id="path5598" />
      <path
         style="fill:none;stroke:#000000;stroke-width:1px;stroke-linecap:butt;stroke-linejoin:miter;stroke-opacity:1;marker-end:url(#Arrow1Mend)"
         d="m 178.92588,227.43617 0,-52.41882"
         id="path9425" />
      <path
         id="path9617"
         d="m 200.38762,240.25774 0,-69.89176"
         style="fill:none;stroke:#000000;stroke-width:1px;stroke-linecap:butt;stroke-linejoin:miter;stroke-opacity:1;marker-end:url(#Arrow1Mend)" />
      <path
         id="path9619"
         d="m 123.12531,194.10005 0,-52.41882"
         style="fill:none;stroke:#000000;stroke-width:0.5;stroke-linecap:butt;stroke-linejoin:miter;stroke-opacity:1;marker-end:none;stroke-miterlimit:4;stroke-dasharray:none" />
      <path
         style="fill:none;stroke:#000000;stroke-width:0.5;stroke-linecap:butt;stroke-linejoin:miter;stroke-miterlimit:4;stroke-opacity:1;stroke-dasharray:none;marker-end:none"
         d="m 152.50274,211.2203 0,-40.33991"
         id="path9809" />
      <path
         id="path9811"
         d="M 129.31211,238.56634 103.558,223.18044"
         style="fill:none;stroke:#000000;stroke-width:1px;stroke-linecap:butt;stroke-linejoin:miter;stroke-opacity:1;marker-start:url(#Arrow1Mstart);marker-end:url(#Arrow1Mend)"
         sodipodi:nodetypes="cc" />
    </g>
    <g
       id="g5604"
       transform="matrix(0.8584703,-0.51286328,0.51286328,0.8584703,-73.573567,57.952327)"
       inkscape:transform-center-x="33.230589"
       inkscape:transform-center-y="9.3946448">
      <path
         sodipodi:nodetypes="cc"
         style="fill:none;stroke:#000000;stroke-width:1px;stroke-linecap:butt;stroke-linejoin:miter;stroke-opacity:1;marker-end:none"
         d="M 69.705662,163.26637 67.81121,68.945583"
         id="path5606" />
      <path
         id="path5794"
         d="m 301.49264,301.73946 -1.89445,-94.32079"
         style="fill:none;stroke:#000000;stroke-width:1px;stroke-linecap:butt;stroke-linejoin:miter;stroke-opacity:1;marker-end:none"
         sodipodi:nodetypes="cc" />
      <path
         sodipodi:nodetypes="cc"
         style="fill:none;stroke:#000000;stroke-width:1px;stroke-linecap:butt;stroke-linejoin:miter;stroke-opacity:1;marker-end:none"
         d="M 67.81121,68.945583 299.59819,207.41867"
         id="path5796" />
      <g
         id="g5817"
         transform="matrix(0.20247854,0.11690104,-0.11690104,0.20247854,116.44754,-50.420192)">
        <g
           word-spacing="normal"
           letter-spacing="normal"
           font-size-adjust="none"
           font-stretch="normal"
           font-weight="normal"
           font-variant="normal"
           font-style="normal"
           fill-rule="even-odd"
           stroke-miterlimit="10.433"
           xml:space="preserve"
           transform="matrix(1.0629921,0,0,-1.0629921,-186.02362,789.27165)"
           id="content"
           style="font-style:normal;font-variant:normal;font-weight:normal;font-stretch:normal;letter-spacing:normal;word-spacing:normal;text-anchor:start;fill:none;stroke:#000000;stroke-width:4.27712202;stroke-linecap:butt;stroke-linejoin:miter;stroke-miterlimit:10.43299961;stroke-opacity:1;stroke-dasharray:none;stroke-dashoffset:0"><path
             id="path5820"
             d="m 488.83,439.46 0.16,0 0.16,0 0.15,0 0.08,0.01 0.08,0 0.07,0.01 0.08,0.01 0.07,0.01 0.07,0.01 0.07,0.01 0.07,0.02 0.06,0.02 0.07,0.02 0.06,0.03 0.05,0.02 0.06,0.04 0.05,0.03 0.05,0.04 0.05,0.04 0.04,0.05 0.04,0.05 0.01,0.02 0.02,0.03 0.02,0.03 0.01,0.03 0.02,0.03 0.01,0.04 0.01,0.03 0.01,0.03 0.01,0.04 0.01,0.04 0,0.04 0.01,0.04 0,0.04 0.01,0.04 0,0.05 0,0.04 c 0,1 -0.9,1 -1.74,1 h -26.95 c -0.85,0 -1.75,0 -1.75,-1 0,-0.99 0.9,-0.99 1.75,-0.99 z"
             style="fill:#000000;stroke-width:0" /><path
             id="path5822"
             d="m 497.54,439.46 -0.25,-0.2 -0.24,-0.19 -0.24,-0.2 -0.23,-0.19 -0.22,-0.2 -0.21,-0.19 -0.21,-0.19 -0.2,-0.18 -0.19,-0.19 -0.18,-0.18 -0.17,-0.18 -0.17,-0.18 -0.16,-0.17 -0.16,-0.17 -0.14,-0.16 -0.14,-0.17 -0.14,-0.15 -0.12,-0.16 -0.12,-0.15 -0.12,-0.14 -0.1,-0.14 -0.1,-0.13 -0.1,-0.13 -0.08,-0.12 -0.09,-0.11 -0.07,-0.11 -0.07,-0.1 -0.06,-0.1 -0.06,-0.09 -0.05,-0.08 -0.05,-0.07 -0.04,-0.06 c -2.24,-3.44 -2.64,-6.58 -2.64,-6.63 0,-0.6 0.6,-0.6 1,-0.6 0.85,0 0.89,0.1 1.09,1 1.15,4.88 4.09,9.07 9.72,11.35 0.59,0.2 0.74,0.31 0.74,0.65 0,0.35 -0.29,0.5 -0.4,0.55 -2.19,0.85 -8.21,3.34 -10.11,11.71 -0.15,0.59 -0.19,0.74 -1.04,0.74 -0.4,0 -1,0 -1,-0.59 0,-0.1 0.45,-3.24 2.54,-6.58 1,-1.49 2.44,-3.24 4.58,-4.83 h -37.01 c -0.89,0 -1.79,0 -1.79,-1 0,-0.99 0.9,-0.99 1.79,-0.99 z"
             style="fill:#000000;stroke-width:0" /><path
             id="path5824"
             d="m 482.64,421.04 0.03,0.13 0.03,0.15 0.05,0.17 0.04,0.18 0.06,0.19 0.06,0.21 0.06,0.21 0.07,0.23 0.08,0.23 0.09,0.24 0.1,0.25 0.1,0.24 0.11,0.25 0.12,0.25 0.13,0.25 0.14,0.25 0.15,0.24 0.15,0.24 0.17,0.23 0.18,0.22 0.18,0.22 0.2,0.2 0.21,0.19 0.22,0.18 0.23,0.16 0.25,0.14 0.12,0.07 0.13,0.06 0.13,0.05 0.14,0.05 0.14,0.05 0.14,0.04 0.14,0.03 0.15,0.03 0.15,0.02 0.16,0.02 0.16,0.01 0.16,0 c 0.25,0 1.45,0 2.49,-0.65 -1.4,-0.25 -2.39,-1.49 -2.39,-2.68 0,-0.8 0.54,-1.75 1.89,-1.75 1.1,0 2.69,0.9 2.69,2.89 0,2.59 -2.94,3.29 -4.63,3.29 -2.89,0 -4.64,-2.64 -5.23,-3.79 -1.25,3.29 -3.94,3.79 -5.38,3.79 -5.18,0 -8.02,-6.43 -8.02,-7.67 0,-0.5 0.5,-0.5 0.6,-0.5 0.39,0 0.54,0.1 0.64,0.54 1.7,5.29 4.98,6.53 6.68,6.53 0.95,0 2.69,-0.45 2.69,-3.33 0,-1.55 -0.85,-4.89 -2.69,-11.86 -0.8,-3.09 -2.54,-5.18 -4.73,-5.18 -0.3,0 -1.45,0 -2.49,0.65 1.24,0.25 2.34,1.29 2.34,2.69 0,1.34 -1.1,1.74 -1.85,1.74 -1.49,0 -2.73,-1.3 -2.73,-2.89 0,-2.29 2.48,-3.29 4.68,-3.29 3.28,0 5.08,3.49 5.23,3.79 0.6,-1.85 2.39,-3.79 5.38,-3.79 5.13,0 7.97,6.43 7.97,7.67 0,0.5 -0.45,0.5 -0.6,0.5 -0.45,0 -0.55,-0.2 -0.65,-0.55 -1.64,-5.33 -5.03,-6.52 -6.62,-6.52 -1.95,0 -2.74,1.59 -2.74,3.29 0,1.09 0.29,2.19 0.85,4.38 z"
             style="fill:#000000;stroke-width:0" /></g>      </g>
      <g
         id="g5872"
         transform="matrix(0.16884051,0.09748011,-0.09748011,0.16884051,-76.368591,110.63244)">
        <g
           id="g5874"
           transform="matrix(1.0629921,0,0,-1.0629921,-186.02362,789.27165)"
           xml:space="preserve"
           stroke-miterlimit="10.433"
           fill-rule="even-odd"
           font-style="normal"
           font-variant="normal"
           font-weight="normal"
           font-stretch="normal"
           font-size-adjust="none"
           letter-spacing="normal"
           word-spacing="normal"
           style="font-style:normal;font-variant:normal;font-weight:normal;font-stretch:normal;letter-spacing:normal;word-spacing:normal;text-anchor:start;fill:none;stroke:#000000;stroke-width:5.12925148;stroke-linecap:butt;stroke-linejoin:miter;stroke-miterlimit:10.43299961;stroke-opacity:1;stroke-dasharray:none;stroke-dashoffset:0"><path
             d="m 488.83,439.46 0.16,0 0.16,0 0.15,0 0.08,0.01 0.08,0 0.07,0.01 0.08,0.01 0.07,0.01 0.07,0.01 0.07,0.01 0.07,0.02 0.06,0.02 0.07,0.02 0.06,0.03 0.05,0.02 0.06,0.04 0.05,0.03 0.05,0.04 0.05,0.04 0.04,0.05 0.04,0.05 0.01,0.02 0.02,0.03 0.02,0.03 0.01,0.03 0.02,0.03 0.01,0.04 0.01,0.03 0.01,0.03 0.01,0.04 0.01,0.04 0,0.04 0.01,0.04 0,0.04 0.01,0.04 0,0.05 0,0.04 c 0,1 -0.9,1 -1.74,1 h -26.95 c -0.85,0 -1.75,0 -1.75,-1 0,-0.99 0.9,-0.99 1.75,-0.99 z"
             id="path5876"
             style="fill:#000000;stroke-width:0" /><path
             d="m 497.54,439.46 -0.25,-0.2 -0.24,-0.19 -0.24,-0.2 -0.23,-0.19 -0.22,-0.2 -0.21,-0.19 -0.21,-0.19 -0.2,-0.18 -0.19,-0.19 -0.18,-0.18 -0.17,-0.18 -0.17,-0.18 -0.16,-0.17 -0.16,-0.17 -0.14,-0.16 -0.14,-0.17 -0.14,-0.15 -0.12,-0.16 -0.12,-0.15 -0.12,-0.14 -0.1,-0.14 -0.1,-0.13 -0.1,-0.13 -0.08,-0.12 -0.09,-0.11 -0.07,-0.11 -0.07,-0.1 -0.06,-0.1 -0.06,-0.09 -0.05,-0.08 -0.05,-0.07 -0.04,-0.06 c -2.24,-3.44 -2.64,-6.58 -2.64,-6.63 0,-0.6 0.6,-0.6 1,-0.6 0.85,0 0.89,0.1 1.09,1 1.15,4.88 4.09,9.07 9.72,11.35 0.59,0.2 0.74,0.31 0.74,0.65 0,0.35 -0.29,0.5 -0.4,0.55 -2.19,0.85 -8.21,3.34 -10.11,11.71 -0.15,0.59 -0.19,0.74 -1.04,0.74 -0.4,0 -1,0 -1,-0.59 0,-0.1 0.45,-3.24 2.54,-6.58 1,-1.49 2.44,-3.24 4.58,-4.83 h -37.01 c -0.89,0 -1.79,0 -1.79,-1 0,-0.99 0.9,-0.99 1.79,-0.99 z"
             id="path5878"
             style="fill:#000000;stroke-width:0" /><path
             d="m 491.21,424.98 0.01,0.03 0.01,0.03 0.01,0.03 0.01,0.03 0.01,0.06 0.02,0.05 0.01,0.06 0.01,0.04 0.02,0.05 0.01,0.04 0.01,0.04 0.01,0.04 0,0.04 0.01,0.04 0.01,0.03 0,0.03 0.01,0.03 0.01,0.03 0,0.03 0,0.03 0.01,0.03 0,0.02 0,0.06 0.01,0.05 0,0.05 0,0.05 0,0.03 0,0.03 0,0.03 0,0.03 c 0,0.9 -0.7,1.35 -1.45,1.35 -0.5,0 -1.29,-0.3 -1.74,-1.05 -0.1,-0.24 -0.5,-1.79 -0.7,-2.69 -0.34,-1.29 -0.7,-2.64 -0.99,-3.98 l -2.24,-8.97 c -0.2,-0.74 -2.34,-4.23 -5.63,-4.23 -2.54,0 -3.09,2.19 -3.09,4.03 0,2.3 0.84,5.38 2.54,9.77 0.8,2.04 1,2.59 1,3.58 0,2.25 -1.6,4.09 -4.09,4.09 -4.73,0 -6.57,-7.23 -6.57,-7.67 0,-0.5 0.49,-0.5 0.59,-0.5 0.5,0 0.55,0.1 0.8,0.9 1.34,4.68 3.34,6.17 5.03,6.17 0.4,0 1.25,0 1.25,-1.59 0,-1.25 -0.5,-2.54 -0.85,-3.49 -1.99,-5.28 -2.89,-8.12 -2.89,-10.46 0,-4.43 3.14,-5.93 6.08,-5.93 1.94,0 3.63,0.85 5.03,2.25 -0.65,-2.6 -1.25,-5.04 -3.24,-7.68 -1.29,-1.69 -3.19,-3.14 -5.48,-3.14 -0.7,0 -2.94,0.16 -3.79,2.1 0.8,0 1.45,0 2.15,0.59 0.49,0.45 0.99,1.1 0.99,2.05 0,1.54 -1.34,1.74 -1.84,1.74 -1.15,0 -2.79,-0.8 -2.79,-3.24 0,-2.49 2.19,-4.33 5.28,-4.33 5.13,0 10.26,4.53 11.66,10.16 z"
             id="path5880"
             style="fill:#000000;stroke-width:0" /></g>      </g>
      <g
         id="g5938"
         transform="matrix(0.20239407,0.11685227,-0.11685227,0.20239407,316.21182,200.90578)">
        <g
           word-spacing="normal"
           letter-spacing="normal"
           font-size-adjust="none"
           font-stretch="normal"
           font-weight="normal"
           font-variant="normal"
           font-style="normal"
           fill-rule="even-odd"
           stroke-miterlimit="10.433"
           xml:space="preserve"
           transform="matrix(1.0629921,0,0,-1.0629921,-186.02362,789.27165)"
           id="g5940"
           style="font-style:normal;font-variant:normal;font-weight:normal;font-stretch:normal;letter-spacing:normal;word-spacing:normal;text-anchor:start;fill:none;stroke:#000000;stroke-width:4.27890682;stroke-linecap:butt;stroke-linejoin:miter;stroke-miterlimit:10.43299961;stroke-opacity:1;stroke-dasharray:none;stroke-dashoffset:0"><path
             id="path5942"
             d="m 488.83,439.46 0.16,0 0.16,0 0.15,0 0.08,0.01 0.08,0 0.07,0.01 0.08,0.01 0.07,0.01 0.07,0.01 0.07,0.01 0.07,0.02 0.06,0.02 0.07,0.02 0.06,0.03 0.05,0.02 0.06,0.04 0.05,0.03 0.05,0.04 0.05,0.04 0.04,0.05 0.04,0.05 0.01,0.02 0.02,0.03 0.02,0.03 0.01,0.03 0.02,0.03 0.01,0.04 0.01,0.03 0.01,0.03 0.01,0.04 0.01,0.04 0,0.04 0.01,0.04 0,0.04 0.01,0.04 0,0.05 0,0.04 c 0,1 -0.9,1 -1.74,1 h -26.95 c -0.85,0 -1.75,0 -1.75,-1 0,-0.99 0.9,-0.99 1.75,-0.99 z"
             style="fill:#000000;stroke-width:0" /><path
             id="path5944"
             d="m 497.54,439.46 -0.25,-0.2 -0.24,-0.19 -0.24,-0.2 -0.23,-0.19 -0.22,-0.2 -0.21,-0.19 -0.21,-0.19 -0.2,-0.18 -0.19,-0.19 -0.18,-0.18 -0.17,-0.18 -0.17,-0.18 -0.16,-0.17 -0.16,-0.17 -0.14,-0.16 -0.14,-0.17 -0.14,-0.15 -0.12,-0.16 -0.12,-0.15 -0.12,-0.14 -0.1,-0.14 -0.1,-0.13 -0.1,-0.13 -0.08,-0.12 -0.09,-0.11 -0.07,-0.11 -0.07,-0.1 -0.06,-0.1 -0.06,-0.09 -0.05,-0.08 -0.05,-0.07 -0.04,-0.06 c -2.24,-3.44 -2.64,-6.58 -2.64,-6.63 0,-0.6 0.6,-0.6 1,-0.6 0.85,0 0.89,0.1 1.09,1 1.15,4.88 4.09,9.07 9.72,11.35 0.59,0.2 0.74,0.31 0.74,0.65 0,0.35 -0.29,0.5 -0.4,0.55 -2.19,0.85 -8.21,3.34 -10.11,11.71 -0.15,0.59 -0.19,0.74 -1.04,0.74 -0.4,0 -1,0 -1,-0.59 0,-0.1 0.45,-3.24 2.54,-6.58 1,-1.49 2.44,-3.24 4.58,-4.83 h -37.01 c -0.89,0 -1.79,0 -1.79,-1 0,-0.99 0.9,-0.99 1.79,-0.99 z"
             style="fill:#000000;stroke-width:0" /><path
             id="path5946"
             d="m 474.62,410.13 0.25,0.27 0.25,0.26 0.23,0.24 0.23,0.24 0.22,0.23 0.22,0.23 0.21,0.21 0.2,0.21 0.2,0.2 0.2,0.2 0.19,0.19 0.19,0.18 0.18,0.18 0.18,0.17 0.36,0.34 0.34,0.32 0.33,0.3 0.33,0.29 0.32,0.29 0.64,0.56 0.33,0.29 0.33,0.28 c 0,0.05 3.09,2.69 4.88,4.49 4.74,4.63 5.83,7.02 5.83,7.22 0,0.5 -0.45,0.5 -0.55,0.5 -0.34,0 -0.5,-0.1 -0.74,-0.55 -1.5,-2.39 -2.54,-3.19 -3.74,-3.19 -1.19,0 -1.79,0.75 -2.54,1.6 -0.94,1.14 -1.79,2.14 -3.44,2.14 -3.73,0 -6.02,-4.64 -6.02,-5.68 0,-0.25 0.15,-0.55 0.59,-0.55 0.45,0 0.55,0.25 0.65,0.55 0.95,2.29 3.84,2.34 4.24,2.34 1.04,0 1.99,-0.35 3.13,-0.75 2,-0.75 2.55,-0.75 3.84,-0.75 -1.79,-2.14 -5.98,-5.72 -6.92,-6.52 l -4.49,-4.18 c -3.38,-3.34 -5.13,-6.18 -5.13,-6.53 0,-0.5 0.5,-0.5 0.6,-0.5 0.4,0 0.5,0.1 0.8,0.65 1.14,1.74 2.64,3.09 4.23,3.09 1.15,0 1.64,-0.45 2.89,-1.89 0.85,-1.05 1.74,-1.85 3.19,-1.85 4.93,0 7.82,6.33 7.82,7.67 0,0.25 -0.2,0.5 -0.6,0.5 -0.45,0 -0.55,-0.3 -0.69,-0.65 -1.15,-3.24 -4.34,-4.18 -5.99,-4.18 -0.99,0 -1.89,0.3 -2.93,0.65 -1.7,0.65 -2.44,0.85 -3.49,0.85 -0.1,0 -0.9,0 -1.35,-0.16 z"
             style="fill:#000000;stroke-width:0" /></g>      </g>
      <g
         id="g6014"
         transform="matrix(0.202815,0.1170953,-0.1170953,0.202815,75.556113,-59.531438)">
        <g
           id="g6016"
           transform="matrix(1.0629921,0,0,-1.0629921,-186.02362,789.27165)"
           xml:space="preserve"
           stroke-miterlimit="10.433"
           fill-rule="even-odd"
           font-style="normal"
           font-variant="normal"
           font-weight="normal"
           font-stretch="normal"
           font-size-adjust="none"
           letter-spacing="normal"
           word-spacing="normal"
           style="font-style:normal;font-variant:normal;font-weight:normal;font-stretch:normal;letter-spacing:normal;word-spacing:normal;text-anchor:start;fill:none;stroke:#000000;stroke-width:4.27002621;stroke-linecap:butt;stroke-linejoin:miter;stroke-miterlimit:10.43299961;stroke-opacity:1;stroke-dasharray:none;stroke-dashoffset:0"><path
             d="m 488.83,439.46 0.16,0 0.16,0 0.15,0 0.08,0.01 0.08,0 0.07,0.01 0.08,0.01 0.07,0.01 0.07,0.01 0.07,0.01 0.07,0.02 0.06,0.02 0.07,0.02 0.06,0.03 0.05,0.02 0.06,0.04 0.05,0.03 0.05,0.04 0.05,0.04 0.04,0.05 0.04,0.05 0.01,0.02 0.02,0.03 0.02,0.03 0.01,0.03 0.02,0.03 0.01,0.04 0.01,0.03 0.01,0.03 0.01,0.04 0.01,0.04 0,0.04 0.01,0.04 0,0.04 0.01,0.04 0,0.05 0,0.04 c 0,1 -0.9,1 -1.74,1 h -26.95 c -0.85,0 -1.75,0 -1.75,-1 0,-0.99 0.9,-0.99 1.75,-0.99 z"
             id="path6018"
             style="fill:#000000;stroke-width:0" /><path
             d="m 497.54,439.46 -0.25,-0.2 -0.24,-0.19 -0.24,-0.2 -0.23,-0.19 -0.22,-0.2 -0.21,-0.19 -0.21,-0.19 -0.2,-0.18 -0.19,-0.19 -0.18,-0.18 -0.17,-0.18 -0.17,-0.18 -0.16,-0.17 -0.16,-0.17 -0.14,-0.16 -0.14,-0.17 -0.14,-0.15 -0.12,-0.16 -0.12,-0.15 -0.12,-0.14 -0.1,-0.14 -0.1,-0.13 -0.1,-0.13 -0.08,-0.12 -0.09,-0.11 -0.07,-0.11 -0.07,-0.1 -0.06,-0.1 -0.06,-0.09 -0.05,-0.08 -0.05,-0.07 -0.04,-0.06 c -2.24,-3.44 -2.64,-6.58 -2.64,-6.63 0,-0.6 0.6,-0.6 1,-0.6 0.85,0 0.89,0.1 1.09,1 1.15,4.88 4.09,9.07 9.72,11.35 0.59,0.2 0.74,0.31 0.74,0.65 0,0.35 -0.29,0.5 -0.4,0.55 -2.19,0.85 -8.21,3.34 -10.11,11.71 -0.15,0.59 -0.19,0.74 -1.04,0.74 -0.4,0 -1,0 -1,-0.59 0,-0.1 0.45,-3.24 2.54,-6.58 1,-1.49 2.44,-3.24 4.58,-4.83 h -37.01 c -0.89,0 -1.79,0 -1.79,-1 0,-0.99 0.9,-0.99 1.79,-0.99 z"
             id="path6020"
             style="fill:#000000;stroke-width:0" /><path
             d="m 483.43,408.79 0.06,-0.19 0.06,-0.19 0.07,-0.18 0.07,-0.17 0.09,-0.17 0.08,-0.17 0.1,-0.16 0.1,-0.15 0.1,-0.15 0.11,-0.15 0.12,-0.14 0.12,-0.13 0.13,-0.13 0.13,-0.13 0.14,-0.11 0.14,-0.12 0.15,-0.1 0.15,-0.1 0.16,-0.09 0.16,-0.09 0.16,-0.08 0.17,-0.07 0.17,-0.07 0.18,-0.06 0.18,-0.06 0.18,-0.04 0.19,-0.04 0.18,-0.04 0.2,-0.02 0.19,-0.02 0.2,-0.01 0.2,-0.01 c 1.74,0 2.89,1.15 3.68,2.74 0.85,1.79 1.5,4.83 1.5,4.93 0,0.5 -0.45,0.5 -0.6,0.5 -0.5,0 -0.55,-0.2 -0.7,-0.89 -0.7,-2.8 -1.64,-6.18 -3.73,-6.18 -1.05,0 -1.55,0.65 -1.55,2.29 0,1.09 0.6,3.44 1,5.18 l 1.39,5.38 c 0.16,0.75 0.65,2.64 0.85,3.39 0.25,1.14 0.75,3.03 0.75,3.33 0,0.9 -0.7,1.35 -1.44,1.35 -0.25,0 -1.55,-0.05 -1.95,-1.74 -0.95,-3.64 -3.14,-12.36 -3.73,-15 -0.05,-0.2 -2.05,-4.18 -5.68,-4.18 -2.59,0 -3.09,2.24 -3.09,4.08 0,2.79 1.39,6.73 2.69,10.16 0.6,1.5 0.85,2.19 0.85,3.14 0,2.25 -1.6,4.09 -4.09,4.09 -4.73,0 -6.57,-7.23 -6.57,-7.67 0,-0.5 0.49,-0.5 0.59,-0.5 0.5,0 0.55,0.1 0.8,0.9 1.25,4.33 3.14,6.17 5.03,6.17 0.45,0 1.25,-0.05 1.25,-1.64 0,-1.2 -0.55,-2.64 -0.85,-3.39 -1.84,-4.93 -2.89,-8.02 -2.89,-10.46 0,-4.73 3.44,-5.98 6.13,-5.98 3.28,0 5.08,2.25 5.92,3.34 z"
             id="path6022"
             style="fill:#000000;stroke-width:0" /></g>      </g>
      <g
         id="g6100"
         transform="matrix(0.20297772,0.11718924,-0.11718924,0.20297772,18.192699,182.37796)">
        <g
           word-spacing="normal"
           letter-spacing="normal"
           font-size-adjust="none"
           font-stretch="normal"
           font-weight="normal"
           font-variant="normal"
           font-style="normal"
           fill-rule="even-odd"
           stroke-miterlimit="10.433"
           xml:space="preserve"
           transform="matrix(1.0629921,0,0,-1.0629921,-186.02362,789.27165)"
           id="g6102"
           style="font-style:normal;font-variant:normal;font-weight:normal;font-stretch:normal;letter-spacing:normal;word-spacing:normal;text-anchor:start;fill:none;stroke:#000000;stroke-width:4.26660347;stroke-linecap:butt;stroke-linejoin:miter;stroke-miterlimit:10.43299961;stroke-opacity:1;stroke-dasharray:none;stroke-dashoffset:0"><path
             id="path6104"
             d="m 488.83,439.46 0.16,0 0.16,0 0.15,0 0.08,0.01 0.08,0 0.07,0.01 0.08,0.01 0.07,0.01 0.07,0.01 0.07,0.01 0.07,0.02 0.06,0.02 0.07,0.02 0.06,0.03 0.05,0.02 0.06,0.04 0.05,0.03 0.05,0.04 0.05,0.04 0.04,0.05 0.04,0.05 0.01,0.02 0.02,0.03 0.02,0.03 0.01,0.03 0.02,0.03 0.01,0.04 0.01,0.03 0.01,0.03 0.01,0.04 0.01,0.04 0,0.04 0.01,0.04 0,0.04 0.01,0.04 0,0.05 0,0.04 c 0,1 -0.9,1 -1.74,1 h -26.95 c -0.85,0 -1.75,0 -1.75,-1 0,-0.99 0.9,-0.99 1.75,-0.99 z"
             style="fill:#000000;stroke-width:0" /><path
             id="path6106"
             d="m 497.54,439.46 -0.25,-0.2 -0.24,-0.19 -0.24,-0.2 -0.23,-0.19 -0.22,-0.2 -0.21,-0.19 -0.21,-0.19 -0.2,-0.18 -0.19,-0.19 -0.18,-0.18 -0.17,-0.18 -0.17,-0.18 -0.16,-0.17 -0.16,-0.17 -0.14,-0.16 -0.14,-0.17 -0.14,-0.15 -0.12,-0.16 -0.12,-0.15 -0.12,-0.14 -0.1,-0.14 -0.1,-0.13 -0.1,-0.13 -0.08,-0.12 -0.09,-0.11 -0.07,-0.11 -0.07,-0.1 -0.06,-0.1 -0.06,-0.09 -0.05,-0.08 -0.05,-0.07 -0.04,-0.06 c -2.24,-3.44 -2.64,-6.58 -2.64,-6.63 0,-0.6 0.6,-0.6 1,-0.6 0.85,0 0.89,0.1 1.09,1 1.15,4.88 4.09,9.07 9.72,11.35 0.59,0.2 0.74,0.31 0.74,0.65 0,0.35 -0.29,0.5 -0.4,0.55 -2.19,0.85 -8.21,3.34 -10.11,11.71 -0.15,0.59 -0.19,0.74 -1.04,0.74 -0.4,0 -1,0 -1,-0.59 0,-0.1 0.45,-3.24 2.54,-6.58 1,-1.49 2.44,-3.24 4.58,-4.83 h -37.01 c -0.89,0 -1.79,0 -1.79,-1 0,-0.99 0.9,-0.99 1.79,-0.99 z"
             style="fill:#000000;stroke-width:0" /><path
             id="path6108"
             d="m 491.31,424.53 0,0.13 0,0.12 -0.01,0.12 0,0.11 -0.01,0.12 -0.01,0.11 -0.01,0.11 -0.02,0.1 -0.03,0.21 -0.03,0.19 -0.05,0.18 -0.04,0.18 -0.06,0.16 -0.06,0.16 -0.06,0.15 -0.07,0.13 -0.07,0.13 -0.07,0.12 -0.08,0.12 -0.08,0.1 -0.08,0.1 -0.09,0.09 -0.08,0.08 -0.09,0.07 -0.09,0.07 -0.09,0.06 -0.1,0.05 -0.09,0.05 -0.09,0.04 -0.09,0.03 -0.1,0.03 -0.09,0.03 -0.09,0.01 -0.09,0.02 -0.08,0 -0.09,0.01 c -1.24,0 -2.44,-1.3 -2.44,-2.4 0,-0.64 0.25,-0.94 0.8,-1.49 1.04,-0.99 1.69,-2.29 1.69,-4.08 0,-2.09 -3.04,-13.5 -8.87,-13.5 -2.54,0 -3.68,1.74 -3.68,4.33 0,2.79 1.34,6.43 2.89,10.56 0.35,0.85 0.6,1.54 0.6,2.49 0,2.25 -1.6,4.09 -4.09,4.09 -4.68,0 -6.57,-7.23 -6.57,-7.67 0,-0.5 0.49,-0.5 0.59,-0.5 0.5,0 0.55,0.1 0.8,0.9 1.45,5.03 3.59,6.17 5.03,6.17 0.4,0 1.25,0 1.25,-1.59 0,-1.25 -0.5,-2.59 -0.85,-3.49 -2.19,-5.78 -2.84,-8.07 -2.84,-10.21 0,-5.38 4.38,-6.18 6.68,-6.18 8.36,0 11.2,16.49 11.2,19.08 z"
             style="fill:#000000;stroke-width:0" /></g>      </g>
      <g
         id="g6196"
         transform="matrix(0.24911581,0.14382708,-0.14382708,0.24911581,30.508729,131.71993)">
        <g
           id="g6198"
           transform="matrix(1.0629921,0,0,-1.0629921,-186.02362,789.27165)"
           xml:space="preserve"
           stroke-miterlimit="10.433"
           fill-rule="even-odd"
           font-style="normal"
           font-variant="normal"
           font-weight="normal"
           font-stretch="normal"
           font-size-adjust="none"
           letter-spacing="normal"
           word-spacing="normal"
           style="font-style:normal;font-variant:normal;font-weight:normal;font-stretch:normal;letter-spacing:normal;word-spacing:normal;text-anchor:start;fill:none;stroke:#000000;stroke-width:3.4763968;stroke-linecap:butt;stroke-linejoin:miter;stroke-miterlimit:10.43299961;stroke-opacity:1;stroke-dasharray:none;stroke-dashoffset:0"><path
             d="m 476.18,437.28 0.44,0 0.43,-0.01 0.42,0 0.42,-0.02 0.4,-0.01 0.39,-0.02 0.39,-0.02 0.37,-0.03 0.36,-0.02 0.36,-0.04 0.68,-0.07 0.64,-0.08 0.61,-0.1 0.58,-0.1 0.54,-0.12 0.51,-0.13 0.47,-0.14 0.45,-0.15 0.41,-0.17 0.38,-0.17 0.36,-0.18 0.33,-0.19 0.3,-0.2 0.27,-0.21 0.25,-0.22 0.22,-0.23 0.2,-0.24 0.18,-0.24 0.15,-0.25 0.13,-0.26 0.12,-0.27 0.09,-0.27 0.07,-0.28 0.06,-0.29 0.04,-0.29 0.02,-0.3 0.01,-0.31 c 0,-3.04 -2.39,-9.01 -10.61,-9.31 -2.44,-0.1 -4.14,-1.84 -4.14,-2.39 0,-0.3 0.2,-0.3 0.25,-0.3 2.09,-0.35 3.09,-1.35 5.68,-7.22 2.29,-5.23 3.59,-7.53 6.53,-7.53 6.02,0 11.76,6.13 11.76,7.23 0,0.35 -0.4,0.35 -0.56,0.35 -0.59,0 -2.53,-0.7 -3.58,-2.15 -0.8,-1.14 -1.89,-2.69 -4.33,-2.69 -2.55,0 -4.09,3.54 -5.78,7.43 -1.05,2.48 -1.95,4.33 -3.09,5.68 7.22,2.63 12.1,7.86 12.1,13.05 0,6.22 -8.37,6.22 -15.89,6.22 -4.98,0 -7.77,0 -11.95,-1.79 -6.68,-2.94 -7.57,-7.07 -7.57,-7.47 0,-0.3 0.2,-0.4 0.49,-0.4 0.8,0 1.95,0.69 2.35,0.94 1.04,0.7 1.19,1 1.49,1.95 0.7,1.99 2.09,3.73 8.37,4.03 -0.25,-3.04 -0.7,-7.67 -2.39,-14.94 -1.35,-5.58 -3.19,-11.06 -5.38,-16.39 -0.25,-0.55 -0.25,-0.65 -0.25,-0.7 0,-0.35 0.4,-0.35 0.5,-0.35 0.99,0 3.09,1.2 3.63,2.15 0.1,0.25 6.43,14.29 7.97,30.23 z"
             id="path6200"
             style="fill:#000000;stroke-width:0" /><path
             d="m 508.11,440.46 0.03,0.05 0.02,0.05 0.02,0.06 0.03,0.05 0.02,0.04 0.02,0.05 0.01,0.04 0.02,0.05 0.01,0.04 0.02,0.04 0.01,0.04 0.01,0.04 0.02,0.03 0.01,0.04 0.01,0.03 0,0.04 0.01,0.03 0.01,0.03 0,0.03 0.01,0.03 0.01,0.03 0,0.03 0,0.02 0.01,0.03 0,0.05 0,0.05 0.01,0.05 0,0.04 c 0,1.09 -0.98,1.92 -2.06,1.92 -1.33,0 -1.75,-1.08 -1.92,-1.64 l -4.6,-15.1 c -0.04,-0.07 -0.18,-0.52 -0.18,-0.55 0,-0.42 1.08,-0.77 1.37,-0.77 0.24,0 0.27,0.07 0.52,0.59 z"
             id="path6202"
             style="fill:#000000;stroke-width:0" /></g>      </g>
      <g
         id="g6298"
         transform="matrix(0.27647784,0.15962455,-0.15962455,0.27647784,94.834849,-69.880696)">
        <g
           word-spacing="normal"
           letter-spacing="normal"
           font-size-adjust="none"
           font-stretch="normal"
           font-weight="normal"
           font-variant="normal"
           font-style="normal"
           fill-rule="even-odd"
           stroke-miterlimit="10.433"
           xml:space="preserve"
           transform="matrix(1.0629921,0,0,-1.0629921,-186.02362,789.27165)"
           id="g6300"
           style="font-style:normal;font-variant:normal;font-weight:normal;font-stretch:normal;letter-spacing:normal;word-spacing:normal;text-anchor:start;fill:none;stroke:#000000;stroke-width:3.13235021;stroke-linecap:butt;stroke-linejoin:miter;stroke-miterlimit:10.43299961;stroke-opacity:1;stroke-dasharray:none;stroke-dashoffset:0"><path
             id="path6302"
             d="m 476.18,437.28 0.44,0 0.43,-0.01 0.42,0 0.42,-0.02 0.4,-0.01 0.39,-0.02 0.39,-0.02 0.37,-0.03 0.36,-0.02 0.36,-0.04 0.68,-0.07 0.64,-0.08 0.61,-0.1 0.58,-0.1 0.54,-0.12 0.51,-0.13 0.47,-0.14 0.45,-0.15 0.41,-0.17 0.38,-0.17 0.36,-0.18 0.33,-0.19 0.3,-0.2 0.27,-0.21 0.25,-0.22 0.22,-0.23 0.2,-0.24 0.18,-0.24 0.15,-0.25 0.13,-0.26 0.12,-0.27 0.09,-0.27 0.07,-0.28 0.06,-0.29 0.04,-0.29 0.02,-0.3 0.01,-0.31 c 0,-3.04 -2.39,-9.01 -10.61,-9.31 -2.44,-0.1 -4.14,-1.84 -4.14,-2.39 0,-0.3 0.2,-0.3 0.25,-0.3 2.09,-0.35 3.09,-1.35 5.68,-7.22 2.29,-5.23 3.59,-7.53 6.53,-7.53 6.02,0 11.76,6.13 11.76,7.23 0,0.35 -0.4,0.35 -0.56,0.35 -0.59,0 -2.53,-0.7 -3.58,-2.15 -0.8,-1.14 -1.89,-2.69 -4.33,-2.69 -2.55,0 -4.09,3.54 -5.78,7.43 -1.05,2.48 -1.95,4.33 -3.09,5.68 7.22,2.63 12.1,7.86 12.1,13.05 0,6.22 -8.37,6.22 -15.89,6.22 -4.98,0 -7.77,0 -11.95,-1.79 -6.68,-2.94 -7.57,-7.07 -7.57,-7.47 0,-0.3 0.2,-0.4 0.49,-0.4 0.8,0 1.95,0.69 2.35,0.94 1.04,0.7 1.19,1 1.49,1.95 0.7,1.99 2.09,3.73 8.37,4.03 -0.25,-3.04 -0.7,-7.67 -2.39,-14.94 -1.35,-5.58 -3.19,-11.06 -5.38,-16.39 -0.25,-0.55 -0.25,-0.65 -0.25,-0.7 0,-0.35 0.4,-0.35 0.5,-0.35 0.99,0 3.09,1.2 3.63,2.15 0.1,0.25 6.43,14.29 7.97,30.23 z"
             style="fill:#000000;stroke-width:0" /></g>      </g>
      <g
         id="g6404"
         transform="matrix(0.28777844,0.16614896,-0.16614896,0.28777844,48.325799,-33.658609)">
        <g
           id="g6406"
           transform="matrix(1.0629921,0,0,-1.0629921,-186.02362,789.27165)"
           xml:space="preserve"
           stroke-miterlimit="10.433"
           fill-rule="even-odd"
           font-style="normal"
           font-variant="normal"
           font-weight="normal"
           font-stretch="normal"
           font-size-adjust="none"
           letter-spacing="normal"
           word-spacing="normal"
           style="font-style:normal;font-variant:normal;font-weight:normal;font-stretch:normal;letter-spacing:normal;word-spacing:normal;text-anchor:start;fill:none;stroke:#000000;stroke-width:3.00934768;stroke-linecap:butt;stroke-linejoin:miter;stroke-miterlimit:10.43299961;stroke-opacity:1;stroke-dasharray:none;stroke-dashoffset:0"><path
             d="m 479.76,417.76 0,0.36 -0.01,0.36 -0.02,0.34 -0.02,0.34 -0.07,0.66 -0.08,0.62 -0.12,0.6 -0.13,0.57 -0.15,0.54 -0.18,0.51 -0.19,0.48 -0.22,0.46 -0.22,0.43 -0.25,0.41 -0.26,0.38 -0.27,0.36 -0.29,0.33 -0.3,0.31 -0.3,0.29 -0.32,0.26 -0.33,0.24 -0.34,0.22 -0.34,0.2 -0.34,0.18 -0.36,0.16 -0.35,0.14 -0.36,0.13 -0.36,0.1 -0.36,0.09 -0.36,0.07 -0.36,0.05 -0.36,0.04 -0.35,0.02 -0.35,0.01 -0.05,-1.1 c 4.93,0 4.93,-6.53 4.93,-10.41 0,-1.84 0,-4.73 0.1,-5.58 h 0 c -4.38,-3.83 -8.22,-4.38 -10.21,-4.38 -2.99,0 -4.48,2.24 -4.48,5.43 0,2.44 1.29,7.82 2.89,10.36 2.34,3.64 5.03,4.58 6.77,4.58 l 0.05,1.1 c -6.82,0 -13.4,-7.13 -13.4,-14.15 0,-4.63 2.99,-8.42 8.07,-8.42 3.14,0 6.73,1.15 10.51,4.19 0.65,-2.64 2.29,-4.19 4.54,-4.19 2.64,0 4.18,2.74 4.18,3.54 0,0.35 -0.3,0.5 -0.6,0.5 -0.35,0 -0.5,-0.15 -0.65,-0.5 -0.89,-2.44 -2.68,-2.44 -2.79,-2.44 -1.54,0 -1.54,3.88 -1.54,5.08 0,1.05 0,1.14 0.5,1.74 4.68,5.88 5.73,11.66 5.73,11.71 0,0.1 -0.05,0.5 -0.6,0.5 -0.5,0 -0.5,-0.15 -0.75,-1.05 -0.89,-3.14 -2.54,-6.92 -4.88,-9.86 z"
             id="path6408"
             style="fill:#000000;stroke-width:0" /></g>      </g>
      <g
         id="g6516"
         transform="matrix(0.26780995,0.15462015,-0.15462015,0.26780995,160.33247,18.098419)">
        <g
           word-spacing="normal"
           letter-spacing="normal"
           font-size-adjust="none"
           font-stretch="normal"
           font-weight="normal"
           font-variant="normal"
           font-style="normal"
           fill-rule="even-odd"
           stroke-miterlimit="10.433"
           xml:space="preserve"
           transform="matrix(1.0629921,0,0,-1.0629921,-186.02362,789.27165)"
           id="g6518"
           style="font-style:normal;font-variant:normal;font-weight:normal;font-stretch:normal;letter-spacing:normal;word-spacing:normal;text-anchor:start;fill:none;stroke:#000000;stroke-width:3.23373127;stroke-linecap:butt;stroke-linejoin:miter;stroke-miterlimit:10.43299961;stroke-opacity:1;stroke-dasharray:none;stroke-dashoffset:0"><path
             id="path6520"
             d="m 480.71,413.82 0,0.01 0,0.02 0,0.01 -0.01,0.01 0,0.02 0,0.01 0,0.01 0,0.01 -0.01,0.01 0,0.01 -0.01,0.02 -0.01,0.02 -0.01,0.02 -0.01,0.02 -0.01,0.01 -0.01,0.02 -0.02,0.01 -0.01,0.01 -0.02,0.02 -0.01,0.01 -0.02,0.01 -0.02,0.01 -0.02,0 -0.01,0.01 -0.02,0.01 -0.02,0 -0.02,0.01 -0.03,0 -0.02,0.01 -0.02,0 -0.02,0 -0.02,0 -0.03,0.01 -0.02,0 -0.02,0 -0.05,0 c -0.85,0 -2.04,-0.75 -2.09,-0.75 -1,-0.65 -1.2,-0.99 -1.8,-1.84 -1.54,-2.34 -3.73,-4.04 -6.97,-4.04 -4.48,0 -8.52,3.24 -8.52,10.71 0,4.49 1.79,10.41 4.44,14.35 2.19,3.19 4.88,5.78 10.01,5.78 1.89,0 3.09,-0.7 3.09,-2.54 0,-1.75 -1.85,-5.28 -2.44,-6.28 -0.31,-0.55 -0.31,-0.65 -0.31,-0.75 0,-0.35 0.26,-0.35 0.56,-0.35 0.99,0 2.84,1.1 3.43,1.9 0.1,0.2 2.99,5.08 2.99,7.62 0,2.74 -2.24,3.14 -4.03,3.14 -7.23,0 -13.16,-4.73 -15.45,-7.52 -5.92,-7.18 -6.52,-14.9 -6.52,-17.49 0,-7.27 3.69,-11.31 9.46,-11.31 8.02,0 14.65,7.77 14.65,9.02 z"
             style="fill:#000000;stroke-width:0" /></g>      </g>
      <g
         id="g6762"
         transform="matrix(0.17878495,0.10322154,-0.10322154,0.17878495,128.96424,148.63626)">
        <g
           word-spacing="normal"
           letter-spacing="normal"
           font-size-adjust="none"
           font-stretch="normal"
           font-weight="normal"
           font-variant="normal"
           font-style="normal"
           fill-rule="even-odd"
           stroke-miterlimit="10.433"
           xml:space="preserve"
           transform="matrix(1.0629921,0,0,-1.0629921,-186.02362,789.27165)"
           id="g6764"
           style="font-style:normal;font-variant:normal;font-weight:normal;font-stretch:normal;letter-spacing:normal;word-spacing:normal;text-anchor:start;fill:none;stroke:#000000;stroke-width:4.84395075;stroke-linecap:butt;stroke-linejoin:miter;stroke-miterlimit:10.43299961;stroke-opacity:1;stroke-dasharray:none;stroke-dashoffset:0"><path
             id="path6766"
             d="m 471.09,421.74 0.2,1.3 3.39,13.55 c 0.45,1.74 0.55,1.89 2.69,1.89 h 4.78 c 4.14,0 6.78,-1.35 6.78,-4.78 0,-1.95 -1,-6.23 -2.94,-8.02 -2.49,-2.25 -5.48,-2.64 -7.67,-2.64 h -7.03 l -0.2,-1.3 h 8.47 c 7.08,0 14,5.18 14,10.76 0,3.84 -3.29,7.52 -9.81,7.52 h -16.14 c -0.95,0 -1.5,0 -1.5,-0.95 0,-0.59 0.45,-0.59 1.45,-0.59 0.64,0 1.54,-0.05 2.14,-0.1 0.8,-0.1 1.09,-0.25 1.09,-0.8 0,-0.2 -0.04,-0.35 -0.2,-0.94 l -6.67,-26.75 c -0.5,-1.95 -0.6,-2.35 -4.53,-2.35 -0.85,0 -1.4,0 -1.4,-0.94 0,-0.6 0.6,-0.6 0.75,-0.6 h 12.75 c 0.35,0 1,0 1,1 0,0.54 -0.45,0.54 -1.4,0.54 -1.84,0 -3.23,0 -3.23,0.9 0,0.3 0.1,0.55 0.14,0.85 z"
             style="fill:#000000;stroke-width:0" /><path
             id="path6768"
             d="m 513.28,425.93 h 4.29 c 0.99,0 1.49,0 1.49,0.99 0,0.55 -0.5,0.55 -1.34,0.55 h -4.14 l 1.04,5.68 c 0.2,1.05 0.9,4.58 1.2,5.18 0.45,0.94 1.3,1.69 2.34,1.69 0.2,0 1.5,0 2.44,-0.9 -2.19,-0.19 -2.69,-1.94 -2.69,-2.68 0,-1.15 0.9,-1.75 1.85,-1.75 1.29,0 2.74,1.1 2.74,2.99 0,2.29 -2.29,3.44 -4.34,3.44 -1.69,0 -4.83,-0.9 -6.32,-5.83 -0.3,-1.05 -0.45,-1.54 -1.65,-7.82 h -3.43 c -0.95,0 -1.5,0 -1.5,-0.95 0,-0.59 0.45,-0.59 1.4,-0.59 h 3.29 l -3.74,-19.68 c -0.9,-4.83 -1.75,-9.37 -4.33,-9.37 -0.2,0 -1.45,0 -2.4,0.9 2.29,0.15 2.74,1.94 2.74,2.69 0,1.15 -0.89,1.74 -1.84,1.74 -1.29,0 -2.74,-1.09 -2.74,-2.98 0,-2.25 2.19,-3.44 4.24,-3.44 2.73,0 4.73,2.94 5.62,4.83 1.6,3.14 2.74,9.17 2.79,9.51 z"
             style="fill:#000000;stroke-width:0" /></g>      </g>
      <g
         id="g7054"
         transform="matrix(0.17443612,0.10491591,-0.10491591,0.17443612,180.97146,158.47974)">
        <g
           word-spacing="normal"
           letter-spacing="normal"
           font-size-adjust="none"
           font-stretch="normal"
           font-weight="normal"
           font-variant="normal"
           font-style="normal"
           fill-rule="even-odd"
           stroke-miterlimit="10.433"
           xml:space="preserve"
           transform="matrix(1.0629921,0,0,-1.0629921,-186.02362,789.27165)"
           id="g7056"
           style="font-style:normal;font-variant:normal;font-weight:normal;font-stretch:normal;letter-spacing:normal;word-spacing:normal;text-anchor:start;fill:none;stroke:#000000;stroke-width:4.91263723;stroke-linecap:butt;stroke-linejoin:miter;stroke-miterlimit:10.43299961;stroke-opacity:1;stroke-dasharray:none;stroke-dashoffset:0"><path
             id="path7058"
             d="m 487.7,455.02 0,0.01 0,0 0,0.01 0,0.01 0,0.01 0,0.01 0,0.02 0,0.02 -0.01,0.02 0,0.02 -0.01,0.02 0,0.02 -0.01,0.03 -0.01,0.02 -0.01,0.03 -0.01,0.02 -0.02,0.02 -0.01,0.03 -0.02,0.02 -0.02,0.03 -0.03,0.02 -0.01,0.01 -0.01,0.01 -0.01,0.01 -0.02,0.01 -0.01,0.01 -0.02,0.01 -0.01,0.01 -0.02,0.01 -0.02,0.01 -0.02,0.01 -0.01,0.01 -0.02,0 -0.03,0.01 -0.02,0.01 -0.02,0 -0.02,0.01 -0.02,0 -0.03,0.01 -0.02,0 -0.03,0 -0.03,0.01 -0.03,0 -0.03,0 -0.03,0 c -0.74,0 -5.47,-0.45 -6.32,-0.55 -0.4,-0.05 -0.7,-0.3 -0.7,-0.95 0,-0.59 0.45,-0.59 1.2,-0.59 2.39,0 2.49,-0.35 2.49,-0.85 l -0.15,-0.99 -2.99,-11.81 c -0.9,1.84 -2.34,3.19 -4.58,3.19 l 0.05,-1.1 c 3.24,0 3.93,-4.08 3.93,-4.38 0,-0.3 -0.1,-0.6 -0.15,-0.85 l -2.49,-9.76 c -0.25,-0.9 -0.25,-1 -0.99,-1.84 -2.19,-2.75 -4.24,-3.54 -5.63,-3.54 -2.49,0 -3.19,2.74 -3.19,4.68 0,2.49 1.59,8.62 2.74,10.91 1.54,2.94 3.78,4.78 5.78,4.78 l -0.05,1.1 c -5.83,0 -12.01,-7.32 -12.01,-14.6 0,-4.68 2.74,-7.97 6.63,-7.97 0.99,0 3.49,0.2 6.47,3.74 0.4,-2.09 2.14,-3.74 4.53,-3.74 1.75,0 2.9,1.15 3.69,2.74 0.85,1.79 1.5,4.83 1.5,4.93 0,0.5 -0.45,0.5 -0.6,0.5 -0.5,0 -0.55,-0.2 -0.7,-0.89 -0.85,-3.24 -1.74,-6.18 -3.78,-6.18 -1.35,0 -1.5,1.29 -1.5,2.29 0,1.2 0.1,1.54 0.3,2.39 z"
             style="fill:#000000;stroke-width:0" /><path
             id="path7060"
             d="m 502.13,416.82 -0.01,-0.06 -0.02,-0.07 -0.02,-0.07 -0.02,-0.08 -0.02,-0.07 -0.02,-0.08 -0.04,-0.16 -0.04,-0.16 -0.04,-0.16 -0.04,-0.16 -0.02,-0.07 -0.02,-0.08 -0.02,-0.08 -0.01,-0.07 -0.02,-0.07 -0.02,-0.07 -0.01,-0.07 -0.02,-0.06 -0.01,-0.06 -0.01,-0.06 -0.01,-0.05 -0.02,-0.05 0,-0.04 -0.01,-0.04 -0.01,-0.04 0,-0.03 0,-0.02 -0.01,-0.02 c 0,-0.77 0.63,-1.12 1.19,-1.12 0.63,0 1.19,0.46 1.36,0.77 0.17,0.31 0.45,1.43 0.63,2.16 0.17,0.66 0.56,2.27 0.77,3.14 0.2,0.76 0.41,1.53 0.59,2.33 0.38,1.5 0.38,1.57 1.08,2.65 1.12,1.71 2.86,3.7 5.58,3.7 1.95,0 2.06,-1.6 2.06,-2.44 0,-2.09 -1.5,-5.96 -2.06,-7.43 -0.39,-0.97 -0.52,-1.29 -0.52,-1.88 0,-1.85 1.53,-3 3.31,-3 3.48,0 5.02,4.81 5.02,5.33 0,0.46 -0.45,0.46 -0.56,0.46 -0.49,0 -0.52,-0.21 -0.66,-0.59 -0.81,-2.79 -2.3,-4.22 -3.7,-4.22 -0.73,0 -0.87,0.49 -0.87,1.22 0,0.8 0.17,1.25 0.8,2.82 0.42,1.08 1.85,4.78 1.85,6.73 0,0.56 0,2.03 -1.29,3.04 -0.59,0.45 -1.6,0.94 -3.24,0.94 -3.14,0 -5.06,-2.06 -6.18,-3.52 -0.27,2.96 -2.75,3.52 -4.53,3.52 -2.89,0 -4.84,-1.78 -5.89,-3.18 -0.24,2.41 -2.3,3.18 -3.73,3.18 -1.5,0 -2.3,-1.08 -2.76,-1.88 -0.76,-1.3 -1.25,-3.29 -1.25,-3.46 0,-0.45 0.49,-0.45 0.59,-0.45 0.49,0 0.52,0.11 0.77,1.05 0.52,2.05 1.18,3.76 2.54,3.76 0.91,0 1.16,-0.77 1.16,-1.71 0,-0.66 -0.32,-1.95 -0.56,-2.89 -0.25,-0.94 -0.6,-2.37 -0.77,-3.14 l -1.12,-4.46 c -0.14,-0.46 -0.34,-1.33 -0.34,-1.43 0,-0.77 0.62,-1.12 1.18,-1.12 0.63,0 1.19,0.46 1.36,0.77 0.17,0.31 0.45,1.43 0.63,2.16 0.17,0.66 0.56,2.27 0.76,3.14 0.21,0.76 0.43,1.53 0.6,2.33 0.38,1.43 0.45,1.71 1.46,3.14 0.98,1.4 2.62,3.21 5.23,3.21 2.03,0 2.06,-1.78 2.06,-2.44 0,-0.87 -0.1,-1.32 -0.59,-3.28 z"
             style="fill:#000000;stroke-width:0" /><path
             id="path7062"
             d="m 541.52,423.27 -0.01,0.36 -0.03,0.35 -0.04,0.34 -0.06,0.33 -0.07,0.32 -0.08,0.3 -0.1,0.3 -0.12,0.29 -0.13,0.28 -0.14,0.26 -0.15,0.26 -0.17,0.25 -0.18,0.23 -0.19,0.22 -0.2,0.22 -0.21,0.2 -0.22,0.19 -0.23,0.18 -0.24,0.16 -0.25,0.16 -0.25,0.14 -0.27,0.13 -0.27,0.12 -0.28,0.11 -0.28,0.09 -0.3,0.09 -0.29,0.07 -0.3,0.06 -0.31,0.04 -0.31,0.03 -0.32,0.02 -0.32,0.01 -0.03,-0.98 c 1.88,0 3.49,-1.29 3.49,-3.87 0,-0.83 -0.42,-4.29 -1.96,-6.73 -1.32,-2.06 -3.42,-3.17 -5.16,-3.17 h 0 c -1.74,0 -3.49,1.11 -3.49,3.87 0,1.43 0.67,4.84 2.03,6.83 1.5,2.17 3.52,3.07 5.09,3.07 l 0.03,0.98 c -5.16,0 -10.04,-4.85 -10.04,-9.63 0,-3.48 2.55,-6.1 6.35,-6.1 4.99,0 10.01,4.6 10.01,9.62 z"
             style="fill:#000000;stroke-width:0" /><path
             id="path7064"
             d="m 562.39,427.14 0,0.03 0.01,0.02 0.01,0.02 0,0.02 0.01,0.02 0,0.02 0.01,0.04 0.01,0.04 0.01,0.03 0.01,0.03 0.01,0.03 0.01,0.03 0,0.03 0.01,0.02 0,0.03 0.01,0.02 0,0.02 0.01,0.02 0,0.02 0,0.02 0.01,0.02 0,0.02 0,0.02 0,0.03 0,0.03 0.01,0.04 0,0.03 0,0.02 0,0.02 0,0.01 0,0.02 c 0,0.7 -0.56,1.12 -1.15,1.12 -0.39,0 -1.05,-0.17 -1.43,-0.84 -0.11,-0.21 -0.39,-1.32 -0.56,-2.02 l -0.73,-2.9 c -0.21,-0.83 -1.29,-5.23 -1.4,-5.61 -0.03,0 -1.57,-3.03 -4.29,-3.03 -2.37,0 -2.37,2.26 -2.37,2.89 0,1.89 0.8,4.08 1.85,6.77 0.42,1.11 0.59,1.53 0.59,2.12 0,1.68 -1.43,2.97 -3.31,2.97 -3.52,0 -5.09,-4.74 -5.09,-5.34 0,-0.45 0.49,-0.45 0.59,-0.45 0.49,0 0.52,0.17 0.63,0.56 0.87,2.89 2.37,4.25 3.76,4.25 0.6,0 0.88,-0.38 0.88,-1.22 0,-0.8 -0.32,-1.57 -0.49,-2.02 -1.67,-4.26 -2.03,-5.55 -2.03,-7.08 0,-0.59 0,-2.23 1.37,-3.35 1.08,-0.91 2.54,-1.08 3.48,-1.08 1.4,0 2.65,0.53 3.8,1.57 -0.45,-1.92 -0.83,-3.38 -2.3,-5.13 -0.94,-1.07 -2.33,-2.23 -4.18,-2.23 -0.25,0 -1.88,0 -2.62,1.16 1.88,0.2 1.88,1.88 1.88,1.91 0,1.12 -1,1.33 -1.36,1.33 -0.87,0 -2.02,-0.7 -2.02,-2.3 0,-1.78 1.68,-3.07 4.15,-3.07 3.52,0 7.81,2.72 8.89,7.07 z"
             style="fill:#000000;stroke-width:0" /><polyline
             id="polyline7066"
             points="462,399 567,399 567,401.04 462,401.04 "
             style="fill:#000000;fill-rule:nonzero;stroke-width:0" /><path
             id="path7068"
             d="m 507.33,357.84 5.27,5.12 c 7.78,6.88 10.77,9.57 10.77,14.55 0,5.68 -4.49,9.67 -10.57,9.67 -5.62,0 -9.31,-4.59 -9.31,-9.02 0,-2.79 2.49,-2.79 2.64,-2.79 0.85,0 2.59,0.6 2.59,2.64 0,1.29 -0.9,2.59 -2.64,2.59 -0.4,0 -0.5,0 -0.65,-0.05 1.15,3.24 3.84,5.08 6.73,5.08 4.53,0 6.67,-4.03 6.67,-8.12 0,-3.98 -2.49,-7.92 -5.23,-11.01 l -9.56,-10.66 c -0.55,-0.54 -0.55,-0.64 -0.55,-1.84 h 18.48 l 1.4,8.67 h -1.25 c -0.25,-1.5 -0.6,-3.69 -1.1,-4.44 -0.34,-0.39 -3.63,-0.39 -4.73,-0.39 z"
             style="fill:#000000;stroke-width:0" /></g>      </g>
      <g
         id="g7228"
         transform="matrix(0.15990833,0.09232299,-0.09232299,0.15990833,227.26338,143.36154)">
        <g
           id="g7230"
           transform="matrix(1.0629921,0,0,-1.0629921,-186.02362,789.27165)"
           xml:space="preserve"
           stroke-miterlimit="10.433"
           fill-rule="even-odd"
           font-style="normal"
           font-variant="normal"
           font-weight="normal"
           font-stretch="normal"
           font-size-adjust="none"
           letter-spacing="normal"
           word-spacing="normal"
           style="font-style:normal;font-variant:normal;font-weight:normal;font-stretch:normal;letter-spacing:normal;word-spacing:normal;text-anchor:start;fill:none;stroke:#000000;stroke-width:5.41576338;stroke-linecap:butt;stroke-linejoin:miter;stroke-miterlimit:10.43299961;stroke-opacity:1;stroke-dasharray:none;stroke-dashoffset:0"><path
             d="m 487.7,455.02 0,0.01 0,0 0,0.01 0,0.01 0,0.01 0,0.01 0,0.02 0,0.02 -0.01,0.02 0,0.02 -0.01,0.02 0,0.02 -0.01,0.03 -0.01,0.02 -0.01,0.03 -0.01,0.02 -0.02,0.02 -0.01,0.03 -0.02,0.02 -0.02,0.03 -0.03,0.02 -0.01,0.01 -0.01,0.01 -0.01,0.01 -0.02,0.01 -0.01,0.01 -0.02,0.01 -0.01,0.01 -0.02,0.01 -0.02,0.01 -0.02,0.01 -0.01,0.01 -0.02,0 -0.03,0.01 -0.02,0.01 -0.02,0 -0.02,0.01 -0.02,0 -0.03,0.01 -0.02,0 -0.03,0 -0.03,0.01 -0.03,0 -0.03,0 -0.03,0 c -0.74,0 -5.47,-0.45 -6.32,-0.55 -0.4,-0.05 -0.7,-0.3 -0.7,-0.95 0,-0.59 0.45,-0.59 1.2,-0.59 2.39,0 2.49,-0.35 2.49,-0.85 l -0.15,-0.99 -2.99,-11.81 c -0.9,1.84 -2.34,3.19 -4.58,3.19 l 0.05,-1.1 c 3.24,0 3.93,-4.08 3.93,-4.38 0,-0.3 -0.1,-0.6 -0.15,-0.85 l -2.49,-9.76 c -0.25,-0.9 -0.25,-1 -0.99,-1.84 -2.19,-2.75 -4.24,-3.54 -5.63,-3.54 -2.49,0 -3.19,2.74 -3.19,4.68 0,2.49 1.59,8.62 2.74,10.91 1.54,2.94 3.78,4.78 5.78,4.78 l -0.05,1.1 c -5.83,0 -12.01,-7.32 -12.01,-14.6 0,-4.68 2.74,-7.97 6.63,-7.97 0.99,0 3.49,0.2 6.47,3.74 0.4,-2.09 2.14,-3.74 4.53,-3.74 1.75,0 2.9,1.15 3.69,2.74 0.85,1.79 1.5,4.83 1.5,4.93 0,0.5 -0.45,0.5 -0.6,0.5 -0.5,0 -0.55,-0.2 -0.7,-0.89 -0.85,-3.24 -1.74,-6.18 -3.78,-6.18 -1.35,0 -1.5,1.29 -1.5,2.29 0,1.2 0.1,1.54 0.3,2.39 z"
             id="path7232"
             style="fill:#000000;stroke-width:0" /><polyline
             points="462,399 488.04,399 488.04,401.04 462,401.04 "
             id="polyline7234"
             style="fill:#000000;fill-rule:nonzero;stroke-width:0" /><path
             d="m 468.33,357.84 5.28,5.12 c 7.77,6.88 10.76,9.57 10.76,14.55 0,5.68 -4.49,9.67 -10.57,9.67 -5.62,0 -9.31,-4.59 -9.31,-9.02 0,-2.79 2.49,-2.79 2.64,-2.79 0.85,0 2.59,0.6 2.59,2.64 0,1.29 -0.9,2.59 -2.64,2.59 -0.4,0 -0.5,0 -0.65,-0.05 1.15,3.24 3.84,5.08 6.73,5.08 4.53,0 6.67,-4.03 6.67,-8.12 0,-3.98 -2.49,-7.92 -5.23,-11.01 l -9.56,-10.66 c -0.55,-0.54 -0.55,-0.64 -0.55,-1.84 h 18.48 l 1.4,8.67 h -1.25 c -0.25,-1.5 -0.6,-3.69 -1.1,-4.44 -0.34,-0.39 -3.63,-0.39 -4.73,-0.39 z"
             id="path7236"
             style="fill:#000000;stroke-width:0" /></g>      </g>
      <g
         id="g7406"
         transform="translate(24.613926,-104.84151)">
        <g
           word-spacing="normal"
           letter-spacing="normal"
           font-size-adjust="none"
           font-stretch="normal"
           font-weight="normal"
           font-variant="normal"
           font-style="normal"
           fill-rule="even-odd"
           stroke-miterlimit="10.433"
           xml:space="preserve"
           transform="matrix(1.0629921,0,0,-1.0629921,-186.02362,789.27165)"
           id="g7408"
           style="font-style:normal;font-variant:normal;font-weight:normal;font-stretch:normal;letter-spacing:normal;word-spacing:normal;text-anchor:start;fill:none;stroke:#000000;stroke-linecap:butt;stroke-linejoin:miter;stroke-miterlimit:10.43299961;stroke-opacity:1;stroke-dasharray:none;stroke-dashoffset:0"><g
             id="g8848"
             transform="matrix(0.27854163,0,0,0.27854163,258.7338,346.22294)"
             style="stroke-width:3.59012771"><path
               style="fill:#000000;stroke-width:0"
               d="m 472.90131,470.23154 0.015,0.026 0.015,0.026 -0.004,0.0137 0.01,0.0173 0.005,0.009 10e-4,0.0223 0.01,0.0173 -0.004,0.0137 10e-4,0.0223 10e-4,0.0223 0.006,0.031 10e-4,0.0223 -0.007,0.0273 -0.002,0.036 -0.002,0.036 -0.002,0.036 -0.011,0.041 -0.006,0.0496 10e-4,0.0223 -0.007,0.0273 -0.007,0.0273 -0.007,0.0273 -0.007,0.0273 -0.002,0.036 -0.007,0.0273 -0.007,0.0273 -0.002,0.036 -0.016,0.0323 -0.002,0.036 -0.011,0.041 -0.002,0.036 -0.011,0.041 -0.011,0.041 -0.011,0.041 -0.011,0.041 -0.011,0.041 -0.0146,0.0546 -0.011,0.041 -0.0147,0.0546 -0.011,0.041 -0.0146,0.0546 -0.0146,0.0546 c -2.25534,8.55364 1.07268,17.49794 4.88268,24.09705 4.335,7.50844 10.30679,14.07188 18.73053,16.40222 0.85791,0.18596 0.90791,0.27256 0.98291,0.40246 0.175,0.30311 0.0768,0.53302 -0.18301,0.68302 -0.43301,0.25 -6.00781,-0.44583 -11.71892,-4.45777 -4.9347,-3.46716 -8.21932,-7.95628 -10.31432,-11.58493 -1.94,-3.36018 -4.47869,-8.85731 -4.92078,-15.10303 -0.47058,-6.79508 1.61601,-11.741 2.04902,-11.991 0.25981,-0.15 0.50801,-0.1201 0.67801,0.17435 z"
               id="path7410" /><path
               style="fill:#000000;stroke-width:0"
               d="m 489.85386,474.25421 1.5865,2.24791 c 11.86903,9.19775 17.10835,16.17253 20.69591,21.00636 2.89253,-1.67 13.93435,-8.045 8.45435,-17.53664 -4.88,-8.45241 -16.37638,-10.84472 -26.82065,-4.81472 l -2.32961,1.345 -1.5865,-2.24791 c 10.05455,-5.805 28.68371,-6.31836 35.47871,5.45093 2.22,3.84515 1.805,7.30636 0.45324,9.86504 -2.31159,4.55621 -6.27798,6.84621 -10.38294,9.21621 -3.70659,2.14 -6.25271,3.61 -10.76769,4.14981 -7.21175,0.76889 -10.09082,-2.33779 -10.29082,-2.6842 -0.15,-0.25981 -0.0268,-0.44642 0.22436,-0.59142 0.69282,-0.4 2.03375,-0.37744 2.50516,-0.36093 1.25066,0.0862 1.53057,0.27102 2.26537,0.94375 1.60122,1.37339 3.675,2.18527 9.26364,-0.69492 -5.89782,-8.61532 -12.85253,-15.58123 -20.2263,-21.39297 -1.92714,0.36209 -3.52771,-0.0302 -3.77771,-0.4632 -0.15,-0.2598 -0.14036,-0.3231 0.81227,-0.8731 z"
               id="path7412" /><path
               style="fill:#000000;stroke-width:0"
               d="m 524.47657,454.32251 0.155,0.26847 0.13634,0.25614 0.12768,0.26115 0.12268,0.25249 0.10036,0.25382 0.10402,0.24017 0.0867,0.25017 0.0767,0.23284 0.068,0.23785 0.0544,0.23419 0.0494,0.22552 0.0444,0.21687 0.0221,0.2182 0.0171,0.20955 0.0121,0.20088 0.003,0.20589 -0.0153,0.19356 -0.0203,0.1849 -0.0289,0.18991 -0.0389,0.17258 -0.0476,0.17758 -0.0576,0.16027 -0.0712,0.1566 -0.0799,0.1616 -0.0899,0.14428 -0.0949,0.13563 -0.10857,0.13196 -0.11356,0.1233 -0.12723,0.11964 -0.13222,0.11098 -0.13723,0.10232 -0.15588,0.09 c -1.42894,0.825 -2.91497,0.25113 -3.61497,-0.96131 -0.67,-1.16047 -0.45397,-2.7863 0.97497,-3.6113 0.51095,-0.295 1.17387,-0.4468 1.83188,-0.30709 0.17991,0.0116 0.24821,0.0299 0.29151,0.005 0.0433,-0.025 0.0616,-0.0933 -0.2884,-0.69952 -1.845,-3.19564 -4.85054,-4.90139 -7.09582,-5.51033 -0.75132,-0.20132 -0.80132,-0.28792 -0.87632,-0.41782 -0.17,-0.29445 -0.0535,-0.59266 0.16302,-0.71766 0.47631,-0.275 5.83809,1.05188 8.75309,6.10081 z"
               id="path7414" /><path
               style="fill:#000000;stroke-width:0"
               d="m 579.91023,460.89642 0.13856,-0.08 0.13856,-0.08 0.12991,-0.075 0.0743,-0.0313 0.0693,-0.04 0.0656,-0.0263 0.0743,-0.0313 0.0656,-0.0263 0.0656,-0.0263 0.0656,-0.0263 0.0706,-0.0177 0.062,-0.0127 0.0706,-0.0177 0.067,-0.004 0.0533,-0.008 0.072,0.005 0.0583,9.8e-4 0.0633,0.01 0.0633,0.01 0.0597,0.0233 0.0596,0.0233 0.0187,0.0123 0.0323,0.016 0.0323,0.016 0.0237,0.021 0.0323,0.016 0.0287,0.0296 0.0237,0.021 0.0237,0.021 0.0287,0.0296 0.0287,0.0296 0.02,0.0346 0.0287,0.0296 0.02,0.0346 0.0287,0.0296 0.025,0.0433 0.02,0.0346 c 0.5,0.86603 -0.27942,1.31603 -1.00688,1.73603 l -23.33939,13.475 c -0.73612,0.425 -1.51554,0.875 -2.01554,0.009 -0.495,-0.85736 0.28442,-1.30736 1.02054,-1.73236 z"
               id="path7416" /><path
               style="fill:#000000;stroke-width:0"
               d="m 587.45331,456.54142 -0.31651,-0.0482 -0.30284,-0.0445 -0.30785,-0.0532 -0.29419,-0.0495 -0.29052,-0.0632 -0.27687,-0.0595 -0.27686,-0.0596 -0.26321,-0.0559 -0.25954,-0.0695 -0.24589,-0.0659 -0.23722,-0.0709 -0.23723,-0.0709 -0.22356,-0.0672 -0.22356,-0.0672 -0.20125,-0.0686 -0.20624,-0.0772 -0.19624,-0.0599 -0.18393,-0.0786 -0.17892,-0.0699 -0.17392,-0.0612 -0.15661,-0.0713 -0.1516,-0.0626 -0.1516,-0.0626 -0.12928,-0.0639 -0.13295,-0.0503 -0.11562,-0.0603 -0.11062,-0.0516 -0.10196,-0.0566 -0.097,-0.0479 -0.0833,-0.0443 -0.0783,-0.0356 -0.0647,-0.032 c -3.65989,-1.85912 -5.5763,-4.37844 -5.6013,-4.42174 -0.3,-0.51962 0.21961,-0.81962 0.56602,-1.01962 0.73612,-0.425 0.82076,-0.3584 1.44397,0.32103 3.43593,3.6512 8.07704,5.80985 14.09277,4.96938 0.61095,-0.12179 0.79586,-0.10153 0.96586,0.19292 0.175,0.30311 -0.001,0.57801 -0.0714,0.67632 -1.4716,1.83112 -5.44873,7.00252 -2.89186,15.19115 0.15643,0.59096 0.19679,0.74086 -0.53933,1.16586 -0.34641,0.2 -0.86602,0.5 -1.16102,-0.0109 -0.05,-0.0866 -1.23029,-3.03093 -1.0903,-6.96845 0.12103,-1.79038 0.4931,-4.02592 1.5514,-6.4729 l -32.0516,18.505 c -0.77076,0.445 -1.55019,0.895 -2.05019,0.029 -0.495,-0.85736 0.28443,-1.30736 1.05519,-1.75236 z"
               id="path7418" /><path
               style="fill:#000000;stroke-width:0"
               d="m 560.76471,436.53542 -0.043,-0.19455 -0.043,-0.19454 -0.0294,-0.19089 -0.0244,-0.18222 -0.007,-0.19223 -0.0157,-0.18722 0.007,-0.18856 0.0116,-0.17991 0.0116,-0.1799 0.0203,-0.18491 0.0339,-0.18124 0.0389,-0.17258 0.0476,-0.17759 0.0476,-0.17758 0.0662,-0.16526 0.0612,-0.17393 0.0799,-0.1616 0.0799,-0.1616 0.0936,-0.15794 0.0936,-0.15794 0.0986,-0.14929 0.11222,-0.14562 0.11222,-0.14562 0.12589,-0.14196 0.12588,-0.14196 0.13589,-0.12464 0.14454,-0.12965 0.13589,-0.12464 0.1632,-0.11732 0.15455,-0.11232 0.1682,-0.10866 0.16821,-0.10866 c 1.50688,-0.87 3.07781,-0.44907 4.55697,0.53291 1.63112,1.12519 3.71404,3.4329 3.76404,3.51951 0.25,0.43301 -0.13971,0.65801 -0.26962,0.73301 -0.43301,0.25 -0.57631,0.10179 -1.05121,-0.42076 -2.00622,-2.07487 -4.51029,-4.53204 -6.32028,-3.48704 -0.90933,0.525 -1.01734,1.33792 -0.19734,2.7582 0.545,0.94397 2.23962,2.67913 3.45603,3.98601 l 3.89377,3.96422 c 0.51357,0.56952 1.88292,1.9613 2.43112,2.51082 0.78651,0.86227 2.16452,2.24906 2.31452,2.50887 0.45,0.77942 0.0688,1.51913 -0.57207,1.88913 -0.21651,0.125 -1.36734,0.7317 -2.55875,-0.53188 -2.64273,-2.67734 -8.89932,-9.13408 -10.73028,-11.12538 -0.15196,-0.14321 -3.86535,-2.59499 -7.00902,-0.77999 -2.24301,1.295 -1.55602,3.4849 -0.63602,5.07838 1.395,2.41621 4.56878,5.13335 7.40961,7.45382 1.26095,1.00404 1.82246,1.4766 2.29746,2.29932 1.125,1.94856 0.66802,4.33705 -1.48838,5.58205 -4.0963,2.365 -9.30479,-2.97637 -9.52479,-3.35742 -0.25,-0.43301 0.17435,-0.67801 0.26095,-0.72801 0.43302,-0.25 0.52632,-0.1884 1.14282,0.37942 3.24754,3.12489 5.80432,3.77338 7.44111,2.82838 0.38971,-0.225 1.05753,-0.6683 0.26253,-2.04528 -0.6,-1.03923 -1.79631,-2.01131 -2.43112,-2.51083 -4.05848,-3.34951 -6.51281,-5.50052 -7.73281,-7.61363 -2.365,-4.0963 -0.0109,-6.89883 2.31873,-8.24383 2.84057,-1.64 5.52441,-0.59144 6.79687,-0.0675 z"
               id="path7420" /><path
               style="fill:#000000;stroke-width:0"
               d="m 586.8304,418.32251 0.155,0.26847 0.13634,0.25614 0.12768,0.26115 0.12268,0.25249 0.10036,0.25382 0.10402,0.24017 0.0867,0.25017 0.0767,0.23284 0.068,0.23785 0.0544,0.23419 0.0494,0.22552 0.0444,0.21687 0.0221,0.2182 0.0171,0.20955 0.0121,0.20088 0.003,0.20589 -0.0153,0.19356 -0.0203,0.1849 -0.0289,0.18991 -0.0389,0.17258 -0.0476,0.17758 -0.0576,0.16027 -0.0712,0.1566 -0.0799,0.1616 -0.0899,0.14428 -0.0949,0.13563 -0.10856,0.13196 -0.11356,0.1233 -0.12723,0.11964 -0.13222,0.11098 -0.13723,0.10232 -0.15588,0.09 c -1.42894,0.825 -2.91497,0.25113 -3.61497,-0.96131 -0.67,-1.16047 -0.45397,-2.7863 0.97497,-3.6113 0.51095,-0.295 1.17387,-0.4468 1.83188,-0.30709 0.17991,0.0116 0.24821,0.0299 0.29151,0.005 0.0433,-0.025 0.0616,-0.0933 -0.2884,-0.69952 -1.845,-3.19564 -4.85054,-4.90139 -7.09582,-5.51033 -0.75132,-0.20132 -0.80132,-0.28792 -0.87632,-0.41782 -0.17,-0.29445 -0.0535,-0.59266 0.16301,-0.71766 0.47632,-0.275 5.8381,1.05188 8.7531,6.10081 z"
               id="path7422" /><path
               style="fill:#000000;stroke-width:0"
               d="m 642.26406,424.89642 0.13856,-0.08 0.13856,-0.08 0.12991,-0.075 0.0743,-0.0313 0.0693,-0.04 0.0656,-0.0263 0.0743,-0.0313 0.0656,-0.0263 0.0656,-0.0263 0.0656,-0.0263 0.0706,-0.0177 0.062,-0.0127 0.0706,-0.0177 0.067,-0.004 0.0533,-0.008 0.072,0.005 0.0583,9.8e-4 0.0633,0.01 0.0633,0.01 0.0596,0.0233 0.0596,0.0233 0.0187,0.0123 0.0323,0.016 0.0323,0.016 0.0237,0.021 0.0323,0.016 0.0287,0.0296 0.0237,0.021 0.0237,0.021 0.0287,0.0296 0.0287,0.0296 0.02,0.0346 0.0287,0.0296 0.02,0.0346 0.0287,0.0296 0.025,0.0433 0.02,0.0346 c 0.5,0.86603 -0.27942,1.31603 -1.00688,1.73603 l -23.33939,13.475 c -0.73612,0.425 -1.51554,0.875 -2.01554,0.009 -0.495,-0.85736 0.28442,-1.30736 1.02054,-1.73236 z"
               id="path7424" /><path
               style="fill:#000000;stroke-width:0"
               d="m 649.80714,420.54142 -0.31651,-0.0482 -0.30285,-0.0445 -0.30784,-0.0532 -0.29419,-0.0495 -0.29052,-0.0632 -0.27687,-0.0595 -0.27686,-0.0596 -0.26321,-0.0559 -0.25954,-0.0695 -0.24589,-0.0659 -0.23722,-0.0709 -0.23723,-0.0709 -0.22356,-0.0672 -0.22356,-0.0672 -0.20125,-0.0686 -0.20624,-0.0772 -0.19625,-0.0599 -0.18392,-0.0786 -0.17892,-0.0699 -0.17392,-0.0612 -0.15661,-0.0713 -0.1516,-0.0626 -0.1516,-0.0626 -0.12928,-0.0639 -0.13295,-0.0503 -0.11562,-0.0603 -0.11062,-0.0516 -0.10196,-0.0566 -0.097,-0.0479 -0.0833,-0.0443 -0.0783,-0.0356 -0.0646,-0.032 c -3.65989,-1.85912 -5.5763,-4.37844 -5.6013,-4.42174 -0.3,-0.51962 0.21961,-0.81962 0.56602,-1.01962 0.73612,-0.425 0.82076,-0.3584 1.44397,0.32103 3.43593,3.6512 8.07704,5.80985 14.09277,4.96938 0.61095,-0.12179 0.79585,-0.10153 0.96585,0.19292 0.175,0.30311 -10e-4,0.57801 -0.0714,0.67632 -1.47159,1.83112 -5.44872,7.00252 -2.89185,15.19115 0.15643,0.59096 0.19679,0.74086 -0.53933,1.16586 -0.34641,0.2 -0.86602,0.5 -1.16102,-0.0109 -0.05,-0.0866 -1.23029,-3.03093 -1.0903,-6.96845 0.12103,-1.79038 0.4931,-4.02592 1.5514,-6.4729 l -32.0516,18.505 c -0.77077,0.445 -1.55019,0.895 -2.05019,0.029 -0.495,-0.85736 0.28442,-1.30736 1.05519,-1.75236 z"
               id="path7426" /><path
               style="fill:#000000;stroke-width:0"
               d="m 615.29283,406.60089 0.35151,0.10883 0.34651,0.10016 0.31918,0.0928 0.31919,0.0928 0.30552,0.0892 0.30553,0.0892 0.28687,0.0769 0.2782,0.0819 0.27321,0.0732 0.2732,0.0732 0.25955,0.0695 0.25454,0.0609 0.24589,0.0659 0.24088,0.0572 0.48177,0.11445 0.45445,0.10712 0.43579,0.0948 0.43078,0.0861 0.42213,0.0912 0.83426,0.16497 0.43079,0.0862 0.42579,0.0775 c 0.025,0.0433 4.02101,0.7846 6.4712,1.44845 6.41996,1.6397 8.55893,3.1645 8.65893,3.3377 0.25,0.43302 -0.13971,0.65802 -0.21766,0.70302 -0.30311,0.175 -0.48301,0.16339 -0.92452,-0.10132 -2.49403,-1.3198 -3.7947,-1.49262 -4.83393,-0.89262 -1.03923,0.6 -1.17519,1.54452 -1.3997,2.65564 -0.24407,1.45727 -0.48019,2.7483 -1.90913,3.5733 -3.23028,1.865 -7.53348,-1.00836 -8.05348,-1.90903 -0.125,-0.21651 -0.14509,-0.55131 0.23596,-0.77131 0.38971,-0.225 0.60131,-0.0585 0.83792,0.15131 1.96772,1.5082 4.49553,0.1065 4.84194,-0.0935 0.90067,-0.52 1.54839,-1.29811 2.33566,-2.21452 1.35705,-1.64952 1.83337,-1.92452 2.95054,-2.56952 -2.62018,-0.95829 -8.03883,-1.96366 -9.25289,-2.18648 l -5.97846,-1.37499 c -4.59716,-1.20252 -7.53271,-2.78704 -7.70771,-3.09015 -0.25,-0.43301 0.18301,-0.68301 0.26962,-0.73301 0.34641,-0.2 0.48301,-0.1634 1.00916,0.16792 1.86593,0.93188 3.83996,1.35102 5.21694,0.55602 0.99593,-0.575 1.19529,-1.20971 1.55782,-3.08179 0.21112,-1.33433 0.58188,-2.47215 1.83762,-3.19715 4.2695,-2.465 9.93732,1.57194 10.60732,2.73242 0.125,0.2165 0.0768,0.53301 -0.26962,0.73301 -0.38971,0.225 -0.62631,0.0152 -0.92256,-0.21792 -2.61592,-2.23092 -5.84855,-1.44998 -7.26883,-0.62998 -0.86602,0.5 -1.49545,1.2098 -2.22111,2.03291 -1.14725,1.41292 -1.6881,1.95613 -2.59743,2.48113 -0.0866,0.05 -0.77942,0.45 -1.24914,0.53643 z"
               id="path7428" /><path
               style="fill:#000000;stroke-width:0"
               d="m 659.09948,390.91622 0.17634,0.32543 0.195,0.33775 0.18634,0.34275 0.19634,0.36007 0.38536,0.74746 0.38803,0.79211 0.38206,0.84174 0.3834,0.86406 0.36876,0.91871 0.36143,0.94602 0.3368,0.98335 0.32081,1.01567 0.29117,1.04432 0.2702,1.06799 0.22689,1.09299 0.19725,1.12164 0.0745,0.569 0.0795,0.57765 0.0571,0.57899 0.0485,0.584 c 0.47059,6.79507 -1.616,11.741 -2.04901,11.991 -0.25981,0.15 -0.53302,0.0768 -0.68302,-0.18302 -0.075,-0.1299 -0.125,-0.2165 0.23907,-1.46593 1.77486,-6.70584 0.26937,-14.99342 -4.93563,-24.00875 -4.26,-7.37853 -10.24214,-14.03992 -18.72552,-16.39356 -0.86292,-0.19461 -0.90792,-0.27255 -0.98792,-0.41112 -0.145,-0.25115 -0.0718,-0.52435 0.18802,-0.67435 0.43301,-0.25 6.0028,0.43717 11.71392,4.44911 4.9397,3.47582 8.22432,7.96494 10.31432,11.58492 z"
               id="path7430" /></g></g>      </g>
      <g
         id="g7626"
         transform="matrix(0.2241189,0.12939514,-0.12939514,0.2241189,55.282193,43.662115)">
        <g
           id="g7628"
           transform="matrix(1.0629921,0,0,-1.0629921,-186.02362,789.27165)"
           xml:space="preserve"
           stroke-miterlimit="10.433"
           fill-rule="even-odd"
           font-style="normal"
           font-variant="normal"
           font-weight="normal"
           font-stretch="normal"
           font-size-adjust="none"
           letter-spacing="normal"
           word-spacing="normal"
           style="font-style:normal;font-variant:normal;font-weight:normal;font-stretch:normal;letter-spacing:normal;word-spacing:normal;text-anchor:start;fill:none;stroke:#000000;stroke-width:3.86413407;stroke-linecap:butt;stroke-linejoin:miter;stroke-miterlimit:10.43299961;stroke-opacity:1;stroke-dasharray:none;stroke-dashoffset:0"><path
             d="m 492.86,427.72 -0.01,0.74 -0.05,0.73 -0.07,0.71 -0.11,0.7 -0.13,0.67 -0.16,0.66 -0.19,0.64 -0.22,0.63 -0.24,0.6 -0.27,0.58 -0.29,0.56 -0.32,0.54 -0.34,0.52 -0.37,0.5 -0.38,0.47 -0.42,0.46 -0.43,0.42 -0.45,0.41 -0.48,0.38 -0.49,0.35 -0.51,0.33 -0.53,0.3 -0.56,0.28 -0.56,0.25 -0.59,0.22 -0.6,0.2 -0.62,0.16 -0.63,0.14 -0.65,0.11 -0.66,0.07 -0.68,0.05 -0.69,0.02 -0.3,-1.25 c 4.09,0 8.57,-2.79 8.57,-10.21 0,-3.59 -1.35,-11.36 -6.28,-17.48 -2.39,-3.04 -6.47,-5.98 -10.66,-5.98 h 0 c -4.93,0 -8.42,4.03 -8.42,10.61 0,2.19 0.7,9.46 4.54,15.29 3.43,5.18 8.32,7.77 12.25,7.77 l 0.3,1.25 c -10.76,0 -21.72,-11.31 -21.72,-22.92 0,-8.27 5.58,-13.3 12.75,-13.3 10.56,0 21.67,10.91 21.67,22.82 z"
             id="path7630"
             style="fill:#000000;stroke-width:0" /></g>      </g>
      <g
         id="g7832"
         transform="matrix(0.2368747,0.13675967,-0.13675967,0.2368747,84.062026,54.10187)">
        <g
           word-spacing="normal"
           letter-spacing="normal"
           font-size-adjust="none"
           font-stretch="normal"
           font-weight="normal"
           font-variant="normal"
           font-style="normal"
           fill-rule="even-odd"
           stroke-miterlimit="10.433"
           xml:space="preserve"
           transform="matrix(1.0629921,0,0,-1.0629921,-186.02362,789.27165)"
           id="g7834"
           style="font-style:normal;font-variant:normal;font-weight:normal;font-stretch:normal;letter-spacing:normal;word-spacing:normal;text-anchor:start;fill:none;stroke:#000000;stroke-width:3.65604854;stroke-linecap:butt;stroke-linejoin:miter;stroke-miterlimit:10.43299961;stroke-opacity:1;stroke-dasharray:none;stroke-dashoffset:0"><path
             id="path7836"
             d="m 463.92,409.89 -0.04,-0.18 -0.05,-0.17 -0.04,-0.16 -0.04,-0.15 -0.05,-0.15 -0.04,-0.13 -0.05,-0.13 -0.05,-0.12 -0.06,-0.11 -0.06,-0.11 -0.06,-0.1 -0.07,-0.09 -0.08,-0.09 -0.09,-0.07 -0.09,-0.08 -0.11,-0.06 -0.11,-0.07 -0.12,-0.05 -0.14,-0.05 -0.15,-0.05 -0.16,-0.04 -0.09,-0.02 -0.09,-0.02 -0.09,-0.01 -0.1,-0.02 -0.1,-0.01 -0.1,-0.01 -0.11,-0.02 -0.12,-0.01 -0.11,-0.01 -0.13,-0.01 -0.12,-0.01 -0.13,0 -0.14,-0.01 -0.14,-0.01 -0.14,0 -0.15,-0.01 -0.16,0 -0.16,0 -0.16,0 -0.18,-0.01 -0.17,0 -0.18,0 c -0.85,0 -1.4,0 -1.4,-0.94 0,-0.6 0.45,-0.6 1.4,-0.6 h 16.49 l -0.9,1.54 h -5.63 c -0.7,0 -0.8,0 -1.1,0.05 -0.49,0.05 -0.64,0.11 -0.64,0.5 0,0.15 0,0.25 0.25,1.15 l 6.82,27.35 c 0.45,1.74 0.55,1.89 2.69,1.89 h 5.33 c 4.88,0 9.01,-2.64 9.01,-9.22 0,-2.44 -0.99,-10.61 -5.23,-16.09 -1.44,-1.84 -5.37,-5.63 -11.5,-5.63 l 0.9,-1.54 c 10.36,0 20.17,10.51 20.17,21.42 0,7.02 -4.23,12.6 -11.71,12.6 h -16.73 c -0.95,0 -1.5,0 -1.5,-0.95 0,-0.59 0.45,-0.59 1.45,-0.59 0.64,0 1.54,-0.05 2.14,-0.1 0.8,-0.1 1.09,-0.25 1.09,-0.8 0,-0.2 -0.04,-0.35 -0.2,-0.94 z"
             style="fill:#000000;stroke-width:0" /></g>      </g>
      <g
         id="g8044"
         transform="matrix(0.22604333,0.13050618,-0.13050618,0.22604333,125.21776,36.550798)">
        <g
           id="g8046"
           transform="matrix(1.0629921,0,0,-1.0629921,-186.02362,789.27165)"
           xml:space="preserve"
           stroke-miterlimit="10.433"
           fill-rule="even-odd"
           font-style="normal"
           font-variant="normal"
           font-weight="normal"
           font-stretch="normal"
           font-size-adjust="none"
           letter-spacing="normal"
           word-spacing="normal"
           style="font-style:normal;font-variant:normal;font-weight:normal;font-stretch:normal;letter-spacing:normal;word-spacing:normal;text-anchor:start;fill:none;stroke:#000000;stroke-width:3.83123612;stroke-linecap:butt;stroke-linejoin:miter;stroke-miterlimit:10.43299961;stroke-opacity:1;stroke-dasharray:none;stroke-dashoffset:0"><path
             d="m 464.92,411.73 -0.19,-0.31 -0.19,-0.29 -0.18,-0.27 -0.19,-0.26 -0.18,-0.25 -0.19,-0.23 -0.19,-0.23 -0.18,-0.2 -0.19,-0.2 -0.18,-0.18 -0.19,-0.17 -0.19,-0.16 -0.19,-0.15 -0.18,-0.14 -0.19,-0.13 -0.19,-0.12 -0.19,-0.11 -0.19,-0.1 -0.19,-0.09 -0.19,-0.09 -0.2,-0.07 -0.19,-0.07 -0.19,-0.06 -0.2,-0.06 -0.2,-0.05 -0.19,-0.04 -0.2,-0.04 -0.2,-0.03 -0.4,-0.05 -0.41,-0.04 c -0.6,-0.04 -1.05,-0.04 -1.05,-0.99 0,-0.3 0.25,-0.55 0.65,-0.55 h 9.27 c 0.3,0 0.94,0 0.94,0.95 0,0.55 -0.44,0.59 -0.8,0.59 -1.14,0.1 -2.34,0.5 -2.34,1.75 0,0.6 0.3,1.14 0.7,1.84 l 3.79,6.38 h 12.5 l -0.15,1.54 h -11.41 l 9.82,16.44 1.59,-16.44 0.15,-1.54 c 0.1,-1.05 0.8,-7.82 0.8,-8.32 0,-1.49 -2.59,-1.65 -3.59,-1.65 -0.7,0 -1.2,0 -1.2,-0.99 0,-0.55 0.6,-0.55 0.7,-0.55 h 11.86 c 0.3,0 0.89,0 0.89,1 0,0.54 -0.49,0.54 -1.14,0.54 -3.09,0 -3.09,0.35 -3.24,1.8 l -3.04,31.13 c -0.1,1 -0.1,1.2 -0.94,1.2 -0.8,0 -1,-0.35 -1.3,-0.85 z"
             id="path8048"
             style="fill:#000000;stroke-width:0" /></g>      </g>
      <g
         id="g8262"
         transform="matrix(0.17094416,0.09869466,-0.09869466,0.17094416,172.53416,102.10382)">
        <g
           word-spacing="normal"
           letter-spacing="normal"
           font-size-adjust="none"
           font-stretch="normal"
           font-weight="normal"
           font-variant="normal"
           font-style="normal"
           fill-rule="even-odd"
           stroke-miterlimit="10.433"
           xml:space="preserve"
           transform="matrix(1.0629921,0,0,-1.0629921,-186.02362,789.27165)"
           id="g8264"
           style="font-style:normal;font-variant:normal;font-weight:normal;font-stretch:normal;letter-spacing:normal;word-spacing:normal;text-anchor:start;fill:none;stroke:#000000;stroke-width:5.06613016;stroke-linecap:butt;stroke-linejoin:miter;stroke-miterlimit:10.43299961;stroke-opacity:1;stroke-dasharray:none;stroke-dashoffset:0"><path
             id="path8266"
             d="m 464.92,411.73 -0.19,-0.31 -0.19,-0.29 -0.18,-0.27 -0.19,-0.26 -0.18,-0.25 -0.19,-0.23 -0.19,-0.23 -0.18,-0.2 -0.19,-0.2 -0.18,-0.18 -0.19,-0.17 -0.19,-0.16 -0.19,-0.15 -0.18,-0.14 -0.19,-0.13 -0.19,-0.12 -0.19,-0.11 -0.19,-0.1 -0.19,-0.09 -0.19,-0.09 -0.2,-0.07 -0.19,-0.07 -0.19,-0.06 -0.2,-0.06 -0.2,-0.05 -0.19,-0.04 -0.2,-0.04 -0.2,-0.03 -0.4,-0.05 -0.41,-0.04 c -0.6,-0.04 -1.05,-0.04 -1.05,-0.99 0,-0.3 0.25,-0.55 0.65,-0.55 h 9.27 c 0.3,0 0.94,0 0.94,0.95 0,0.55 -0.44,0.59 -0.8,0.59 -1.14,0.1 -2.34,0.5 -2.34,1.75 0,0.6 0.3,1.14 0.7,1.84 l 3.79,6.38 h 12.5 l -0.15,1.54 h -11.41 l 9.82,16.44 1.59,-16.44 0.15,-1.54 c 0.1,-1.05 0.8,-7.82 0.8,-8.32 0,-1.49 -2.59,-1.65 -3.59,-1.65 -0.7,0 -1.2,0 -1.2,-0.99 0,-0.55 0.6,-0.55 0.7,-0.55 h 11.86 c 0.3,0 0.89,0 0.89,1 0,0.54 -0.49,0.54 -1.14,0.54 -3.09,0 -3.09,0.35 -3.24,1.8 l -3.04,31.13 c -0.1,1 -0.1,1.2 -0.94,1.2 -0.8,0 -1,-0.35 -1.3,-0.85 z"
             style="fill:#000000;stroke-width:0" /><path
             id="path8268"
             d="m 503.11,440.46 0.03,0.05 0.02,0.05 0.02,0.06 0.03,0.05 0.02,0.04 0.02,0.05 0.01,0.04 0.02,0.05 0.01,0.04 0.02,0.04 0.01,0.04 0.01,0.04 0.02,0.03 0.01,0.04 0.01,0.03 0,0.04 0.01,0.03 0.01,0.03 0,0.03 0.01,0.03 0.01,0.03 0,0.03 0,0.02 0.01,0.03 0,0.05 0,0.05 0.01,0.05 0,0.04 c 0,1.09 -0.98,1.92 -2.06,1.92 -1.33,0 -1.75,-1.08 -1.92,-1.64 l -4.6,-15.1 c -0.04,-0.07 -0.18,-0.52 -0.18,-0.55 0,-0.42 1.08,-0.77 1.37,-0.77 0.24,0 0.27,0.07 0.52,0.59 z"
             style="fill:#000000;stroke-width:0" /></g>      </g>
      <g
         id="g8490"
         transform="matrix(0.21303354,0.12299497,-0.12299497,0.21303354,150.57063,127.71668)">
        <g
           id="g8492"
           transform="matrix(1.0629921,0,0,-1.0629921,-186.02362,789.27165)"
           xml:space="preserve"
           stroke-miterlimit="10.433"
           fill-rule="even-odd"
           font-style="normal"
           font-variant="normal"
           font-weight="normal"
           font-stretch="normal"
           font-size-adjust="none"
           letter-spacing="normal"
           word-spacing="normal"
           style="font-style:normal;font-variant:normal;font-weight:normal;font-stretch:normal;letter-spacing:normal;word-spacing:normal;text-anchor:start;fill:none;stroke:#000000;stroke-width:4.06520653;stroke-linecap:butt;stroke-linejoin:miter;stroke-miterlimit:10.43299961;stroke-opacity:1;stroke-dasharray:none;stroke-dashoffset:0"><path
             d="m 494.01,436.19 0.04,0.16 0.04,0.16 0.04,0.15 0.04,0.14 0.04,0.14 0.04,0.12 0.04,0.13 0.05,0.11 0.05,0.11 0.05,0.1 0.06,0.1 0.07,0.09 0.07,0.08 0.08,0.08 0.09,0.08 0.09,0.06 0.11,0.07 0.11,0.05 0.13,0.06 0.14,0.05 0.15,0.04 0.16,0.04 0.09,0.01 0.09,0.02 0.09,0.02 0.1,0.01 0.1,0.01 0.1,0.02 0.11,0.01 0.11,0.01 0.12,0.01 0.12,0.01 0.13,0.01 0.13,0 0.13,0.01 0.14,0 0.14,0.01 0.15,0 0.15,0 0.16,0.01 0.16,0 0.17,0 c 1.3,0 1.7,0 1.7,0.99 0,0.55 -0.55,0.55 -0.7,0.55 h -12.8 c -0.4,0 -0.95,0 -0.95,-0.99 0,-0.55 0.45,-0.55 1.4,-0.55 0.09,0 1.04,0 1.89,-0.1 0.89,-0.1 1.34,-0.15 1.34,-0.8 0,-0.2 -0.05,-0.3 -0.2,-0.94 l -2.99,-12.16 h -15.19 l 2.94,11.71 c 0.45,1.79 0.6,2.29 4.18,2.29 1.3,0 1.7,0 1.7,0.99 0,0.55 -0.55,0.55 -0.7,0.55 h -12.8 c -0.4,0 -0.95,0 -0.95,-0.99 0,-0.55 0.45,-0.55 1.4,-0.55 0.1,0 1.04,0 1.89,-0.1 0.9,-0.1 1.35,-0.15 1.35,-0.8 0,-0.2 -0.06,-0.35 -0.2,-0.94 l -6.68,-26.75 c -0.5,-1.95 -0.6,-2.35 -4.53,-2.35 -0.9,0 -1.35,0 -1.35,-0.99 0,-0.55 0.6,-0.55 0.7,-0.55 1.4,0 4.93,0.15 6.32,0.15 1.05,0 2.15,-0.05 3.2,-0.05 1.09,0 2.19,-0.1 3.23,-0.1 0.4,0 1,0 1,1 0,0.54 -0.45,0.54 -1.4,0.54 -1.84,0 -3.23,0 -3.23,0.9 0,0.3 0.1,0.55 0.15,0.85 l 3.38,13.65 h 15.19 c -2.09,-8.27 -3.23,-13.01 -3.43,-13.75 -0.5,-1.6 -1.44,-1.65 -4.53,-1.65 -0.75,0 -1.2,0 -1.2,-0.99 0,-0.55 0.6,-0.55 0.7,-0.55 1.39,0 4.93,0.15 6.32,0.15 1.05,0 2.14,-0.05 3.19,-0.05 1.1,0 2.19,-0.1 3.24,-0.1 0.4,0 1,0 1,1 0,0.54 -0.45,0.54 -1.4,0.54 -1.84,0 -3.24,0 -3.24,0.9 0,0.3 0.1,0.55 0.15,0.85 z"
             id="path8494"
             style="fill:#000000;stroke-width:0" /><path
             d="m 511.11,440.46 0.03,0.05 0.02,0.05 0.02,0.06 0.03,0.05 0.02,0.04 0.02,0.05 0.01,0.04 0.02,0.05 0.01,0.04 0.02,0.04 0.01,0.04 0.01,0.04 0.02,0.03 0.01,0.04 0.01,0.03 0,0.04 0.01,0.03 0.01,0.03 0,0.03 0.01,0.03 0.01,0.03 0,0.03 0,0.02 0.01,0.03 0,0.05 0,0.05 0.01,0.05 0,0.04 c 0,1.09 -0.98,1.92 -2.06,1.92 -1.33,0 -1.75,-1.08 -1.92,-1.64 l -4.6,-15.1 c -0.04,-0.07 -0.18,-0.52 -0.18,-0.55 0,-0.42 1.08,-0.77 1.37,-0.77 0.24,0 0.27,0.07 0.52,0.59 z"
             id="path8496"
             style="fill:#000000;stroke-width:0" /></g>      </g>
      <g
         id="g8726"
         transform="matrix(0.23531631,0.13585993,-0.13585993,0.23531631,113.55333,95.612054)">
        <g
           word-spacing="normal"
           letter-spacing="normal"
           font-size-adjust="none"
           font-stretch="normal"
           font-weight="normal"
           font-variant="normal"
           font-style="normal"
           fill-rule="even-odd"
           stroke-miterlimit="10.433"
           xml:space="preserve"
           transform="matrix(1.0629921,0,0,-1.0629921,-186.02362,789.27165)"
           id="g8728"
           style="font-style:normal;font-variant:normal;font-weight:normal;font-stretch:normal;letter-spacing:normal;word-spacing:normal;text-anchor:start;fill:none;stroke:#000000;stroke-width:3.6802609;stroke-linecap:butt;stroke-linejoin:miter;stroke-miterlimit:10.43299961;stroke-opacity:1;stroke-dasharray:none;stroke-dashoffset:0"><path
             id="path8730"
             d="m 494.01,436.19 0.04,0.16 0.04,0.16 0.04,0.15 0.04,0.14 0.04,0.14 0.04,0.12 0.04,0.13 0.05,0.11 0.05,0.11 0.05,0.1 0.06,0.1 0.07,0.09 0.07,0.08 0.08,0.08 0.09,0.08 0.09,0.06 0.11,0.07 0.11,0.05 0.13,0.06 0.14,0.05 0.15,0.04 0.16,0.04 0.09,0.01 0.09,0.02 0.09,0.02 0.1,0.01 0.1,0.01 0.1,0.02 0.11,0.01 0.11,0.01 0.12,0.01 0.12,0.01 0.13,0.01 0.13,0 0.13,0.01 0.14,0 0.14,0.01 0.15,0 0.15,0 0.16,0.01 0.16,0 0.17,0 c 1.3,0 1.7,0 1.7,0.99 0,0.55 -0.55,0.55 -0.7,0.55 h -12.8 c -0.4,0 -0.95,0 -0.95,-0.99 0,-0.55 0.45,-0.55 1.4,-0.55 0.09,0 1.04,0 1.89,-0.1 0.89,-0.1 1.34,-0.15 1.34,-0.8 0,-0.2 -0.05,-0.3 -0.2,-0.94 l -2.99,-12.16 h -15.19 l 2.94,11.71 c 0.45,1.79 0.6,2.29 4.18,2.29 1.3,0 1.7,0 1.7,0.99 0,0.55 -0.55,0.55 -0.7,0.55 h -12.8 c -0.4,0 -0.95,0 -0.95,-0.99 0,-0.55 0.45,-0.55 1.4,-0.55 0.1,0 1.04,0 1.89,-0.1 0.9,-0.1 1.35,-0.15 1.35,-0.8 0,-0.2 -0.06,-0.35 -0.2,-0.94 l -6.68,-26.75 c -0.5,-1.95 -0.6,-2.35 -4.53,-2.35 -0.9,0 -1.35,0 -1.35,-0.99 0,-0.55 0.6,-0.55 0.7,-0.55 1.4,0 4.93,0.15 6.32,0.15 1.05,0 2.15,-0.05 3.2,-0.05 1.09,0 2.19,-0.1 3.23,-0.1 0.4,0 1,0 1,1 0,0.54 -0.45,0.54 -1.4,0.54 -1.84,0 -3.23,0 -3.23,0.9 0,0.3 0.1,0.55 0.15,0.85 l 3.38,13.65 h 15.19 c -2.09,-8.27 -3.23,-13.01 -3.43,-13.75 -0.5,-1.6 -1.44,-1.65 -4.53,-1.65 -0.75,0 -1.2,0 -1.2,-0.99 0,-0.55 0.6,-0.55 0.7,-0.55 1.39,0 4.93,0.15 6.32,0.15 1.05,0 2.14,-0.05 3.19,-0.05 1.1,0 2.19,-0.1 3.24,-0.1 0.4,0 1,0 1,1 0,0.54 -0.45,0.54 -1.4,0.54 -1.84,0 -3.24,0 -3.24,0.9 0,0.3 0.1,0.55 0.15,0.85 z"
             style="fill:#000000;stroke-width:0" /></g>      </g>
      <path
         sodipodi:type="arc"
         style="fill:none;stroke:#000000;stroke-width:0.92421131999999995;stroke-linecap:round;stroke-linejoin:round;stroke-miterlimit:4;stroke-opacity:1;stroke-dasharray:none;stroke-dashoffset:0;marker-end:none;marker-start:url(#Arrow1Sstart)"
         id="path8861"
         sodipodi:cx="70.35714"
         sodipodi:cy="153.07646"
         sodipodi:rx="19.642857"
         sodipodi:ry="29.285715"
         d="m 56.227251,132.7329 c 3.701496,-5.71468 8.801376,-8.94215 14.129889,-8.94215"
         transform="matrix(0.8584703,0.51286328,-0.60042536,1.0050385,102.43084,-32.596228)"
         sodipodi:start="3.9095375"
         sodipodi:end="4.712389"
         sodipodi:open="true" />
      <path
         style="fill:none;stroke:#000000;stroke-width:1px;stroke-linecap:butt;stroke-linejoin:miter;stroke-opacity:1"
         d="m 145,117.36218 c 10,0 6.54721,-15 15,-15 10,0 10,25 25,25"
         id="path9419"
         transform="matrix(0.8584703,0.51286328,-0.51286328,0.8584703,92.882343,-12.017171)"
         sodipodi:nodetypes="czs" />
      <path
         style="fill:none;stroke:#000000;stroke-width:0.5;stroke-linecap:butt;stroke-linejoin:miter;stroke-opacity:1;stroke-miterlimit:4;stroke-dasharray:4,1,0.5,1;stroke-dashoffset:0"
         d="m 160,102.36218 80,0"
         id="path9421"
         transform="matrix(0.8584703,0.51286328,-0.51286328,0.8584703,92.882343,-12.017171)" />
      <path
         id="path9423"
         d="M 170.04683,170.79291 217.2627,199.0004"
         style="fill:none;stroke:#000000;stroke-width:0.49999997;stroke-linecap:butt;stroke-linejoin:miter;stroke-miterlimit:4;stroke-opacity:1;stroke-dasharray:3.99999998, 1, 0.5, 1;stroke-dashoffset:0" />
    </g>
  </g>
</svg>
