<?xml version="1.0" encoding="UTF-8" standalone="no"?>
<!-- Created with Inkscape (http://www.inkscape.org/) -->

<svg
   xmlns:dc="http://purl.org/dc/elements/1.1/"
   xmlns:cc="http://creativecommons.org/ns#"
   xmlns:rdf="http://www.w3.org/1999/02/22-rdf-syntax-ns#"
   xmlns:svg="http://www.w3.org/2000/svg"
   xmlns="http://www.w3.org/2000/svg"
   xmlns:sodipodi="http://sodipodi.sourceforge.net/DTD/sodipodi-0.dtd"
   xmlns:inkscape="http://www.inkscape.org/namespaces/inkscape"
   width="210mm"
   height="297mm"
   id="svg11761"
   version="1.1"
   inkscape:version="0.47 r22583"
   sodipodi:docname="exo4.svg"
   inkscape:export-filename="/home/xabi/Dropbox/PTSI/1_Filetage/png/exo4.png"
   inkscape:export-xdpi="300"
   inkscape:export-ydpi="300">
  <defs
     id="defs11763">
    <inkscape:perspective
       sodipodi:type="inkscape:persp3d"
       inkscape:vp_x="0 : 526.18109 : 1"
       inkscape:vp_y="0 : 1000 : 0"
       inkscape:vp_z="744.09448 : 526.18109 : 1"
       inkscape:persp3d-origin="372.04724 : 350.78739 : 1"
       id="perspective11769" />
  </defs>
  <sodipodi:namedview
     id="base"
     pagecolor="#ffffff"
     bordercolor="#666666"
     borderopacity="1.0"
     inkscape:pageopacity="0.0"
     inkscape:pageshadow="2"
     inkscape:zoom="3.959798"
     inkscape:cx="200.85983"
     inkscape:cy="997.66598"
     inkscape:document-units="px"
     inkscape:current-layer="layer1"
     showgrid="true"
     inkscape:window-width="1918"
     inkscape:window-height="1006"
     inkscape:window-x="0"
     inkscape:window-y="25"
     inkscape:window-maximized="1">
    <inkscape:grid
       type="xygrid"
       id="grid11771" />
  </sodipodi:namedview>
  <metadata
     id="metadata11766">
    <rdf:RDF>
      <cc:Work
         rdf:about="">
        <dc:format>image/svg+xml</dc:format>
        <dc:type
           rdf:resource="http://purl.org/dc/dcmitype/StillImage" />
        <dc:title></dc:title>
      </cc:Work>
    </rdf:RDF>
  </metadata>
  <g
     inkscape:label="Calque 1"
     inkscape:groupmode="layer"
     id="layer1">
    <path
       style="fill:none;stroke:#000000;stroke-width:1px;stroke-linecap:butt;stroke-linejoin:miter;stroke-opacity:1"
       d="m 64.714286,27.362183 -9.714286,10 0,89.999997 9.714286,10 150.571424,0 9.71429,-10 0,-89.999997 -9.71429,-10 -150.571424,0 z"
       id="path11773"
       sodipodi:nodetypes="ccccccccc" />
    <path
       sodipodi:nodetypes="ccccccccc"
       id="path11775"
       d="m 65,27.362183 -10,10 0,89.999997 10,10 121.99999,0 8.00001,-10 0,-89.999997 -8.00001,-10 -121.99999,0 z"
       style="fill:none;stroke:#000000;stroke-width:1;stroke-linecap:butt;stroke-linejoin:miter;stroke-opacity:1;stroke-miterlimit:4;stroke-dasharray:none" />
    <path
       style="fill:none;stroke:#000000;stroke-width:0.5;stroke-linecap:butt;stroke-linejoin:miter;stroke-opacity:1;stroke-miterlimit:4;stroke-dasharray:2,4;stroke-dashoffset:0"
       d="m 93.000001,27.362183 -8.000001,10 0,89.999997 10,10 120,0 10,-10 0,-89.999997 -8.00001,-10 -123.999989,0 z"
       id="path11777"
       sodipodi:nodetypes="ccccccccc" />
    <path
       style="fill:none;stroke:#000000;stroke-width:0.5;stroke-linecap:butt;stroke-linejoin:miter;stroke-opacity:1;stroke-miterlimit:4;stroke-dasharray:4,1,0.5,1;stroke-dashoffset:0"
       d="m 45,82.362183 190,0"
       id="path12289" />
    <path
       sodipodi:type="arc"
       style="fill:none;stroke:#000000;stroke-width:0.48562095;stroke-linecap:round;stroke-linejoin:round;stroke-miterlimit:4;stroke-opacity:1;stroke-dasharray:none;stroke-dashoffset:0"
       id="path12291"
       sodipodi:cx="205.71428"
       sodipodi:cy="86.647896"
       sodipodi:rx="9.2857141"
       sodipodi:ry="5.7142863"
       d="m 205.71428,80.933609 a 9.2857141,5.7142863 0 0 1 0,11.428573"
       transform="matrix(1.6153847,0,0,2.6249997,-137.3077,-145.08852)"
       sodipodi:start="4.712389"
       sodipodi:end="7.8539816"
       sodipodi:open="true" />
    <path
       sodipodi:open="true"
       sodipodi:end="7.8539816"
       sodipodi:start="4.712389"
       transform="matrix(2.1538465,0,0,3.5,-248.07698,-220.90545)"
       d="m 205.71428,80.933609 a 9.2857141,5.7142863 0 0 1 0,11.428573"
       sodipodi:ry="5.7142863"
       sodipodi:rx="9.2857141"
       sodipodi:cy="86.647896"
       sodipodi:cx="205.71428"
       id="path12293"
       style="fill:none;stroke:#000000;stroke-width:0.18210783;stroke-linecap:round;stroke-linejoin:round;stroke-miterlimit:4;stroke-opacity:1;stroke-dasharray:0.7284313,1.4568626;stroke-dashoffset:0"
       sodipodi:type="arc" />
    <path
       sodipodi:open="true"
       sodipodi:end="7.8539816"
       sodipodi:start="4.712389"
       transform="matrix(-1.6153847,0,0,2.6249997,447.3077,-145.08852)"
       d="m 205.71428,80.933609 a 9.2857141,5.7142863 0 0 1 0,11.428573"
       sodipodi:ry="5.7142863"
       sodipodi:rx="9.2857141"
       sodipodi:cy="86.647896"
       sodipodi:cx="205.71428"
       id="path12295"
       style="fill:none;stroke:#000000;stroke-width:0.24281046;stroke-linecap:round;stroke-linejoin:round;stroke-miterlimit:4;stroke-opacity:1;stroke-dasharray:0.97124184, 1.94248368;stroke-dashoffset:0;marker-start:none"
       sodipodi:type="arc" />
    <path
       sodipodi:type="arc"
       style="fill:none;stroke:#000000;stroke-width:0.18210784;stroke-linecap:round;stroke-linejoin:round;stroke-miterlimit:4;stroke-opacity:1;stroke-dasharray:0.7284313, 1.4568626;stroke-dashoffset:0"
       id="path12297"
       sodipodi:cx="205.71428"
       sodipodi:cy="86.647896"
       sodipodi:rx="9.2857141"
       sodipodi:ry="5.7142863"
       d="m 205.71428,80.933609 a 9.2857141,5.7142863 0 0 1 0,11.428573"
       transform="matrix(-2.1538465,0,0,3.5,558.07698,-220.90545)"
       sodipodi:start="4.712389"
       sodipodi:end="7.8539816"
       sodipodi:open="true" />
    <path
       style="fill:none;stroke:#000000;stroke-width:0.5;stroke-linecap:butt;stroke-linejoin:miter;stroke-opacity:1;stroke-miterlimit:4;stroke-dasharray:2,4;stroke-dashoffset:0"
       d="m 115,67.362183 80,0"
       id="path12481" />
    <path
       id="path12483"
       d="m 115,62.362183 80,0"
       style="fill:none;stroke:#000000;stroke-width:0.5;stroke-linecap:butt;stroke-linejoin:miter;stroke-miterlimit:4;stroke-opacity:1;stroke-dasharray:2, 4;stroke-dashoffset:0" />
    <path
       style="fill:none;stroke:#000000;stroke-width:0.5;stroke-linecap:butt;stroke-linejoin:miter;stroke-miterlimit:4;stroke-opacity:1;stroke-dasharray:2, 4;stroke-dashoffset:0"
       d="m 115,97.362183 80,0"
       id="path12485" />
    <path
       id="path12487"
       d="m 115,102.36218 80,0"
       style="fill:none;stroke:#000000;stroke-width:0.5;stroke-linecap:butt;stroke-linejoin:miter;stroke-miterlimit:4;stroke-opacity:1;stroke-dasharray:2, 4;stroke-dashoffset:0" />
    <path
       style="fill:none;stroke:#000000;stroke-width:0.5;stroke-linecap:butt;stroke-linejoin:miter;stroke-miterlimit:4;stroke-opacity:1;stroke-dasharray:2, 3.99999999;stroke-dashoffset:0"
       d="m 55,112.36218 140,0"
       id="path12489" />
    <path
       id="path12491"
       d="m 55,52.362183 140,0"
       style="fill:none;stroke:#000000;stroke-width:0.5;stroke-linecap:butt;stroke-linejoin:miter;stroke-miterlimit:4;stroke-opacity:1;stroke-dasharray:2, 3.99999999;stroke-dashoffset:0" />
    <path
       style="fill:none;stroke:#000000;stroke-width:1;stroke-linecap:butt;stroke-linejoin:miter;stroke-miterlimit:4;stroke-opacity:1;stroke-dasharray:none;stroke-dashoffset:0"
       d="m 225,52.362183 -30,0"
       id="path12493" />
    <path
       id="path12495"
       d="m 225,112.36218 -30,0"
       style="fill:none;stroke:#000000;stroke-width:1;stroke-linecap:butt;stroke-linejoin:miter;stroke-miterlimit:4;stroke-opacity:1;stroke-dasharray:none;stroke-dashoffset:0" />
    <path
       transform="matrix(1.6153847,0,0,2.6249997,-202.3077,-145.08852)"
       d="m 214.99999,86.647896 a 9.2857141,5.7142863 0 1 1 -18.57142,0 9.2857141,5.7142863 0 1 1 18.57142,0 z"
       sodipodi:ry="5.7142863"
       sodipodi:rx="9.2857141"
       sodipodi:cy="86.647896"
       sodipodi:cx="205.71428"
       id="path12497"
       style="fill:none;stroke:#000000;stroke-width:0.48562095;stroke-linecap:round;stroke-linejoin:round;stroke-miterlimit:4;stroke-opacity:1;stroke-dasharray:none;stroke-dashoffset:0"
       sodipodi:type="arc" />
    <path
       id="path12499"
       d="m 50,42.362183 180,0"
       style="fill:none;stroke:#000000;stroke-width:0.49999997;stroke-linecap:butt;stroke-linejoin:miter;stroke-miterlimit:4;stroke-opacity:1;stroke-dasharray:3.99999999, 1, 0.5, 1;stroke-dashoffset:0" />
    <path
       style="fill:none;stroke:#000000;stroke-width:0.49999997;stroke-linecap:butt;stroke-linejoin:miter;stroke-miterlimit:4;stroke-opacity:1;stroke-dasharray:4.00000001, 1.00000001, 0.5, 1.00000001;stroke-dashoffset:0"
       d="m 50.000001,122.36218 319.999999,0"
       id="path12501" />
    <path
       style="fill:none;stroke:#000000;stroke-width:0.49999997;stroke-linecap:butt;stroke-linejoin:miter;stroke-miterlimit:4;stroke-opacity:1;stroke-dasharray:3.99999998, 1, 0.5, 1;stroke-dashoffset:0"
       d="m 70,32.362183 0,99.999997"
       id="path12503" />
    <path
       id="path12505"
       d="m 115,32.362183 0,99.999997"
       style="fill:none;stroke:#000000;stroke-width:0.49999997;stroke-linecap:butt;stroke-linejoin:miter;stroke-miterlimit:4;stroke-opacity:1;stroke-dasharray:3.99999998, 1, 0.5, 1;stroke-dashoffset:0" />
    <path
       style="fill:none;stroke:#000000;stroke-width:0.49999997;stroke-linecap:butt;stroke-linejoin:miter;stroke-miterlimit:4;stroke-opacity:1;stroke-dasharray:3.99999998, 1, 0.5, 1;stroke-dashoffset:0"
       d="m 160,32.362183 0,99.999997"
       id="path12507" />
    <path
       id="path12509"
       d="m 210,32.362183 0,99.999997"
       style="fill:none;stroke:#000000;stroke-width:0.49999997;stroke-linecap:butt;stroke-linejoin:miter;stroke-miterlimit:4;stroke-opacity:1;stroke-dasharray:3.99999998, 1, 0.5, 1;stroke-dashoffset:0" />
    <path
       style="fill:none;stroke:#000000;stroke-width:1;stroke-linecap:butt;stroke-linejoin:miter;stroke-opacity:1;stroke-miterlimit:4;stroke-dasharray:8,2,1,2;stroke-dashoffset:0"
       d="m 70,22.362183 0,35 60,0 0,49.999997 80,0 0,40"
       id="path12511" />
    <text
       xml:space="preserve"
       style="font-size:14px;font-style:normal;font-variant:normal;font-weight:normal;font-stretch:normal;text-align:start;text-anchor:start;fill:#000000;fill-opacity:1;stroke:none;font-family:TeXGyreAdventor;-inkscape-font-specification:TeXGyreAdventor"
       x="200.35715"
       y="20.219324"
       id="text12513"><tspan
         sodipodi:role="line"
         id="tspan12515"
         x="200.35715"
         y="20.219324">1</tspan></text>
    <path
       style="fill:none;stroke:#000000;stroke-width:1px;stroke-linecap:butt;stroke-linejoin:miter;stroke-opacity:1"
       d="m 295,27.362183 -30,0 -10,10 0,30 25,0 0,-15 15,0 0,-25 z"
       id="path12517"
       sodipodi:nodetypes="cccccccc" />
    <path
       sodipodi:nodetypes="cccccccc"
       id="path12519"
       d="m 295,137.36218 -30,0 -10,-10 0,-29.999997 25,0 0,14.999997 15,0 0,25 z"
       style="fill:none;stroke:#000000;stroke-width:1px;stroke-linecap:butt;stroke-linejoin:miter;stroke-opacity:1" />
    <path
       style="fill:none;stroke:#000000;stroke-width:1px;stroke-linecap:butt;stroke-linejoin:miter;stroke-opacity:1"
       d="m 320,27.362183 -25,0 0,25 -10,0 0,15 20,0 0,-5 15,0 0,-35"
       id="path12521" />
    <path
       id="path12523"
       d="m 320,137.36218 -25,0 0,-25 -10,0 0,-14.999997 20,0 0,4.999997 15,0 0,35"
       style="fill:none;stroke:#000000;stroke-width:1px;stroke-linecap:butt;stroke-linejoin:miter;stroke-opacity:1" />
    <path
       style="fill:none;stroke:#000000;stroke-width:0.5;stroke-linecap:butt;stroke-linejoin:miter;stroke-opacity:1;stroke-miterlimit:4;stroke-dasharray:none"
       d="m 350,17.362183 -30,0 0,129.999997 30,0 0,-129.999997"
       id="path12525"
       sodipodi:nodetypes="ccccc" />
    <path
       style="fill:none;stroke:#000000;stroke-width:0.5;stroke-linecap:butt;stroke-linejoin:miter;stroke-opacity:1;stroke-miterlimit:4;stroke-dasharray:none"
       d="m 327.28943,28.320039 c 0.91552,1.831048 -0.2662,-0.399298 0.50507,0.757614 0.10441,0.156618 0.16836,0.336718 0.25254,0.505076 0.0842,0.168359 0.19301,0.326505 0.25254,0.505077 0.10975,0.329269 0.14278,0.680883 0.25254,1.010152 0.0595,0.178572 0.20688,0.322466 0.25253,0.505076 0.0613,0.244998 -0.0799,0.518036 0,0.757615 0.0595,0.178571 0.20689,0.322465 0.25254,0.505076 0.0218,0.0873 0.0257,1.63906 0,1.767767 -0.0681,0.340341 -0.19548,0.667795 -0.25254,1.010153 -0.0277,0.166068 0,0.336717 0,0.505076 0,0.505076 0,1.010152 0,1.515229 0,0.841794 0,1.683587 0,2.525381 0,0.252538 0,0.505076 0,0.757615 0,0.336717 0.0554,0.678016 0,1.010152 -0.0309,0.18567 -0.20688,0.322466 -0.25253,0.505076 -0.0408,0.163332 0,0.336718 0,0.505077 0,0.336717 0,0.673435 0,1.010152 0,0.420897 0,0.841794 0,1.262691 0,0.08418 -0.0204,0.170872 0,0.252538 0.12912,0.516501 0.40066,0.99317 0.50507,1.515229 0.033,0.165089 -0.0408,0.341744 0,0.505076 0.0913,0.365221 0.38603,0.65301 0.50508,1.010153 0.10975,0.329269 0.14278,0.680883 0.25254,1.010152 0.11904,0.357143 0.41377,0.644931 0.50507,1.010153 0.0408,0.163332 -0.0408,0.341744 0,0.505076 0.0457,0.182611 0.20689,0.322466 0.25254,0.505076 0.0408,0.163332 0,0.336718 0,0.505077 0,0.336717 0,0.673435 0,1.010152 0,0.673435 0,1.34687 0,2.020305 0,1.262691 0,2.525382 0,3.788072 0,0.252538 0,0.505076 0,0.757615 0,0.336717 0.0554,0.678016 0,1.010152 -0.0309,0.18567 -0.21562,0.320501 -0.25254,0.505076 -0.049,0.245093 0,1.720644 0,2.020306 0,3.619713 0,7.239426 0,10.859139 0,1.262691 0,2.525382 0,3.788072 0,0.589256 0,1.178512 0,1.767767 0,0.252539 -0.0357,0.507615 0,0.757615 0.0491,0.343592 0.19548,0.667794 0.25254,1.010152 0.0277,0.166068 0,0.336718 0,0.505077 0,0.673435 0,1.34687 0,2.020305 0,0.925973 0,1.851946 0,2.777919 0,0.420897 -0.0465,0.844368 0,1.262691 0.0383,0.344958 0.19548,0.667794 0.25254,1.010152 0.0277,0.166069 0,0.336718 0,0.505077 0,0.336717 0,0.673435 0,1.010152 0,0.08418 -0.0266,0.172679 0,0.252538 0.0595,0.178572 0.20688,0.322466 0.25254,0.505077 0.048,0.192046 0,1.051218 0,1.26269 0,0.673435 0,1.34687 0,2.020305 0,0.252539 -0.0495,0.509981 0,0.757615 0.0369,0.184575 0.25254,0.316845 0.25254,0.505076 0,0.188231 -0.25254,0.316846 -0.25254,0.505076 0,0.188231 0.18263,0.330309 0.25254,0.505077 0.0989,0.247159 0.20033,0.496585 0.25253,0.757614 0.033,0.165089 0,0.336718 0,0.505076 0,0.420897 0,0.841794 0,1.262691 0,0.925975 0,1.851945 0,2.777915 0,0.33672 0,0.67344 0,1.01016 0,0.16836 -0.0408,0.34174 0,0.50507 0.0457,0.18261 0.16836,0.33672 0.25254,0.50508 0,0.33672 -0.0553,0.67802 0,1.01015 0.031,0.18567 0.20689,0.32247 0.25254,0.50508 0.0408,0.16333 0,0.33672 0,0.50507 0,0.21148 -0.048,1.07065 0,1.2627 0.0457,0.18261 0.21562,0.3205 0.25254,0.50507 0.0495,0.24764 -0.0613,0.51262 0,0.75762 0.0289,0.11549 0.21489,0.1396 0.25254,0.25253 0.0532,0.15972 -0.0532,0.34536 0,0.50508 0.0376,0.11294 0.22366,0.13705 0.25253,0.25254 0.0613,0.245 -0.0357,0.50761 0,0.75761 0.50125,3.50872 -0.0128,-0.55628 0.50508,1.51523 0.0408,0.16333 -0.0186,0.33775 0,0.50508 0.0657,0.5916 0.12341,1.1867 0.25254,1.76777 0.0408,0.18374 0.21562,0.3205 0.25254,0.50507 0.0495,0.24764 -0.0938,0.52314 0,0.75762 0.0884,0.22106 0.38257,0.30091 0.50507,0.50507 0.13696,0.22827 0.15368,0.51046 0.25254,0.75762 0.0699,0.17476 0.22159,0.3194 0.25254,0.50507 0.29959,1.79758 -0.31806,0.37403 0.25254,1.51523 0.0842,0.16836 0.14812,0.34846 0.25254,0.50508 0.30805,0.46208 0.32197,0.0252 0.50507,0.75761 0,1.67513 -0.11905,-0.35714 0.25254,0.75762 0.0532,0.15972 -0.0753,0.35449 0,0.50507 0.73368,1.46736 0.47185,-0.7709 0.75761,1.51523 0.0418,0.33412 0,0.67344 0,1.01015 0,0.0842 0.0266,0.17268 0,0.25254 -0.0595,0.17857 -0.20688,0.32247 -0.25253,0.50508 -0.0497,0.19865 0,1.25261 0,1.51523 0,0.84179 0,1.68359 0,2.52538 0,0.25254 0.0799,0.51803 0,0.75761 -0.0376,0.11294 -0.1993,0.14606 -0.25254,0.25254 -0.0283,0.0566 0,0.95014 0,1.01015 0,0.92598 0,1.85195 0,2.77792 0,0.0842 0,0.16836 0,0.25254 0,0.0842 0.0376,0.17725 0,0.25254 -0.0532,0.10648 -0.1993,0.14606 -0.25254,0.25254 -0.0417,0.0834 -0.007,1.24821 0,1.26269 0.0532,0.10648 0.1993,0.14606 0.25254,0.25254 0.0376,0.0753 0,0.16836 0,0.25253 0,0.0842 0.0376,0.17725 0,0.25254 -0.0532,0.10648 -0.1993,0.14606 -0.25254,0.25254 -0.0376,0.0753 0,0.16836 0,0.25254 0,0.0842 -0.0376,0.17725 0,0.25254 0.0532,0.10648 0.1993,0.14606 0.25254,0.25254 0.0753,0.15058 -0.0753,0.35449 0,0.50507 0.31206,0.62413 0.25254,-0.0872 0.25254,0.50508 0,0.0927 0.0102,0.99999 0,1.01015 -0.0595,0.0595 -0.25254,0.0842 -0.25254,0 0,-0.0842 0.16836,0 0.25254,0"
       id="path12527" />
    <path
       style="fill:none;stroke:#000000;stroke-width:0.5;stroke-linecap:butt;stroke-linejoin:miter;stroke-opacity:1;stroke-miterlimit:4;stroke-dasharray:none"
       d="m 343.7044,22.259123 c 0,0.252539 0.0612,0.512617 0,0.757615 -0.0289,0.115493 -0.21489,0.139599 -0.25253,0.252538 0,1.149625 0.11904,0.01444 -0.25254,0.757614 -0.0376,0.07529 0,0.168359 0,0.252539 0,0.168358 0.0532,0.345357 0,0.505076 -0.0376,0.112938 -0.16836,0.168359 -0.25254,0.252538 0,0.168359 0.0408,0.341744 0,0.505076 -0.0457,0.182611 -0.16836,0.336718 -0.25254,0.505076 -0.0842,0.252539 -0.20033,0.496586 -0.25254,0.757615 -0.033,0.165089 0,0.336717 0,0.505076 0,0.420897 0,0.841794 0,1.262691 0,0.168359 0.0408,0.341744 0,0.505076 -0.0457,0.182611 -0.25253,0.316846 -0.25253,0.505076 0,0.188231 0.25253,0.316846 0.25253,0.505077 0,0.18823 -0.21562,0.3205 -0.25253,0.505076 -0.0826,0.412723 0.10208,0.854361 0,1.262691 -0.0457,0.18261 -0.20689,0.322465 -0.25254,0.505076 -0.0408,0.163332 0,0.336717 0,0.505076 0,0.505076 0.083,1.017025 0,1.515229 -0.031,0.18567 -0.20689,0.322466 -0.25254,0.505076 -0.0408,0.163332 0,0.336718 0,0.505077 0,0.168358 0,0.336717 0,0.505076 0,0.925973 0,1.851946 0,2.777919 0,0.168359 0,0.336718 0,0.505077 0,0.252538 0.0612,0.512616 0,0.757614 -0.0289,0.115493 -0.22367,0.137045 -0.25254,0.252538 -0.0612,0.244998 0,0.505076 0,0.757615 0,0.673435 0,1.34687 0,2.020305 0,0.168358 0.0532,0.345357 0,0.505076 -0.0376,0.112938 -0.21489,0.1396 -0.25254,0.252538 -0.0532,0.159719 0,0.336718 0,0.505076 0,0.505077 0,1.010153 0,1.515229 0,0.08418 0.0595,-0.312062 0,-0.252538 -0.63788,0.637887 -0.097,0.291123 -0.25254,0.757614 -0.0595,0.178572 -0.20688,0.322466 -0.25253,0.505077 -0.0668,0.267113 0.0859,1.595969 0,1.767767 -0.10648,0.212958 -0.37301,0.306969 -0.50508,0.505076 -0.0467,0.07004 0.0376,0.177246 0,0.252538 -0.10648,0.212959 -0.42978,0.279199 -0.50508,0.505076 -0.0385,0.115603 0,1.121735 0,1.262691 0,0.08418 0.0266,0.172679 0,0.252538 -0.0595,0.178572 -0.19301,0.326505 -0.25253,0.505076 -0.0799,0.239579 0.0612,0.512617 0,0.757615 -0.0457,0.182611 -0.20689,0.322465 -0.25254,0.505076 -0.0408,0.163332 0.033,0.339987 0,0.505076 -0.0522,0.26103 -0.20033,0.496586 -0.25254,0.757615 -0.033,0.165089 0,0.336717 0,0.505076 0,0.495954 0.0582,1.865351 0,2.272843 -0.0376,0.263523 -0.20033,0.496585 -0.25254,0.757615 -0.033,0.165089 0.0277,0.339008 0,0.505076 -0.0571,0.342358 -0.19548,0.667794 -0.25254,1.010152 -0.1403,0.841794 0.21045,0.210449 0,1.262691 -0.0369,0.184576 -0.20688,0.322466 -0.25254,0.505076 -0.0408,0.163332 0,0.336718 0,0.505077 0,0.168358 0,0.336717 0,0.505076 0,0.925973 0,1.851946 0,2.777919 0,2.441202 0,4.882404 0,7.323606 0,0.757615 0,1.515229 0,2.272844 0,0.420897 0.0595,0.846024 0,1.26269 0.26116,0.651657 -0.40066,0.993171 -0.50507,1.515229 -0.0495,0.247634 0.0357,0.507615 0,0.757615 -0.0491,0.343592 -0.25254,0.663072 -0.25254,1.010152 0,0.119048 0.25254,0.133491 0.25254,0.252538 0,0.188231 -0.20689,0.322466 -0.25254,0.505077 -0.0408,0.163332 0,0.336717 0,0.505076 0,0.168359 0,0.336717 0,0.505076 0,0.505076 0,1.010153 0,1.515229 0,0.505076 0,1.010152 0,1.515229 0,0.08418 0,0.168358 0,0.252538 0,0.08418 -0.0376,0.177246 0,0.252538 0.0532,0.106479 0.21489,0.1396 0.25254,0.252538 0.0385,0.115508 -0.0562,0.897779 0,1.010153 0.0532,0.106479 0.21489,0.139599 0.25254,0.252538 0.0493,0.147754 0,1.298468 0,1.515229 0,0.168358 0,0.336717 0,0.505076 0,0.08418 0.0376,0.177246 0,0.252538 -0.0532,0.106479 -0.2149,0.1396 -0.25254,0.252538 -0.0385,0.115603 0,1.121735 0,1.262691 0,0.08418 -0.0595,0.193014 0,0.252538 0.1547,0.154698 0.66092,0.21499 0.75761,0.505076 0.0532,0.159719 0,0.336718 0,0.505077 0,0.589255 0,1.178511 0,1.767767 0,0.420896 0,0.841793 0,1.26269 0,0.08418 -0.0266,0.172679 0,0.252538 0.0595,0.178572 0.20689,0.322466 0.25254,0.505077 0.0613,0.244998 0,0.505076 0,0.757614 0,0.589256 0,1.178511 0,1.767767 0,0.08603 -0.0456,0.873477 0,1.010153 0.0595,0.178571 0.19302,0.326504 0.25254,0.505076 0.0544,0.163318 0,0.986944 0,1.262691 0,0.2294 0.0546,1.60383 0,1.76777 -0.0376,0.11293 -0.21489,0.1396 -0.25254,0.25253 -0.0453,0.13577 0,0.79635 0,1.01016 0,0.24632 -0.0414,1.81328 0,2.0203 0.0369,0.18458 0.21562,0.3205 0.25254,0.50508 0,1.92652 -0.11294,-0.19922 0.25254,1.26269 0.0612,0.245 -0.0799,0.51803 0,0.75761 0.7154,1.43081 -0.0941,-0.37646 0.25254,1.01016 0.0456,0.18261 0.20688,0.32246 0.25253,0.50507 0.0408,0.16333 0,0.33672 0,0.50508 0,0.0842 -0.0376,0.17724 0,0.25254 0.0532,0.10648 0.1993,0.14606 0.25254,0.25253 0.0807,0.16138 -0.0677,0.80689 0,1.01016 -0.45731,1.05656 0.3986,0.29211 0.50508,0.50507 0.13905,0.27811 -0.0987,0.71403 0,1.01016 0.0595,0.17857 0.19301,0.3265 0.25254,0.50507 0.0266,0.0799 -0.0376,0.17725 0,0.25254 0.0532,0.10648 0.19929,0.14606 0.25253,0.25254 0.0753,0.15058 -0.11904,0.38603 0,0.50508 0.1331,0.13309 0.37198,0.11943 0.50508,0.25253 0.1331,0.1331 0.14813,0.34846 0.25254,0.50508 0.42958,0.64437 0.23991,-0.31566 0.50508,1.01015 0.033,0.16509 -0.0277,0.33901 0,0.50508 0.0571,0.34236 0.19547,0.66779 0.25253,1.01015 0.0277,0.16607 -0.0532,0.34536 0,0.50508 0.0376,0.11294 0.18651,0.15348 0.25254,0.25254 0.73532,1.10297 -0.11193,-0.0832 0.25254,1.01015 0.0376,0.11294 0.1993,0.14606 0.25254,0.25254 0.0376,0.0753 0,0.16835 0,0.25253 0,0.16836 -0.0408,0.34175 0,0.50508 0.0457,0.18261 0.20688,0.32247 0.25254,0.50508 0.0408,0.16333 -0.0408,0.34174 0,0.50507 0.0457,0.18261 0.20688,0.32247 0.25253,0.50508 0.20805,0.83216 -0.26615,0.23892 0.25254,0.75761 0.0842,0.0842 0.21489,0.1396 0.25254,0.25254 0.0758,0.22729 -0.0758,0.53033 0,0.75762 0.0595,0.17857 0.19301,0.3265 0.25254,0.50507 0.0532,0.15972 0,0.33672 0,0.50508 0,0.50508 0,1.01015 0,1.51523 0,0.15836 -0.0312,0.97896 0,1.01015 0.0595,0.0595 0.21489,-0.0753 0.25254,0 0.11293,0.22588 0,0.50508 0,0.75761 0,0.50508 0,1.01016 0,1.51523 0,0.0842 0,0.16836 0,0.25254 0,0.0842 -0.0376,0.17725 0,0.25254 0.0532,0.10648 0.19929,0.14606 0.25253,0.25254 0.0784,0.15683 -0.0809,1.35341 0,1.51523 0.0532,0.10648 0.2149,0.1396 0.25254,0.25253 0.0678,0.20334 -0.0725,1.37024 0,1.51523 0.0532,0.10648 0.25254,0.13349 0.25254,0.25254 0,0.11905 -0.25254,0.13349 -0.25254,0.25254 0,0.0814 0.43492,0.36476 0.50508,0.50508 0.0794,0.15872 -0.0794,0.85142 0,1.01015 0.0532,0.10648 0.1993,0.14606 0.25254,0.25254 0.0376,0.0753 -0.0377,0.17724 0,0.25253 0.0532,0.10648 0.1993,0.14606 0.25254,0.25254 0.10101,0.20203 -0.10102,0.55559 0,0.75762 0.0532,0.10648 0.19929,0.14606 0.25253,0.25254 0.10102,0.20203 -0.10101,0.55558 0,0.75761 0.0532,0.10648 0.1993,0.14606 0.25254,0.25254 0.0376,0.0753 -0.0376,0.17724 0,0.25254 0.0449,0.0899 0.46014,0.4152 0.50508,0.50507 0.0685,0.137 -0.0691,0.94106 0,1.01016 0.0595,0.0595 0.19301,-0.0595 0.25254,0 0.0356,0.0356 0.0259,0.70581 0,0.75761 -0.0532,0.10648 -0.25254,0.13349 -0.25254,0.25254 0,0.0842 0.19301,-0.0595 0.25254,0 0.008,0.008 0,0.69636 0,0.75761 0,0.8418 0,1.68359 0,2.52538 0,0.0842 0,0.16836 0,0.25254 0,0.0842 -0.0595,0.19302 0,0.25254 0.0595,0.0595 0.19301,-0.0595 0.25253,0 0.11905,0.11905 -0.11904,0.38603 0,0.50508 0.0595,0.0595 0.19302,-0.0595 0.25254,0 0.0595,0.0595 0,0.16835 0,0.25253 0,0.0842 0.0595,0.19302 0,0.25254 -0.0223,0.0223 -0.97549,0 -0.25254,0"
       id="path12529" />
    <path
       style="fill:none;stroke:#000000;stroke-width:0.5;stroke-linecap:butt;stroke-linejoin:miter;stroke-opacity:1;stroke-miterlimit:4;stroke-dasharray:none"
       d="m 324.25897,65.695683 c 0,-0.336718 0,-0.673435 0,-1.010153 0,-0.08418 -0.0266,-0.172678 0,-0.252538 0.0595,-0.178571 0.19301,-0.326505 0.25254,-0.505076 0.0266,-0.07986 0,-0.168359 0,-0.252538 0,-0.168359 0,-0.336718 0,-0.505076 0,-0.336718 0,-0.673435 0,-1.010153 0,-0.206753 -0.0546,-1.099067 0,-1.262691 0.0595,-0.178571 0.20688,-0.322465 0.25253,-0.505076 0.0817,-0.326664 -0.12505,-0.697518 0,-1.010153 0.11273,-0.281804 0.39236,-0.475809 0.50508,-0.757614 0.0301,-0.07514 0,-1.159139 0,-1.262691 0,-1.675127 -0.11905,0.357143 0.25254,-0.757614 0.10648,-0.319438 -0.10648,-0.690714 0,-1.010153 0.0376,-0.112938 0.16836,-0.168358 0.25254,-0.252538 0.0842,-0.252538 0.18797,-0.499364 0.25253,-0.757614 0.12627,-0.505076 -0.25253,0 0,-0.757615 0.0377,-0.112938 0.2292,-0.135802 0.25254,-0.252538 0.066,-0.330178 -0.0553,-0.678016 0,-1.010152 0.0619,-0.37134 0.38603,-0.65301 0.50508,-1.010153 0.0266,-0.07986 -0.0266,-0.172678 0,-0.252538 0.0595,-0.178571 0.19301,-0.326505 0.25254,-0.505076 0.21255,-0.637655 -0.51293,0.263004 0.25254,-0.757615 0.14285,-0.190476 0.3146,-0.362219 0.50507,-0.505076 0.15059,-0.112938 0.40067,-0.09592 0.50508,-0.252538 0.0934,-0.140083 -0.0532,-0.345357 0,-0.505076 0.0562,-0.168561 0.93315,-0.856143 1.01015,-1.010153 0.0753,-0.150584 -0.0408,-0.341744 0,-0.505076 0.1831,-0.732419 0.19702,-0.295536 0.50508,-0.757614 0.10441,-0.156618 0.14812,-0.348459 0.25253,-0.505077 0.066,-0.09905 0.18651,-0.153484 0.25254,-0.252538 0.73532,-1.102971 -0.11192,0.08324 0.25254,-1.010152 0.0376,-0.112939 0.1865,-0.153485 0.25254,-0.252539 0.10441,-0.156617 0.14813,-0.348458 0.25254,-0.505076 0.13207,-0.198107 0.373,-0.306969 0.50507,-0.505076 0.31082,-0.466224 0.4468,-1.049005 0.75762,-1.515229 0.066,-0.09905 0.21489,-0.1396 0.25254,-0.252538 0.0532,-0.159719 -0.0753,-0.354492 0,-0.505076 0.10648,-0.212959 0.373,-0.306969 0.50507,-0.505077 0.0467,-0.07004 -0.0266,-0.172678 0,-0.252538 0.0595,-0.178571 0.14813,-0.348459 0.25254,-0.505076 0.066,-0.09905 0.25254,-0.133491 0.25254,-0.252538 0,-0.188231 -0.25254,-0.316846 -0.25254,-0.505076 0,-0.188231 0.20689,-0.322466 0.25254,-0.505077 0.0408,-0.163332 -0.0532,-0.345357 0,-0.505076 0.0376,-0.112938 0.21489,-0.1396 0.25254,-0.252538 0.0409,-0.12269 0,-1.509938 0,-1.767767 0,-0.08418 0,-0.168359 0,-0.252538 0,-0.08418 -0.0376,-0.177246 0,-0.252538 0.0532,-0.10648 0.1993,-0.146059 0.25253,-0.252538 0.0376,-0.07529 0,-0.168359 0,-0.252539 0,-0.08418 0,-0.168358 0,-0.252538 0,-0.841794 0,-1.683587 0,-2.525381 0,-0.132058 -0.0332,-0.94375 0,-1.010153 0.0532,-0.106479 0.1993,-0.146058 0.25254,-0.252538 0.0376,-0.07529 0,-0.168359 0,-0.252538 0,-0.08418 0,-0.168359 0,-0.252538 0,-0.592247 0.0595,0.119048 -0.25254,-0.505076 -0.0457,-0.09133 0,-1.087041 0,-1.262691 0,-0.254319 -0.0466,-1.375571 0,-1.515229 0.0376,-0.112938 0.1993,-0.146059 0.25254,-0.252538 0.0801,-0.160189 -0.082,-1.098636 0,-1.262691 0.0532,-0.106479 0.21489,-0.139599 0.25254,-0.252538 0.0532,-0.159719 0,-0.336717 0,-0.505076 0,-0.08418 -0.0376,-0.177246 0,-0.252538 0.0532,-0.10648 0.1993,-0.146059 0.25254,-0.252538 0.0376,-0.07529 -0.0595,-0.193015 0,-0.252538 0.1331,-0.1331 0.37198,-0.119439 0.50508,-0.252539 0.0595,-0.05952 -0.0376,-0.177245 0,-0.252538 0.0532,-0.106479 0.16835,-0.168359 0.25253,-0.252538 0.0842,-0.08418 0.13349,-0.252538 0.25254,-0.252538 0.11905,0 0.13349,0.252538 0.25254,0.252538 0.0842,0 -0.0595,-0.193014 0,-0.252538 0.1331,-0.133099 0.34846,-0.148127 0.50508,-0.252538 0.0991,-0.06604 0.14605,-0.199299 0.25253,-0.252538 0.0753,-0.03765 0.16836,0 0.25254,0 0.0842,0 0.17725,-0.03765 0.25254,0 0.10648,0.05324 0.16836,0.168358 0.25254,0.252538 0.0842,0.08418 0.1993,0.146059 0.25254,0.252538 0.0376,0.07529 -0.0595,0.193014 0,0.252538 1.56595,0.782979 0.0643,-0.156077 0.50507,0.505076 0.61686,0.925293 0.60189,0.145214 1.01016,0.757615 0.47841,-0.02876 0.16835,0.589255 0.25253,0.757614 0.10648,0.212959 0.37301,0.306969 0.50508,0.505076 0.10441,0.156618 0.14813,0.348459 0.25254,0.505077 0.066,0.09905 0.1993,0.146058 0.25254,0.252538 0.0342,0.06834 0,1.406448 0,1.515229 0,0.925973 0,1.851946 0,2.777919 0,0.168359 -0.0532,0.345357 0,0.505076 0.0376,0.112939 0.25253,0.133491 0.25253,0.252539 0,0.18823 -0.20688,0.322465 -0.25253,0.505076 -0.0179,0.0716 -0.013,1.184972 0,1.262691 0.0571,0.342358 0.25253,0.663072 0.25253,1.010152 0,0.188231 -0.25253,0.316846 -0.25253,0.505076 0,0.188231 0.20688,0.322466 0.25253,0.505077 0.0408,0.163332 0,0.336717 0,0.505076 0,0.589256 0,1.178511 0,1.767767 0,1.279748 0.0753,-0.301169 -0.25253,1.010152 -0.0166,0.06658 -0.017,1.464389 0,1.515229 0.0376,0.112939 0.21489,0.1396 0.25253,0.252538 0.0532,0.15972 0,0.336718 0,0.505077 0,0.336717 0,0.673435 0,1.010152 0,0.168359 0,0.336718 0,0.505076 0,0.08418 -0.0204,0.170873 0,0.252539 0.0646,0.25825 0.18798,0.499363 0.25254,0.757614 0.0204,0.08167 -0.0266,0.172679 0,0.252538 0.0595,0.178572 0.19302,0.326505 0.25254,0.505076 0.0266,0.07986 -0.0266,0.172679 0,0.252539 0.0595,0.178571 0.19302,0.326504 0.25254,0.505076 0.0266,0.07986 -0.0266,0.172678 0,0.252538 0.0595,0.178571 0.19301,0.326505 0.25254,0.505076 0.0266,0.07986 -0.0266,0.172679 0,0.252538 0.0595,0.178572 0.19301,0.326505 0.25254,0.505077 0.0266,0.07986 -0.0266,0.172678 0,0.252538 0.0743,0.222953 0.62439,1.315394 0.75761,1.515229 0.30805,0.462078 0.32197,0.02519 0.50508,0.757614 0.0408,0.163332 0,0.336718 0,0.505076 0,0.08418 -0.0376,0.177246 0,0.252538 0.0532,0.10648 0.21489,0.1396 0.25253,0.252539 0.0532,0.159719 -0.0532,0.345357 0,0.505076 0.0753,0.225877 0.3986,0.292117 0.50508,0.505076 0.0377,0.07529 -0.0376,0.177246 0,0.252538 0.0532,0.10648 0.1993,0.146059 0.25254,0.252538 0.0376,0.07529 0,0.168359 0,0.252539 0,0.08418 0,0.168358 0,0.252538 0,0.589255 0,1.178511 0,1.767767 0,0.168358 -0.0532,0.345357 0,0.505076 0.0376,0.112938 0.21489,0.1396 0.25254,0.252538 0.0383,0.115047 0,1.596744 0,1.767767 0,1.431049 0,2.862099 0,4.293148 0,0.420897 0,0.841794 0,1.262691 0,0.252538 -0.0799,0.518036 0,0.757614 0.0376,0.112939 0.19929,0.146059 0.25253,0.252539 0.23618,0.472353 -0.72753,0.363766 0.50508,-0.252539 0.0753,-0.03765 0,0.168359 0,0.252539 0,0.08418 0,0.168358 0,0.252538 0,0.592247 -0.0595,-0.119048 0.25254,0.505076 0.0794,0.158726 -0.0794,0.851427 0,1.010152 0.0532,0.10648 0.1993,0.146059 0.25254,0.252539 0.0807,0.161377 -0.0678,0.806884 0,1.010152 0.0595,0.178572 0.19301,0.326505 0.25254,0.505076 0.0266,0.07986 0,0.168359 0,0.252539 0.0842,0.168358 0.19301,0.326504 0.25253,0.505076 0.0706,0.211659 -0.0837,0.842789 0,1.010152 0.0532,0.10648 0.1993,0.146059 0.25254,0.252539 0.0384,0.07685 0,0.643881 0,0.757614 0,0.08418 0.0595,0.193014 0,0.252538 -0.33672,0.336718 -0.25254,-0.420897 -0.25254,0.252538"
       id="path12539" />
    <path
       style="fill:none;stroke:#000000;stroke-width:0.5;stroke-linecap:butt;stroke-linejoin:miter;stroke-opacity:1;stroke-miterlimit:4;stroke-dasharray:none"
       d="m 324.00643,99.283255 c 0.0842,-0.168359 0.16836,-0.336717 0.25254,-0.505076 0.0842,-0.168359 0.1396,-0.354492 0.25254,-0.505076 0.28571,-0.380953 0.72443,-0.629201 1.01015,-1.010153 0.44438,-0.59251 0.21588,-0.996588 0.50507,-1.767767 0.10657,-0.284188 0.38552,-0.478642 0.50508,-0.757614 0.13672,-0.319018 0.14278,-0.680883 0.25254,-1.010153 0.0595,-0.178571 0.18263,-0.330308 0.25254,-0.505076 0.74317,-1.857929 -0.39201,0.531484 0.75761,-1.767767 0.16836,-0.336718 0.38603,-0.65301 0.50508,-1.010153 0.10975,-0.329269 0.14278,-0.680883 0.25254,-1.010152 0.0595,-0.178572 0.16835,-0.336718 0.25253,-0.505077 0,-0.252538 -0.0495,-0.50998 0,-0.757614 0.0369,-0.184575 0.20689,-0.322465 0.25254,-0.505076 0.0408,-0.163332 0,-0.336718 0,-0.505076 0,-0.252539 0,-0.505077 0,-0.757615 0,-0.168359 -0.0408,-0.341744 0,-0.505076 0.0457,-0.182611 0.20689,-0.322466 0.25254,-0.505076 0.0612,-0.244998 -0.0799,-0.518036 0,-0.757615 0.0595,-0.178571 0.16836,-0.336717 0.25254,-0.505076 0.0842,-0.168359 0.14812,-0.348459 0.25254,-0.505076 0.066,-0.09905 0.21489,-0.1396 0.25253,-0.252539 0.0532,-0.159719 -0.0408,-0.341744 0,-0.505076 0.0457,-0.182611 0.19302,-0.326505 0.25254,-0.505076 0.0266,-0.07986 -0.0376,-0.177246 0,-0.252538 0.59627,-1.192533 -0.13281,1.541395 0.50508,-1.010153 0.0204,-0.08167 -0.0204,-0.170872 0,-0.252538 0.0646,-0.25825 0.18797,-0.499364 0.25254,-0.757614 0.0204,-0.08167 0,-0.168359 0,-0.252538 0.0842,-0.336718 0.14278,-0.680884 0.25254,-1.010153 0.0595,-0.178571 0.20688,-0.322466 0.25253,-0.505076 0.0408,-0.163332 -0.0934,-0.364994 0,-0.505077 0.10442,-0.156617 0.37198,-0.119438 0.50508,-0.252538 0.1331,-0.133099 0.16836,-0.336717 0.25254,-0.505076 0.16836,-0.252538 0.29046,-0.542998 0.50507,-0.757614 0.1331,-0.1331 0.37198,-0.119439 0.50508,-0.252538 0.77514,-0.775141 -0.14755,-0.20998 0.25254,-1.010153 0.10648,-0.212959 0.41665,-0.28401 0.50507,-0.505076 0.0938,-0.234476 -0.0495,-0.509981 0,-0.757615 0.0369,-0.184575 0.19302,-0.326505 0.25254,-0.505076 0.0266,-0.07986 -0.0266,-0.172679 0,-0.252538 0.0595,-0.178572 0.20689,-0.322466 0.25254,-0.505076 0.0408,-0.163332 0,-0.336718 0,-0.505077 0.0842,-0.168358 0.19302,-0.326505 0.25254,-0.505076 0.0579,-0.173704 -0.0745,-0.608612 0,-0.757614 0.0532,-0.10648 0.25254,-0.133491 0.25254,-0.252539 0,-0.119047 -0.25254,-0.13349 -0.25254,-0.252538 0,-0.08418 0.19301,0.05952 0.25254,0 0.11904,-0.119047 -0.0753,-0.354491 0,-0.505076 0.0532,-0.106479 0.1993,-0.146059 0.25254,-0.252538 0.0797,-0.159319 -0.0797,-1.103372 0,-1.262691 0.0532,-0.106479 0.19929,-0.146058 0.25253,-0.252538 0.0376,-0.07529 -0.0595,-0.193014 0,-0.252538 0.0595,-0.05952 0.19302,0.05952 0.25254,0 0.0833,-0.08325 -0.0609,-0.827404 0,-1.010153 0.0376,-0.112938 0.1993,-0.146058 0.25254,-0.252538 0.0376,-0.07529 -0.0376,-0.177245 0,-0.252538 0.12425,-0.248505 0.8859,-0.761648 1.01015,-1.010152 0.0376,-0.07529 0,-0.168359 0,-0.252539 0.0842,-0.08418 0.1993,-0.146058 0.25254,-0.252538 0.0501,-0.100129 -0.0516,-0.705986 0,-0.757614 0.0595,-0.05952 0.19301,-0.05952 0.25254,0 0.0595,0.05952 -0.0204,0.170872 0,0.252538 0.0646,0.258251 0.20033,0.496585 0.25254,0.757614 0.033,0.16509 -0.0532,0.345358 0,0.505077 0.0376,0.112938 0.18111,0.1573 0.25253,0.252538 0.18211,0.24281 0.39236,0.47581 0.50508,0.757614 0.0625,0.156317 0,0.336718 0,0.505077 0,0.336717 0,0.673435 0,1.010152 0,0.252538 -0.0415,0.508512 0,0.757615 0.0438,0.262576 0.21489,0.494091 0.25254,0.757614 0.0476,0.333333 -0.0372,0.675494 0,1.010152 0.0474,0.426607 0.1993,0.836773 0.25254,1.262691 0.0313,0.250588 0,0.505076 0,0.757615 0,0.589255 0,1.178511 0,1.767767 0,0.168358 -0.033,0.339986 0,0.505076 0.0522,0.261029 0.20033,0.496585 0.25254,0.757614 0.033,0.16509 0,0.336718 0,0.505077 0,0.336717 0,0.673435 0,1.010152 0,0.08418 -0.0266,0.172679 0,0.252538 0.0595,0.178572 0.20688,0.322466 0.25253,0.505076 0.0408,0.163332 0,0.336718 0,0.505077 0,0.420897 0,0.841794 0,1.26269 0,0.168359 -0.0408,0.341745 0,0.505077 0.0457,0.18261 0.19302,0.326505 0.25254,0.505076 0.0266,0.07986 0,0.168359 0,0.252538 0,0.252538 -0.0495,0.50998 0,0.757615 0.0369,0.184575 0.25254,0.316845 0.25254,0.505076 0,0.119047 -0.22366,0.137045 -0.25254,0.252538 -0.0613,0.244998 0,0.505076 0,0.757614 0,0.168359 0,0.336718 0,0.505077 0,0.336717 0,0.673435 0,1.010152 0,0.08418 -0.0266,0.172679 0,0.252538 0.0595,0.178572 0.20689,0.322466 0.25254,0.505077 0.0363,0.145392 0.0363,1.622374 0,1.767767 -0.14898,0.59592 -0.41251,0.370278 -0.25254,1.010152 0.0456,0.182611 0.19302,0.326505 0.25254,0.505076 0.0266,0.07986 0,0.168359 0,0.252538 0,0.336718 0,0.673436 0,1.010153 0,0.168359 -0.0408,0.341744 0,0.505076 0.0456,0.182611 0.20689,0.322466 0.25254,0.505077 0.0817,0.326664 -0.0817,0.683488 0,1.010152 0.0457,0.182611 0.19301,0.326505 0.25254,0.505076 0.0266,0.07986 -0.0165,0.169994 0,0.252539 0.0681,0.34034 0.14278,0.680883 0.25253,1.010152 0.0595,0.178571 0.20689,0.322466 0.25254,0.505076 0.0408,0.163332 -0.0408,0.341745 0,0.505077 0.0457,0.18261 0.19302,0.326504 0.25254,0.505076 0.0266,0.07986 -0.0266,0.172678 0,0.252538 0.0595,0.178571 0.20689,0.322466 0.25254,0.505076 0.0408,0.163332 -0.0532,0.345357 0,0.505077 0.0376,0.112938 0.16836,0.168358 0.25254,0.252538 0.28894,0.288942 0.35218,0.298947 0.50507,0.757614 0.0678,0.203268 -0.0807,0.848775 0,1.010153 0.0532,0.106479 0.1993,0.146058 0.25254,0.252538 0.0753,0.150584 -0.0753,0.354491 0,0.505076 0.0532,0.106479 0.1993,0.146059 0.25254,0.252538 0.0753,0.150585 -0.11905,0.386029 0,0.505077 0.0595,0.0595 0.19301,-0.05952 0.25254,0 0.11905,0.11905 -0.0753,0.35449 0,0.50508 0.0532,0.10648 0.1993,0.14605 0.25254,0.25253 0.0376,0.0753 -0.0595,0.19302 0,0.25254 0.0595,0.0595 0.19301,-0.0595 0.25253,0 0.11905,0.11905 -0.0532,0.34536 0,0.50508 0.0595,0.17857 0.19302,0.3265 0.25254,0.50507 0.0532,0.15972 -0.0753,0.3545 0,0.50508 0.0532,0.10648 0.1993,0.14606 0.25254,0.25254 0.0377,0.0753 -0.0595,0.19301 0,0.25254 0.1331,0.1331 0.44555,0.074 0.50508,0.25254 0.0842,0.25253 -0.44077,0.56938 -0.25254,0.75761 0.0595,0.0595 0.19301,-0.0595 0.25254,0 0,0.67343 -0.0842,-0.0842 0.25253,0.25254 0.22067,0.22066 -0.25253,0.40645 -0.25253,0.50507 0,0.11905 0.25253,0.13349 0.25253,0.25254 0,0.0842 -0.25253,-0.0842 -0.25253,0 0,0.11905 0.19929,0.14606 0.25253,0.25254 0.0753,0.15059 -0.11904,0.38603 0,0.50508 0.0595,0.0595 0.19302,-0.0595 0.25254,0 0.11905,0.11904 -0.0753,0.35449 0,0.50507 0.0532,0.10648 0.25254,0.13349 0.25254,0.25254 0,0.0842 -0.25254,-0.0842 -0.25254,0 0,0.11905 0.1993,0.14606 0.25254,0.25254 0.0376,0.0753 -0.0376,0.17724 0,0.25254 0.0532,0.10648 0.1993,0.14606 0.25254,0.25254 0.37158,0.74317 -0.58503,-0.33249 0.25254,0.50507"
       id="path12541" />
    <path
       style="fill:none;stroke:#000000;stroke-width:0.5;stroke-linecap:butt;stroke-linejoin:miter;stroke-opacity:1;stroke-miterlimit:4;stroke-dasharray:none"
       d="m 326.27927,137.66905 c 0.41467,-0.5196 1.12259,-0.99171 1.51523,-1.51523 0.33099,-0.44132 0.25042,-0.75338 0.50508,-1.26269 0.13573,-0.27147 0.32297,-0.5148 0.50507,-0.75761 0.0714,-0.0952 0.18111,-0.1573 0.25254,-0.25254 0.18211,-0.24281 0.29046,-0.543 0.50508,-0.75761 0.1331,-0.1331 0.40823,-0.0911 0.50507,-0.25254 0.17858,-0.29762 0.074,-0.71254 0.25254,-1.01016 0.0968,-0.1614 0.39214,-0.10195 0.50508,-0.25253 0.15972,-0.21296 0.11558,-0.52935 0.25254,-0.75762 0.1225,-0.20416 0.33671,-0.33672 0.50507,-0.50507 0.16836,-0.16836 0.33672,-0.33672 0.50508,-0.50508 0.25254,-0.25254 0.50508,-0.50508 0.75761,-0.75761 0.16836,-0.16836 0.3146,-0.36222 0.50508,-0.50508 0.15058,-0.11294 0.37198,-0.11944 0.50508,-0.25254 0.1331,-0.1331 0.11944,-0.37198 0.25253,-0.50508 0.1331,-0.13309 0.33672,-0.16835 0.50508,-0.25253 0.16836,-0.0842 0.32651,-0.19302 0.50508,-0.25254 0.0799,-0.0266 0.19301,0.0595 0.25254,0 0.13309,-0.1331 0.0959,-0.40067 0.25253,-0.50508 0.14009,-0.0934 0.34536,0.0532 0.50508,0 0.36137,-0.12046 0.0986,-0.38802 0.50508,-0.25254 0.54163,0.18055 0.87448,0.62195 1.26269,1.01016 0.0842,0.0842 0.16836,0.16836 0.25253,0.25253 0.0842,0.0842 0.1396,0.2149 0.25254,0.25254 0.15972,0.0532 0.365,-0.0934 0.50508,0 0.15662,0.10441 0.14813,0.34846 0.25254,0.50508 0.38678,0.58017 0.14425,-0.10829 0.75761,0.50508 0.0595,0.0595 -0.0266,0.17267 0,0.25253 0.0595,0.17857 0.14813,0.34846 0.25254,0.50508 0.21433,0.3215 0.77677,0.69898 1.01015,1.01015 0.11294,0.15059 0.14813,0.34846 0.25254,0.50508 0.11061,0.16591 0.71205,0.62093 0.75762,0.75761 3.8e-4,0.001 -2.5e-4,0.75738 0,0.75762 0.0595,0.0595 0.21489,-0.0753 0.25253,0 0.25254,0.50507 -0.12627,0.3788 0,0.75761 0.0595,0.17857 0.19302,0.32651 0.25254,0.50508 0.0728,0.21833 -0.0804,1.10199 0,1.26269 0.0532,0.10648 0.1993,0.14606 0.25254,0.25254 0.0376,0.0753 -0.0377,0.17724 0,0.25253 0.0532,0.10648 0.1993,0.14606 0.25254,0.25254 0.0376,0.0753 -0.0376,0.17725 0,0.25254 0.0532,0.10648 0.1993,0.14606 0.25254,0.25254 0.0376,0.0753 -0.0376,0.17725 0,0.25254 0.0532,0.10648 0.19929,0.14606 0.25253,0.25254 0.0376,0.0753 -0.0595,0.19301 0,0.25253 0.0595,0.0595 0.17725,-0.0376 0.25254,0 0.10648,0.0532 0.16836,0.16836 0.25254,0.25254 0.0842,0.0842 0.1993,0.14606 0.25254,0.25254 0.0753,0.15058 -0.0753,0.35449 0,0.50508 0.0532,0.10648 0.16836,0.16836 0.25254,0.25253 0,0.16836 -0.0408,0.34175 0,0.50508 0.30487,1.21949 0.12001,-0.0125 0.50507,0.75762 0.13468,0.26935 -0.13468,0.23572 0,0.50507 0.0532,0.10648 0.1993,0.14606 0.25254,0.25254 0.0753,0.15058 -0.11905,0.38603 0,0.50508 0.0595,0.0595 0.19302,-0.0595 0.25254,0 0.0595,0.0595 0,0.16835 0,0.25253 0,0.0842 0,0.16836 0,0.25254 0,0.4209 0,0.8418 0,1.26269 0,0.0842 0,0.16836 0,0.25254 0,0.0842 -0.0377,0.17725 0,0.25254 0.0532,0.10648 0.1993,0.14606 0.25254,0.25254 0.0753,0.15058 -0.0753,0.35449 0,0.50507 0.5255,1.05101 -0.0174,-0.26997 0.50507,0.25254 0.0595,0.0595 -0.0376,0.17725 0,0.25254 0.0532,0.10648 0.1993,0.14606 0.25254,0.25254 0.0753,0.15058 -0.11905,0.38603 0,0.50507 0.16842,0.16843 0.33666,-0.16842 0.50508,0 0.0595,0.0595 0,0.16836 0,0.25254 0,0.0842 0,0.16836 0,0.25254"
       id="path12543" />
    <text
       id="text12620"
       y="22.362183"
       x="270"
       style="font-size:14px;font-style:normal;font-variant:normal;font-weight:normal;font-stretch:normal;text-align:start;text-anchor:start;fill:#000000;fill-opacity:1;stroke:none;font-family:TeXGyreAdventor;-inkscape-font-specification:TeXGyreAdventor"
       xml:space="preserve"><tspan
         y="22.362183"
         x="270"
         id="tspan12622"
         sodipodi:role="line">2</tspan></text>
    <text
       xml:space="preserve"
       style="font-size:14px;font-style:normal;font-variant:normal;font-weight:normal;font-stretch:normal;text-align:start;text-anchor:start;fill:#000000;fill-opacity:1;stroke:none;font-family:TeXGyreAdventor;-inkscape-font-specification:TeXGyreAdventor"
       x="300"
       y="22.362183"
       id="text12624"><tspan
         sodipodi:role="line"
         id="tspan12626"
         x="300"
         y="22.362183">3</tspan></text>
  </g>
</svg>
